solid shape, STL ascii file, created with Open CASCADE Technology
 facet normal 3.296412e-07 9.324450e-01 -3.613118e-01
   outer loop
     vertex 1.501174e+00 7.739754e-02 -2.997701e-02
     vertex 1.500220e+00 7.738894e-02 -2.999919e-02
     vertex 1.499165e+00 7.739313e-02 -2.998838e-02
   endloop
 endfacet
 facet normal -1.509292e-06 9.325545e-01 -3.610292e-01
   outer loop
     vertex 1.501174e+00 7.739754e-02 -2.997701e-02
     vertex 1.499165e+00 7.739313e-02 -2.998838e-02
     vertex 1.498114e+00 7.741160e-02 -2.994068e-02
   endloop
 endfacet
 facet normal -2.196956e-06 9.328607e-01 -3.602374e-01
   outer loop
     vertex 1.502129e+00 7.741790e-02 -2.992438e-02
     vertex 1.498114e+00 7.741160e-02 -2.994068e-02
     vertex 1.497065e+00 7.744425e-02 -2.985612e-02
   endloop
 endfacet
 facet normal 7.325964e-07 9.326181e-01 -3.608650e-01
   outer loop
     vertex 1.502129e+00 7.741790e-02 -2.992438e-02
     vertex 1.501174e+00 7.739754e-02 -2.997701e-02
     vertex 1.498114e+00 7.741160e-02 -2.994068e-02
   endloop
 endfacet
 facet normal -2.157205e-06 9.333393e-01 -3.589956e-01
   outer loop
     vertex 1.503082e+00 7.744999e-02 -2.984122e-02
     vertex 1.497065e+00 7.744425e-02 -2.985612e-02
     vertex 1.496019e+00 7.749095e-02 -2.973470e-02
   endloop
 endfacet
 facet normal 8.203079e-07 9.329359e-01 -3.600426e-01
   outer loop
     vertex 1.503082e+00 7.744999e-02 -2.984122e-02
     vertex 1.502129e+00 7.741790e-02 -2.992438e-02
     vertex 1.497065e+00 7.744425e-02 -2.985612e-02
   endloop
 endfacet
 facet normal 3.702508e-07 9.333954e-01 -3.588496e-01
   outer loop
     vertex 1.504035e+00 7.749373e-02 -2.972747e-02
     vertex 1.503082e+00 7.744999e-02 -2.984122e-02
     vertex 1.496019e+00 7.749095e-02 -2.973470e-02
   endloop
 endfacet
 facet normal -1.228077e-06 9.339877e-01 -3.573051e-01
   outer loop
     vertex 1.504035e+00 7.749373e-02 -2.972747e-02
     vertex 1.496019e+00 7.749095e-02 -2.973470e-02
     vertex 1.494976e+00 7.755151e-02 -2.957640e-02
   endloop
 endfacet
 facet normal -8.811669e-07 9.339947e-01 -3.572870e-01
   outer loop
     vertex 1.504984e+00 7.754898e-02 -2.958303e-02
     vertex 1.504035e+00 7.749373e-02 -2.972747e-02
     vertex 1.494976e+00 7.755151e-02 -2.957640e-02
   endloop
 endfacet
 facet normal 5.736526e-07 9.347257e-01 -3.553701e-01
   outer loop
     vertex 1.505931e+00 7.761558e-02 -2.940785e-02
     vertex 1.504984e+00 7.754898e-02 -2.958303e-02
     vertex 1.494976e+00 7.755151e-02 -2.957640e-02
   endloop
 endfacet
 facet normal -2.721078e-06 9.347968e-01 -3.551830e-01
   outer loop
     vertex 1.505931e+00 7.761558e-02 -2.940785e-02
     vertex 1.494976e+00 7.755151e-02 -2.957640e-02
     vertex 1.493938e+00 7.762567e-02 -2.938121e-02
   endloop
 endfacet
 facet normal 2.613534e-06 9.355923e-01 -3.530823e-01
   outer loop
     vertex 1.506873e+00 7.769320e-02 -2.920217e-02
     vertex 1.505931e+00 7.761558e-02 -2.940785e-02
     vertex 1.493938e+00 7.762567e-02 -2.938121e-02
   endloop
 endfacet
 facet normal -4.769474e-06 9.357683e-01 -3.526154e-01
   outer loop
     vertex 1.506873e+00 7.769320e-02 -2.920217e-02
     vertex 1.493938e+00 7.762567e-02 -2.938121e-02
     vertex 1.492906e+00 7.771311e-02 -2.914914e-02
   endloop
 endfacet
 facet normal 4.716041e-06 9.365906e-01 -3.504256e-01
   outer loop
     vertex 1.507809e+00 7.778161e-02 -2.896586e-02
     vertex 1.506873e+00 7.769320e-02 -2.920217e-02
     vertex 1.492906e+00 7.771311e-02 -2.914914e-02
   endloop
 endfacet
 facet normal -6.841582e-06 9.368987e-01 -3.496010e-01
   outer loop
     vertex 1.507809e+00 7.778161e-02 -2.896586e-02
     vertex 1.492906e+00 7.771311e-02 -2.914914e-02
     vertex 1.491880e+00 7.781346e-02 -2.888020e-02
   endloop
 endfacet
 facet normal -8.740131e-06 9.381827e-01 -3.461405e-01
   outer loop
     vertex 1.508739e+00 7.788048e-02 -2.869897e-02
     vertex 1.491880e+00 7.781346e-02 -2.888020e-02
     vertex 1.490862e+00 7.792626e-02 -2.857443e-02
   endloop
 endfacet
 facet normal 6.637467e-06 9.377174e-01 -3.473989e-01
   outer loop
     vertex 1.508739e+00 7.788048e-02 -2.869897e-02
     vertex 1.507809e+00 7.778161e-02 -2.896586e-02
     vertex 1.491880e+00 7.781346e-02 -2.888020e-02
   endloop
 endfacet
 facet normal -1.025022e-05 9.396144e-01 -3.422350e-01
   outer loop
     vertex 1.509662e+00 7.798944e-02 -2.840154e-02
     vertex 1.490862e+00 7.792626e-02 -2.857443e-02
     vertex 1.489853e+00 7.805101e-02 -2.823189e-02
   endloop
 endfacet
 facet normal 8.170223e-06 9.389689e-01 -3.440022e-01
   outer loop
     vertex 1.509662e+00 7.798944e-02 -2.840154e-02
     vertex 1.508739e+00 7.788048e-02 -2.869897e-02
     vertex 1.490862e+00 7.792626e-02 -2.857443e-02
   endloop
 endfacet
 facet normal -1.114974e-05 9.411871e-01 -3.378858e-01
   outer loop
     vertex 1.510577e+00 7.810806e-02 -2.807367e-02
     vertex 1.489853e+00 7.805101e-02 -2.823189e-02
     vertex 1.488854e+00 7.818712e-02 -2.785272e-02
   endloop
 endfacet
 facet normal 9.125230e-06 9.403401e-01 -3.402360e-01
   outer loop
     vertex 1.510577e+00 7.810806e-02 -2.807367e-02
     vertex 1.509662e+00 7.798944e-02 -2.840154e-02
     vertex 1.489853e+00 7.805101e-02 -2.823189e-02
   endloop
 endfacet
 facet normal -1.121492e-05 9.428933e-01 -3.330948e-01
   outer loop
     vertex 1.511483e+00 7.823587e-02 -2.771550e-02
     vertex 1.488854e+00 7.818712e-02 -2.785272e-02
     vertex 1.487867e+00 7.833395e-02 -2.743707e-02
   endloop
 endfacet
 facet normal 9.319858e-06 9.418256e-01 -3.361019e-01
   outer loop
     vertex 1.511483e+00 7.823587e-02 -2.771550e-02
     vertex 1.510577e+00 7.810806e-02 -2.807367e-02
     vertex 1.488854e+00 7.818712e-02 -2.785272e-02
   endloop
 endfacet
 facet normal -1.022381e-05 9.447247e-01 -3.278646e-01
   outer loop
     vertex 1.512378e+00 7.837234e-02 -2.732720e-02
     vertex 1.487867e+00 7.833395e-02 -2.743707e-02
     vertex 1.486893e+00 7.849076e-02 -2.698521e-02
   endloop
 endfacet
 facet normal 8.572663e-06 9.434195e-01 -3.316018e-01
   outer loop
     vertex 1.512378e+00 7.837234e-02 -2.732720e-02
     vertex 1.511483e+00 7.823587e-02 -2.771550e-02
     vertex 1.487867e+00 7.833395e-02 -2.743707e-02
   endloop
 endfacet
 facet normal -7.958960e-06 9.466721e-01 -3.221987e-01
   outer loop
     vertex 1.513263e+00 7.851691e-02 -2.690902e-02
     vertex 1.486893e+00 7.849076e-02 -2.698521e-02
     vertex 1.485933e+00 7.865676e-02 -2.649744e-02
   endloop
 endfacet
 facet normal 6.701561e-06 9.451148e-01 -3.267384e-01
   outer loop
     vertex 1.513263e+00 7.851691e-02 -2.690902e-02
     vertex 1.512378e+00 7.837234e-02 -2.732720e-02
     vertex 1.486893e+00 7.849076e-02 -2.698521e-02
   endloop
 endfacet
 facet normal -4.209818e-06 9.487254e-01 -3.161015e-01
   outer loop
     vertex 1.514135e+00 7.866894e-02 -2.646125e-02
     vertex 1.485933e+00 7.865676e-02 -2.649744e-02
     vertex 1.484989e+00 7.883109e-02 -2.597419e-02
   endloop
 endfacet
 facet normal 3.524016e-06 9.469044e-01 -3.215152e-01
   outer loop
     vertex 1.514135e+00 7.866894e-02 -2.646125e-02
     vertex 1.513263e+00 7.851691e-02 -2.690902e-02
     vertex 1.485933e+00 7.865676e-02 -2.649744e-02
   endloop
 endfacet
 facet normal -1.141494e-06 9.487804e-01 -3.159362e-01
   outer loop
     vertex 1.514994e+00 7.882778e-02 -2.598426e-02
     vertex 1.514135e+00 7.866894e-02 -2.646125e-02
     vertex 1.484989e+00 7.883109e-02 -2.597419e-02
   endloop
 endfacet
 facet normal -6.567824e-06 9.508701e-01 -3.095902e-01
   outer loop
     vertex 1.515838e+00 7.899270e-02 -2.547849e-02
     vertex 1.484989e+00 7.883109e-02 -2.597419e-02
     vertex 1.484062e+00 7.901284e-02 -2.541595e-02
   endloop
 endfacet
 facet normal 1.060964e-06 9.507302e-01 -3.100194e-01
   outer loop
     vertex 1.515838e+00 7.899270e-02 -2.547849e-02
     vertex 1.514994e+00 7.882778e-02 -2.598426e-02
     vertex 1.484989e+00 7.883109e-02 -2.597419e-02
   endloop
 endfacet
 facet normal -1.139928e-05 9.530972e-01 -3.026643e-01
   outer loop
     vertex 1.516667e+00 7.916296e-02 -2.494446e-02
     vertex 1.484062e+00 7.901284e-02 -2.541595e-02
     vertex 1.483154e+00 7.920101e-02 -2.482336e-02
   endloop
 endfacet
 facet normal 6.091618e-06 9.527478e-01 -3.037626e-01
   outer loop
     vertex 1.516667e+00 7.916296e-02 -2.494446e-02
     vertex 1.515838e+00 7.899270e-02 -2.547849e-02
     vertex 1.484062e+00 7.901284e-02 -2.541595e-02
   endloop
 endfacet
 facet normal -1.546843e-05 9.553963e-01 -2.953269e-01
   outer loop
     vertex 1.517478e+00 7.933777e-02 -2.438274e-02
     vertex 1.483154e+00 7.920101e-02 -2.482336e-02
     vertex 1.482266e+00 7.939458e-02 -2.419713e-02
   endloop
 endfacet
 facet normal 1.042708e-05 9.548255e-01 -2.971671e-01
   outer loop
     vertex 1.517478e+00 7.933777e-02 -2.438274e-02
     vertex 1.516667e+00 7.916296e-02 -2.494446e-02
     vertex 1.483154e+00 7.920101e-02 -2.482336e-02
   endloop
 endfacet
 facet normal -1.855317e-05 9.577544e-01 -2.875873e-01
   outer loop
     vertex 1.518271e+00 7.951632e-02 -2.379402e-02
     vertex 1.482266e+00 7.939458e-02 -2.419713e-02
     vertex 1.481400e+00 7.959245e-02 -2.353810e-02
   endloop
 endfacet
 facet normal 1.385680e-05 9.569538e-01 -2.902404e-01
   outer loop
     vertex 1.518271e+00 7.951632e-02 -2.379402e-02
     vertex 1.517478e+00 7.933777e-02 -2.438274e-02
     vertex 1.482266e+00 7.939458e-02 -2.419713e-02
   endloop
 endfacet
 facet normal -2.043876e-05 9.601584e-01 -2.794562e-01
   outer loop
     vertex 1.519046e+00 7.969776e-02 -2.317903e-02
     vertex 1.481400e+00 7.959245e-02 -2.353810e-02
     vertex 1.480558e+00 7.979352e-02 -2.284721e-02
   endloop
 endfacet
 facet normal 1.617452e-05 9.591226e-01 -2.829910e-01
   outer loop
     vertex 1.519046e+00 7.969776e-02 -2.317903e-02
     vertex 1.518271e+00 7.951632e-02 -2.379402e-02
     vertex 1.481400e+00 7.959245e-02 -2.353810e-02
   endloop
 endfacet
 facet normal -2.092031e-05 9.625947e-01 -2.709456e-01
   outer loop
     vertex 1.519799e+00 7.988124e-02 -2.253857e-02
     vertex 1.480558e+00 7.979352e-02 -2.284721e-02
     vertex 1.479740e+00 7.999664e-02 -2.212550e-02
   endloop
 endfacet
 facet normal 1.718173e-05 9.613216e-01 -2.754283e-01
   outer loop
     vertex 1.519799e+00 7.988124e-02 -2.253857e-02
     vertex 1.519046e+00 7.969776e-02 -2.317903e-02
     vertex 1.480558e+00 7.979352e-02 -2.284721e-02
   endloop
 endfacet
 facet normal -1.980496e-05 9.650492e-01 -2.620688e-01
   outer loop
     vertex 1.520532e+00 8.006590e-02 -2.187353e-02
     vertex 1.479740e+00 7.999664e-02 -2.212550e-02
     vertex 1.478949e+00 8.020068e-02 -2.137410e-02
   endloop
 endfacet
 facet normal 1.669081e-05 9.635405e-01 -2.675624e-01
   outer loop
     vertex 1.520532e+00 8.006590e-02 -2.187353e-02
     vertex 1.519799e+00 7.988124e-02 -2.253857e-02
     vertex 1.479740e+00 7.999664e-02 -2.212550e-02
   endloop
 endfacet
 facet normal -1.691390e-05 9.675081e-01 -2.528399e-01
   outer loop
     vertex 1.521242e+00 8.025088e-02 -2.118483e-02
     vertex 1.478949e+00 8.020068e-02 -2.137410e-02
     vertex 1.478185e+00 8.040447e-02 -2.059422e-02
   endloop
 endfacet
 facet normal 1.452776e-05 9.657688e-01 -2.594044e-01
   outer loop
     vertex 1.521242e+00 8.025088e-02 -2.118483e-02
     vertex 1.520532e+00 8.006590e-02 -2.187353e-02
     vertex 1.478949e+00 8.020068e-02 -2.137410e-02
   endloop
 endfacet
 facet normal -1.208384e-05 9.699575e-01 -2.432744e-01
   outer loop
     vertex 1.521928e+00 8.043530e-02 -2.047345e-02
     vertex 1.478185e+00 8.040447e-02 -2.059422e-02
     vertex 1.477451e+00 8.060688e-02 -1.978716e-02
   endloop
 endfacet
 facet normal 1.053416e-05 9.679960e-01 -2.509658e-01
   outer loop
     vertex 1.521928e+00 8.043530e-02 -2.047345e-02
     vertex 1.521242e+00 8.025088e-02 -2.118483e-02
     vertex 1.478185e+00 8.040447e-02 -2.059422e-02
   endloop
 endfacet
 facet normal -5.167952e-06 9.723836e-01 -2.333883e-01
   outer loop
     vertex 1.522590e+00 8.061834e-02 -1.974042e-02
     vertex 1.477451e+00 8.060688e-02 -1.978716e-02
     vertex 1.476746e+00 8.080679e-02 -1.895424e-02
   endloop
 endfacet
 facet normal 4.568317e-06 9.702117e-01 -2.422588e-01
   outer loop
     vertex 1.522590e+00 8.061834e-02 -1.974042e-02
     vertex 1.521928e+00 8.043530e-02 -2.047345e-02
     vertex 1.477451e+00 8.060688e-02 -1.978716e-02
   endloop
 endfacet
 facet normal -3.494592e-06 9.724058e-01 -2.332961e-01
   outer loop
     vertex 1.523227e+00 8.079915e-02 -1.898678e-02
     vertex 1.522590e+00 8.061834e-02 -1.974042e-02
     vertex 1.476746e+00 8.080679e-02 -1.895424e-02
   endloop
 endfacet
 facet normal -1.149919e-05 9.747704e-01 -2.232099e-01
   outer loop
     vertex 1.523838e+00 8.097694e-02 -1.821360e-02
     vertex 1.476746e+00 8.080679e-02 -1.895424e-02
     vertex 1.476073e+00 8.100311e-02 -1.809684e-02
   endloop
 endfacet
 facet normal 3.295815e-06 9.745654e-01 -2.241035e-01
   outer loop
     vertex 1.523838e+00 8.097694e-02 -1.821360e-02
     vertex 1.523227e+00 8.079915e-02 -1.898678e-02
     vertex 1.476746e+00 8.080679e-02 -1.895424e-02
   endloop
 endfacet
 facet normal -1.793525e-05 9.771078e-01 -2.127447e-01
   outer loop
     vertex 1.524423e+00 8.115094e-02 -1.742199e-02
     vertex 1.476073e+00 8.100311e-02 -1.809684e-02
     vertex 1.475432e+00 8.119480e-02 -1.721637e-02
   endloop
 endfacet
 facet normal 1.039685e-05 9.766841e-01 -2.146818e-01
   outer loop
     vertex 1.524423e+00 8.115094e-02 -1.742199e-02
     vertex 1.523838e+00 8.097694e-02 -1.821360e-02
     vertex 1.476073e+00 8.100311e-02 -1.809684e-02
   endloop
 endfacet
 facet normal -2.267997e-05 9.793837e-01 -2.020089e-01
   outer loop
     vertex 1.524980e+00 8.132040e-02 -1.661303e-02
     vertex 1.475432e+00 8.119480e-02 -1.721637e-02
     vertex 1.474824e+00 8.138086e-02 -1.631427e-02
   endloop
 endfacet
 facet normal 1.586270e-05 9.787530e-01 -2.050429e-01
   outer loop
     vertex 1.524980e+00 8.132040e-02 -1.661303e-02
     vertex 1.524423e+00 8.115094e-02 -1.742199e-02
     vertex 1.475432e+00 8.119480e-02 -1.721637e-02
   endloop
 endfacet
 facet normal 1.953951e-05 9.807634e-01 -1.952002e-01
   outer loop
     vertex 1.525510e+00 8.148463e-02 -1.578783e-02
     vertex 1.524980e+00 8.132040e-02 -1.661303e-02
     vertex 1.474824e+00 8.138086e-02 -1.631427e-02
   endloop
 endfacet
 facet normal -2.556321e-05 9.815862e-01 -1.910199e-01
   outer loop
     vertex 1.525510e+00 8.148463e-02 -1.578783e-02
     vertex 1.474824e+00 8.138086e-02 -1.631427e-02
     vertex 1.474250e+00 8.156032e-02 -1.539198e-02
   endloop
 endfacet
 facet normal 2.128797e-05 9.827070e-01 -1.851673e-01
   outer loop
     vertex 1.526011e+00 8.164296e-02 -1.494750e-02
     vertex 1.525510e+00 8.148463e-02 -1.578783e-02
     vertex 1.474250e+00 8.156032e-02 -1.539198e-02
   endloop
 endfacet
 facet normal -2.643552e-05 9.837041e-01 -1.797951e-01
   outer loop
     vertex 1.526011e+00 8.164296e-02 -1.494750e-02
     vertex 1.474250e+00 8.156032e-02 -1.539198e-02
     vertex 1.473710e+00 8.173230e-02 -1.445097e-02
   endloop
 endfacet
 facet normal 2.098191e-05 9.845760e-01 -1.749574e-01
   outer loop
     vertex 1.526484e+00 8.179477e-02 -1.409312e-02
     vertex 1.526011e+00 8.164296e-02 -1.494750e-02
     vertex 1.473710e+00 8.173230e-02 -1.445097e-02
   endloop
 endfacet
 facet normal -2.516884e-05 9.857269e-01 -1.683522e-01
   outer loop
     vertex 1.526484e+00 8.179477e-02 -1.409312e-02
     vertex 1.473710e+00 8.173230e-02 -1.445097e-02
     vertex 1.473205e+00 8.189595e-02 -1.349271e-02
   endloop
 endfacet
 facet normal 2.523993e-05 9.864599e-01 -1.640027e-01
   outer loop
     vertex 1.526975e+00 8.195509e-02 -1.312871e-02
     vertex 1.526484e+00 8.179477e-02 -1.409312e-02
     vertex 1.473205e+00 8.189595e-02 -1.349271e-02
   endloop
 endfacet
 facet normal -2.134493e-05 9.875511e-01 -1.572985e-01
   outer loop
     vertex 1.526975e+00 8.195509e-02 -1.312871e-02
     vertex 1.473205e+00 8.189595e-02 -1.349271e-02
     vertex 1.472782e+00 8.203547e-02 -1.261674e-02
   endloop
 endfacet
 facet normal 2.706056e-05 9.883347e-01 -1.522977e-01
   outer loop
     vertex 1.527429e+00 8.210586e-02 -1.215019e-02
     vertex 1.526975e+00 8.195509e-02 -1.312871e-02
     vertex 1.472782e+00 8.203547e-02 -1.261674e-02
   endloop
 endfacet
 facet normal -2.209169e-05 9.891857e-01 -1.466688e-01
   outer loop
     vertex 1.527429e+00 8.210586e-02 -1.215019e-02
     vertex 1.472782e+00 8.203547e-02 -1.261674e-02
     vertex 1.472388e+00 8.216718e-02 -1.172838e-02
   endloop
 endfacet
 facet normal -2.067334e-05 9.907225e-01 -1.359004e-01
   outer loop
     vertex 1.527848e+00 8.224655e-02 -1.115821e-02
     vertex 1.472388e+00 8.216718e-02 -1.172838e-02
     vertex 1.472023e+00 8.229048e-02 -1.082943e-02
   endloop
 endfacet
 facet normal 2.675838e-05 9.900912e-01 -1.404261e-01
   outer loop
     vertex 1.527848e+00 8.224655e-02 -1.115821e-02
     vertex 1.527429e+00 8.210586e-02 -1.215019e-02
     vertex 1.472388e+00 8.216718e-02 -1.172838e-02
   endloop
 endfacet
 facet normal -1.708716e-05 9.921555e-01 -1.250099e-01
   outer loop
     vertex 1.528229e+00 8.237656e-02 -1.015396e-02
     vertex 1.472023e+00 8.229048e-02 -1.082943e-02
     vertex 1.471688e+00 8.240495e-02 -9.920890e-03
   endloop
 endfacet
 facet normal 2.429667e-05 9.917227e-01 -1.283983e-01
   outer loop
     vertex 1.528229e+00 8.237656e-02 -1.015396e-02
     vertex 1.527848e+00 8.224655e-02 -1.115821e-02
     vertex 1.472023e+00 8.229048e-02 -1.082943e-02
   endloop
 endfacet
 facet normal -1.129908e-05 9.934797e-01 -1.140092e-01
   outer loop
     vertex 1.528574e+00 8.249536e-02 -9.138733e-03
     vertex 1.471688e+00 8.240495e-02 -9.920890e-03
     vertex 1.471383e+00 8.251020e-02 -9.003729e-03
   endloop
 endfacet
 facet normal 1.964154e-05 9.932223e-01 -1.162298e-01
   outer loop
     vertex 1.528574e+00 8.249536e-02 -9.138733e-03
     vertex 1.528229e+00 8.237656e-02 -1.015396e-02
     vertex 1.471688e+00 8.240495e-02 -9.920890e-03
   endloop
 endfacet
 facet normal -3.285160e-06 9.946907e-01 -1.029101e-01
   outer loop
     vertex 1.528882e+00 8.260247e-02 -8.113744e-03
     vertex 1.471383e+00 8.251020e-02 -9.003729e-03
     vertex 1.471108e+00 8.260588e-02 -8.078881e-03
   endloop
 endfacet
 facet normal 3.529323e-06 9.957844e-01 -9.172459e-02
   outer loop
     vertex 1.528882e+00 8.260247e-02 -8.113744e-03
     vertex 1.471108e+00 8.260588e-02 -8.078881e-03
     vertex 1.470864e+00 8.269170e-02 -7.147253e-03
   endloop
 endfacet
 facet normal 1.276602e-05 9.945840e-01 -1.039360e-01
   outer loop
     vertex 1.528882e+00 8.260247e-02 -8.113744e-03
     vertex 1.528574e+00 8.249536e-02 -9.138733e-03
     vertex 1.471383e+00 8.251020e-02 -9.003729e-03
   endloop
 endfacet
 facet normal -6.074336e-06 9.967573e-01 -8.046676e-02
   outer loop
     vertex 1.529153e+00 8.269747e-02 -7.080196e-03
     vertex 1.470864e+00 8.269170e-02 -7.147253e-03
     vertex 1.470650e+00 8.276738e-02 -6.209722e-03
   endloop
 endfacet
 facet normal 6.750931e-06 9.958021e-01 -9.153282e-02
   outer loop
     vertex 1.529153e+00 8.269747e-02 -7.080196e-03
     vertex 1.528882e+00 8.260247e-02 -8.113744e-03
     vertex 1.470864e+00 8.269170e-02 -7.147253e-03
   endloop
 endfacet
 facet normal -1.354646e-05 9.976068e-01 -6.914183e-02
   outer loop
     vertex 1.529386e+00 8.277999e-02 -6.039253e-03
     vertex 1.470650e+00 8.276738e-02 -6.209722e-03
     vertex 1.470466e+00 8.283271e-02 -5.267143e-03
   endloop
 endfacet
 facet normal 1.533102e-05 9.968717e-01 -7.903734e-02
   outer loop
     vertex 1.529386e+00 8.277999e-02 -6.039253e-03
     vertex 1.529153e+00 8.269747e-02 -7.080196e-03
     vertex 1.470650e+00 8.276738e-02 -6.209722e-03
   endloop
 endfacet
 facet normal -1.885647e-05 9.983305e-01 -5.776015e-02
   outer loop
     vertex 1.529582e+00 8.284974e-02 -4.992053e-03
     vertex 1.470466e+00 8.283271e-02 -5.267143e-03
     vertex 1.470313e+00 8.288748e-02 -4.320344e-03
   endloop
 endfacet
 facet normal 2.177747e-05 9.977892e-01 -6.645871e-02
   outer loop
     vertex 1.529582e+00 8.284974e-02 -4.992053e-03
     vertex 1.529386e+00 8.277999e-02 -6.039253e-03
     vertex 1.470466e+00 8.283271e-02 -5.267143e-03
   endloop
 endfacet
 facet normal -2.197745e-05 9.989261e-01 -4.633183e-02
   outer loop
     vertex 1.529740e+00 8.290644e-02 -3.939704e-03
     vertex 1.470313e+00 8.288748e-02 -4.320344e-03
     vertex 1.470190e+00 8.293155e-02 -3.370136e-03
   endloop
 endfacet
 facet normal 2.604478e-05 9.985512e-01 -5.381063e-02
   outer loop
     vertex 1.529740e+00 8.290644e-02 -3.939704e-03
     vertex 1.529582e+00 8.284974e-02 -4.992053e-03
     vertex 1.470313e+00 8.288748e-02 -4.320344e-03
   endloop
 endfacet
 facet normal -2.288505e-05 9.993920e-01 -3.486678e-02
   outer loop
     vertex 1.529861e+00 8.294990e-02 -2.883294e-03
     vertex 1.470190e+00 8.293155e-02 -3.370136e-03
     vertex 1.470098e+00 8.296479e-02 -2.417312e-03
   endloop
 endfacet
 facet normal 2.809638e-05 9.991548e-01 -4.110652e-02
   outer loop
     vertex 1.529861e+00 8.294990e-02 -2.883294e-03
     vertex 1.529740e+00 8.290644e-02 -3.939704e-03
     vertex 1.470190e+00 8.293155e-02 -3.370136e-03
   endloop
 endfacet
 facet normal -2.155680e-05 9.997268e-01 -2.337472e-02
   outer loop
     vertex 1.529945e+00 8.297996e-02 -1.823889e-03
     vertex 1.470098e+00 8.296479e-02 -2.417312e-03
     vertex 1.470036e+00 8.298711e-02 -1.462651e-03
   endloop
 endfacet
 facet normal 2.790376e-05 9.995978e-01 -2.835954e-02
   outer loop
     vertex 1.529945e+00 8.297996e-02 -1.823889e-03
     vertex 1.529861e+00 8.294990e-02 -2.883294e-03
     vertex 1.470098e+00 8.296479e-02 -2.417312e-03
   endloop
 endfacet
 facet normal -1.797195e-05 9.999296e-01 -1.186523e-02
   outer loop
     vertex 1.529990e+00 8.299650e-02 -7.625437e-04
     vertex 1.470036e+00 8.298711e-02 -1.462651e-03
     vertex 1.470004e+00 8.299845e-02 -5.069224e-04
   endloop
 endfacet
 facet normal 2.544575e-05 9.998786e-01 -1.558268e-02
   outer loop
     vertex 1.529990e+00 8.299650e-02 -7.625437e-04
     vertex 1.529945e+00 8.297996e-02 -1.823889e-03
     vertex 1.470036e+00 8.298711e-02 -1.462651e-03
   endloop
 endfacet
 facet normal -2.071446e-05 1.000000e+00 2.920689e-04
   outer loop
     vertex 1.529999e+00 8.299946e-02 2.996947e-04
     vertex 1.470004e+00 8.299845e-02 -5.069224e-04
     vertex 1.470005e+00 8.299814e-02 5.553183e-04
   endloop
 endfacet
 facet normal 2.070794e-05 9.999961e-01 -2.788823e-03
   outer loop
     vertex 1.529999e+00 8.299946e-02 2.996947e-04
     vertex 1.529990e+00 8.299650e-02 -7.625437e-04
     vertex 1.470004e+00 8.299845e-02 -5.069224e-04
   endloop
 endfacet
 facet normal -2.545280e-05 9.999144e-01 1.308714e-02
   outer loop
     vertex 1.529974e+00 8.299050e-02 1.255598e-03
     vertex 1.470005e+00 8.299814e-02 5.553183e-04
     vertex 1.470044e+00 8.298425e-02 1.616875e-03
   endloop
 endfacet
 facet normal 1.796442e-05 9.999561e-01 9.369551e-03
   outer loop
     vertex 1.529974e+00 8.299050e-02 1.255598e-03
     vertex 1.529999e+00 8.299946e-02 2.996947e-04
     vertex 1.470005e+00 8.299814e-02 5.553183e-04
   endloop
 endfacet
 facet normal -2.791311e-05 9.996654e-01 2.586773e-02
   outer loop
     vertex 1.529918e+00 8.297056e-02 2.210603e-03
     vertex 1.470044e+00 8.298425e-02 1.616875e-03
     vertex 1.470120e+00 8.295683e-02 2.676702e-03
   endloop
 endfacet
 facet normal 2.155162e-05 9.997819e-01 2.088212e-02
   outer loop
     vertex 1.529918e+00 8.297056e-02 2.210603e-03
     vertex 1.529974e+00 8.299050e-02 1.255598e-03
     vertex 1.470044e+00 8.298425e-02 1.616875e-03
   endloop
 endfacet
 facet normal -2.810930e-05 9.992539e-01 3.862099e-02
   outer loop
     vertex 1.529833e+00 8.293967e-02 3.163942e-03
     vertex 1.470120e+00 8.295683e-02 2.676702e-03
     vertex 1.470233e+00 8.291597e-02 3.733747e-03
   endloop
 endfacet
 facet normal 2.288463e-05 9.994757e-01 3.237930e-02
   outer loop
     vertex 1.529833e+00 8.293967e-02 3.163942e-03
     vertex 1.529918e+00 8.297056e-02 2.210603e-03
     vertex 1.470120e+00 8.295683e-02 2.676702e-03
   endloop
 endfacet
 facet normal -2.606206e-05 9.986815e-01 5.133397e-02
   outer loop
     vertex 1.529716e+00 8.289794e-02 4.114836e-03
     vertex 1.470233e+00 8.291597e-02 3.733747e-03
     vertex 1.470384e+00 8.286184e-02 4.786944e-03
   endloop
 endfacet
 facet normal 2.198348e-05 9.990381e-01 4.385153e-02
   outer loop
     vertex 1.529716e+00 8.289794e-02 4.114836e-03
     vertex 1.529833e+00 8.293967e-02 3.163942e-03
     vertex 1.470233e+00 8.291597e-02 3.733747e-03
   endloop
 endfacet
 facet normal -2.179936e-05 9.979503e-01 6.399354e-02
   outer loop
     vertex 1.529570e+00 8.284547e-02 5.062493e-03
     vertex 1.470384e+00 8.286184e-02 4.786944e-03
     vertex 1.470573e+00 8.279463e-02 5.835208e-03
   endloop
 endfacet
 facet normal 1.886979e-05 9.984704e-01 5.528911e-02
   outer loop
     vertex 1.529570e+00 8.284547e-02 5.062493e-03
     vertex 1.529716e+00 8.289794e-02 4.114836e-03
     vertex 1.470384e+00 8.286184e-02 4.786944e-03
   endloop
 endfacet
 facet normal -1.535718e-05 9.970630e-01 7.658636e-02
   outer loop
     vertex 1.529393e+00 8.278241e-02 6.006108e-03
     vertex 1.470573e+00 8.279463e-02 5.835208e-03
     vertex 1.470799e+00 8.271457e-02 6.877435e-03
   endloop
 endfacet
 facet normal 1.356699e-05 9.977743e-01 6.668218e-02
   outer loop
     vertex 1.529393e+00 8.278241e-02 6.006108e-03
     vertex 1.529570e+00 8.284547e-02 5.062493e-03
     vertex 1.470573e+00 8.279463e-02 5.835208e-03
   endloop
 endfacet
 facet normal -6.780256e-06 9.960228e-01 8.909879e-02
   outer loop
     vertex 1.529185e+00 8.270894e-02 6.944853e-03
     vertex 1.470799e+00 8.271457e-02 6.877435e-03
     vertex 1.471062e+00 8.262199e-02 7.912494e-03
   endloop
 endfacet
 facet normal 6.101003e-06 9.969517e-01 7.802069e-02
   outer loop
     vertex 1.529185e+00 8.270894e-02 6.944853e-03
     vertex 1.529393e+00 8.278241e-02 6.006108e-03
     vertex 1.470799e+00 8.271457e-02 6.877435e-03
   endloop
 endfacet
 facet normal -3.498566e-06 9.960053e-01 8.929433e-02
   outer loop
     vertex 1.528947e+00 8.262529e-02 7.877880e-03
     vertex 1.529185e+00 8.270894e-02 6.944853e-03
     vertex 1.471062e+00 8.262199e-02 7.912494e-03
   endloop
 endfacet
 facet normal 3.261881e-06 9.949373e-01 1.004978e-01
   outer loop
     vertex 1.528679e+00 8.253171e-02 8.804318e-03
     vertex 1.528947e+00 8.262529e-02 7.877880e-03
     vertex 1.471062e+00 8.262199e-02 7.912494e-03
   endloop
 endfacet
 facet normal -1.274807e-05 9.948333e-01 1.015216e-01
   outer loop
     vertex 1.528679e+00 8.253171e-02 8.804318e-03
     vertex 1.471062e+00 8.262199e-02 7.912494e-03
     vertex 1.471363e+00 8.251721e-02 8.939225e-03
   endloop
 endfacet
 facet normal 1.128834e-05 9.937513e-01 1.116173e-01
   outer loop
     vertex 1.528381e+00 8.242850e-02 9.723268e-03
     vertex 1.528679e+00 8.253171e-02 8.804318e-03
     vertex 1.471363e+00 8.251721e-02 8.939225e-03
   endloop
 endfacet
 facet normal -1.963826e-05 9.934993e-01 1.138379e-01
   outer loop
     vertex 1.528381e+00 8.242850e-02 9.723268e-03
     vertex 1.471363e+00 8.251721e-02 8.939225e-03
     vertex 1.471700e+00 8.240066e-02 9.956441e-03
   endloop
 endfacet
 facet normal 1.709026e-05 9.924511e-01 1.226408e-01
   outer loop
     vertex 1.528052e+00 8.231599e-02 1.063380e-02
     vertex 1.528381e+00 8.242850e-02 9.723268e-03
     vertex 1.471700e+00 8.240066e-02 9.956441e-03
   endloop
 endfacet
 facet normal -2.431034e-05 9.920262e-01 1.260319e-01
   outer loop
     vertex 1.528052e+00 8.231599e-02 1.063380e-02
     vertex 1.471700e+00 8.240066e-02 9.956441e-03
     vertex 1.472075e+00 8.227281e-02 1.096292e-02
   endloop
 endfacet
 facet normal 2.069170e-05 9.910412e-01 1.335567e-01
   outer loop
     vertex 1.527694e+00 8.219455e-02 1.153497e-02
     vertex 1.528052e+00 8.231599e-02 1.063380e-02
     vertex 1.472075e+00 8.227281e-02 1.096292e-02
   endloop
 endfacet
 facet normal -2.679020e-05 9.904199e-01 1.380883e-01
   outer loop
     vertex 1.527694e+00 8.219455e-02 1.153497e-02
     vertex 1.472075e+00 8.227281e-02 1.096292e-02
     vertex 1.472486e+00 8.213416e-02 1.195742e-02
   endloop
 endfacet
 facet normal 2.212683e-05 9.895262e-01 1.443532e-01
   outer loop
     vertex 1.527306e+00 8.206461e-02 1.242578e-02
     vertex 1.527694e+00 8.219455e-02 1.153497e-02
     vertex 1.472486e+00 8.213416e-02 1.195742e-02
   endloop
 endfacet
 facet normal -2.711484e-05 9.886872e-01 1.499922e-01
   outer loop
     vertex 1.527306e+00 8.206461e-02 1.242578e-02
     vertex 1.472486e+00 8.213416e-02 1.195742e-02
     vertex 1.472934e+00 8.198529e-02 1.293880e-02
   endloop
 endfacet
 facet normal 2.141348e-05 9.879120e-01 1.550155e-01
   outer loop
     vertex 1.526888e+00 8.192669e-02 1.330479e-02
     vertex 1.527306e+00 8.206461e-02 1.242578e-02
     vertex 1.472934e+00 8.198529e-02 1.293880e-02
   endloop
 endfacet
 facet normal -2.532163e-05 9.868346e-01 1.617328e-01
   outer loop
     vertex 1.526888e+00 8.192669e-02 1.330479e-02
     vertex 1.472934e+00 8.198529e-02 1.293880e-02
     vertex 1.473418e+00 8.182674e-02 1.390627e-02
   endloop
 endfacet
 facet normal 2.523802e-05 9.861078e-01 1.661067e-01
   outer loop
     vertex 1.526391e+00 8.176475e-02 1.426622e-02
     vertex 1.526888e+00 8.192669e-02 1.330479e-02
     vertex 1.473418e+00 8.182674e-02 1.390627e-02
   endloop
 endfacet
 facet normal -2.105554e-05 9.849703e-01 1.727238e-01
   outer loop
     vertex 1.526391e+00 8.176475e-02 1.426622e-02
     vertex 1.473418e+00 8.182674e-02 1.390627e-02
     vertex 1.473884e+00 8.167641e-02 1.476361e-02
   endloop
 endfacet
 facet normal 2.649956e-05 9.841045e-01 1.775901e-01
   outer loop
     vertex 1.525858e+00 8.159433e-02 1.521071e-02
     vertex 1.526391e+00 8.176475e-02 1.426622e-02
     vertex 1.473884e+00 8.167641e-02 1.476361e-02
   endloop
 endfacet
 facet normal -2.134438e-05 9.831183e-01 1.829708e-01
   outer loop
     vertex 1.525858e+00 8.159433e-02 1.521071e-02
     vertex 1.473884e+00 8.167641e-02 1.476361e-02
     vertex 1.474379e+00 8.151943e-02 1.560714e-02
   endloop
 endfacet
 facet normal 2.561840e-05 9.820043e-01 1.888587e-01
   outer loop
     vertex 1.525290e+00 8.141624e-02 1.613677e-02
     vertex 1.525858e+00 8.159433e-02 1.521071e-02
     vertex 1.474379e+00 8.151943e-02 1.560714e-02
   endloop
 endfacet
 facet normal -1.956743e-05 9.811902e-01 1.930436e-01
   outer loop
     vertex 1.525290e+00 8.141624e-02 1.613677e-02
     vertex 1.474379e+00 8.151943e-02 1.560714e-02
     vertex 1.474903e+00 8.135641e-02 1.643575e-02
   endloop
 endfacet
 facet normal 2.271612e-05 9.798173e-01 1.998949e-01
   outer loop
     vertex 1.524689e+00 8.123139e-02 1.704293e-02
     vertex 1.525290e+00 8.141624e-02 1.613677e-02
     vertex 1.474903e+00 8.135641e-02 1.643575e-02
   endloop
 endfacet
 facet normal -1.585177e-05 9.791935e-01 2.029288e-01
   outer loop
     vertex 1.524689e+00 8.123139e-02 1.704293e-02
     vertex 1.474903e+00 8.135641e-02 1.643575e-02
     vertex 1.475454e+00 8.118802e-02 1.724836e-02
   endloop
 endfacet
 facet normal 1.793826e-05 9.775548e-01 2.106812e-01
   outer loop
     vertex 1.524054e+00 8.104071e-02 1.792773e-02
     vertex 1.524689e+00 8.123139e-02 1.704293e-02
     vertex 1.475454e+00 8.118802e-02 1.724836e-02
   endloop
 endfacet
 facet normal -1.033657e-05 9.771365e-01 2.126132e-01
   outer loop
     vertex 1.524054e+00 8.104071e-02 1.792773e-02
     vertex 1.475454e+00 8.118802e-02 1.724836e-02
     vertex 1.476033e+00 8.101493e-02 1.804385e-02
   endloop
 endfacet
 facet normal 1.145272e-05 9.752284e-01 2.212001e-01
   outer loop
     vertex 1.523387e+00 8.084520e-02 1.878973e-02
     vertex 1.524054e+00 8.104071e-02 1.792773e-02
     vertex 1.476033e+00 8.101493e-02 1.804385e-02
   endloop
 endfacet
 facet normal -3.174564e-06 9.750277e-01 2.220831e-01
   outer loop
     vertex 1.523387e+00 8.084520e-02 1.878973e-02
     vertex 1.476033e+00 8.101493e-02 1.804385e-02
     vertex 1.476638e+00 8.083789e-02 1.882114e-02
   endloop
 endfacet
 facet normal 3.372120e-06 9.728761e-01 2.313269e-01
   outer loop
     vertex 1.523387e+00 8.084520e-02 1.878973e-02
     vertex 1.476638e+00 8.083789e-02 1.882114e-02
     vertex 1.477270e+00 8.065766e-02 1.957913e-02
   endloop
 endfacet
 facet normal 5.341861e-06 9.728502e-01 2.314358e-01
   outer loop
     vertex 1.522688e+00 8.064589e-02 1.962753e-02
     vertex 1.523387e+00 8.084520e-02 1.878973e-02
     vertex 1.477270e+00 8.065766e-02 1.957913e-02
   endloop
 endfacet
 facet normal -4.710452e-06 9.706880e-01 2.403432e-01
   outer loop
     vertex 1.522688e+00 8.064589e-02 1.962753e-02
     vertex 1.477270e+00 8.065766e-02 1.957913e-02
     vertex 1.477927e+00 8.047503e-02 2.031673e-02
   endloop
 endfacet
 facet normal -1.069013e-05 9.684761e-01 2.491064e-01
   outer loop
     vertex 1.521959e+00 8.044388e-02 2.043973e-02
     vertex 1.477927e+00 8.047503e-02 2.031673e-02
     vertex 1.478608e+00 8.029083e-02 2.103290e-02
   endloop
 endfacet
 facet normal 1.226859e-05 9.704302e-01 2.413820e-01
   outer loop
     vertex 1.521959e+00 8.044388e-02 2.043973e-02
     vertex 1.522688e+00 8.064589e-02 1.962753e-02
     vertex 1.477927e+00 8.047503e-02 2.031673e-02
   endloop
 endfacet
 facet normal 1.710251e-05 9.679843e-01 2.510107e-01
   outer loop
     vertex 1.521201e+00 8.024027e-02 2.122499e-02
     vertex 1.521959e+00 8.044388e-02 2.043973e-02
     vertex 1.478608e+00 8.029083e-02 2.103290e-02
   endloop
 endfacet
 facet normal -1.468944e-05 9.662506e-01 2.576039e-01
   outer loop
     vertex 1.521201e+00 8.024027e-02 2.122499e-02
     vertex 1.478608e+00 8.029083e-02 2.103290e-02
     vertex 1.479313e+00 8.010590e-02 2.172660e-02
   endloop
 endfacet
 facet normal -1.684789e-05 9.640218e-01 2.658233e-01
   outer loop
     vertex 1.520415e+00 8.003619e-02 2.198201e-02
     vertex 1.479313e+00 8.010590e-02 2.172660e-02
     vertex 1.480041e+00 7.992109e-02 2.239684e-02
   endloop
 endfacet
 facet normal 1.998965e-05 9.655262e-01 2.603059e-01
   outer loop
     vertex 1.520415e+00 8.003619e-02 2.198201e-02
     vertex 1.521201e+00 8.024027e-02 2.122499e-02
     vertex 1.479313e+00 8.010590e-02 2.172660e-02
   endloop
 endfacet
 facet normal -1.732204e-05 9.618000e-01 2.737529e-01
   outer loop
     vertex 1.519603e+00 7.983279e-02 2.270958e-02
     vertex 1.480041e+00 7.992109e-02 2.239684e-02
     vertex 1.480790e+00 7.973728e-02 2.304269e-02
   endloop
 endfacet
 facet normal 2.109219e-05 9.630698e-01 2.692519e-01
   outer loop
     vertex 1.519603e+00 7.983279e-02 2.270958e-02
     vertex 1.520415e+00 8.003619e-02 2.198201e-02
     vertex 1.480041e+00 7.992109e-02 2.239684e-02
   endloop
 endfacet
 facet normal -1.628451e-05 9.595959e-01 2.813817e-01
   outer loop
     vertex 1.518765e+00 7.963124e-02 2.340654e-02
     vertex 1.480790e+00 7.973728e-02 2.304269e-02
     vertex 1.481560e+00 7.955533e-02 2.366325e-02
   endloop
 endfacet
 facet normal 2.058758e-05 9.606290e-01 2.778343e-01
   outer loop
     vertex 1.518765e+00 7.963124e-02 2.340654e-02
     vertex 1.519603e+00 7.983279e-02 2.270958e-02
     vertex 1.480790e+00 7.973728e-02 2.304269e-02
   endloop
 endfacet
 facet normal -1.392215e-05 9.574199e-01 2.886991e-01
   outer loop
     vertex 1.517904e+00 7.943266e-02 2.407182e-02
     vertex 1.481560e+00 7.955533e-02 2.366325e-02
     vertex 1.482349e+00 7.937609e-02 2.425770e-02
   endloop
 endfacet
 facet normal 1.866721e-05 9.582178e-01 2.860398e-01
   outer loop
     vertex 1.517904e+00 7.943266e-02 2.407182e-02
     vertex 1.518765e+00 7.963124e-02 2.340654e-02
     vertex 1.481560e+00 7.955533e-02 2.366325e-02
   endloop
 endfacet
 facet normal -1.043327e-05 9.552821e-01 2.956958e-01
   outer loop
     vertex 1.517020e+00 7.923817e-02 2.470449e-02
     vertex 1.482349e+00 7.937609e-02 2.425770e-02
     vertex 1.483156e+00 7.920041e-02 2.482530e-02
   endloop
 endfacet
 facet normal 1.553473e-05 9.558497e-01 2.938559e-01
   outer loop
     vertex 1.517020e+00 7.923817e-02 2.470449e-02
     vertex 1.517904e+00 7.943266e-02 2.407182e-02
     vertex 1.482349e+00 7.937609e-02 2.425770e-02
   endloop
 endfacet
 facet normal -6.024397e-06 9.531928e-01 3.023631e-01
   outer loop
     vertex 1.516116e+00 7.904887e-02 2.530366e-02
     vertex 1.483156e+00 7.920041e-02 2.482530e-02
     vertex 1.483981e+00 7.902910e-02 2.536535e-02
   endloop
 endfacet
 facet normal 1.140392e-05 9.535383e-01 3.012718e-01
   outer loop
     vertex 1.516116e+00 7.904887e-02 2.530366e-02
     vertex 1.517020e+00 7.923817e-02 2.470449e-02
     vertex 1.483156e+00 7.920041e-02 2.482530e-02
   endloop
 endfacet
 facet normal -9.065854e-07 9.511616e-01 3.086932e-01
   outer loop
     vertex 1.515193e+00 7.886580e-02 2.586861e-02
     vertex 1.483981e+00 7.902910e-02 2.536535e-02
     vertex 1.484822e+00 7.886297e-02 2.587726e-02
   endloop
 endfacet
 facet normal 9.828642e-07 9.491961e-01 3.146852e-01
   outer loop
     vertex 1.515193e+00 7.886580e-02 2.586861e-02
     vertex 1.484822e+00 7.886297e-02 2.587726e-02
     vertex 1.485678e+00 7.870276e-02 2.636049e-02
   endloop
 endfacet
 facet normal 6.496496e-06 9.512964e-01 3.082778e-01
   outer loop
     vertex 1.515193e+00 7.886580e-02 2.586861e-02
     vertex 1.516116e+00 7.904887e-02 2.530366e-02
     vertex 1.483981e+00 7.902910e-02 2.536535e-02
   endloop
 endfacet
 facet normal 4.422993e-06 9.491344e-01 3.148712e-01
   outer loop
     vertex 1.514252e+00 7.868995e-02 2.639869e-02
     vertex 1.515193e+00 7.886580e-02 2.586861e-02
     vertex 1.485678e+00 7.870276e-02 2.636049e-02
   endloop
 endfacet
 facet normal -3.709450e-06 9.473027e-01 3.203399e-01
   outer loop
     vertex 1.514252e+00 7.868995e-02 2.639869e-02
     vertex 1.485678e+00 7.870276e-02 2.636049e-02
     vertex 1.486547e+00 7.854920e-02 2.681460e-02
   endloop
 endfacet
 facet normal -6.903078e-06 9.454939e-01 3.256397e-01
   outer loop
     vertex 1.513295e+00 7.852227e-02 2.689338e-02
     vertex 1.486547e+00 7.854920e-02 2.681460e-02
     vertex 1.487429e+00 7.840297e-02 2.723919e-02
   endloop
 endfacet
 facet normal 8.191548e-06 9.470619e-01 3.210511e-01
   outer loop
     vertex 1.513295e+00 7.852227e-02 2.689338e-02
     vertex 1.514252e+00 7.868995e-02 2.639869e-02
     vertex 1.486547e+00 7.854920e-02 2.681460e-02
   endloop
 endfacet
 facet normal 1.046633e-05 9.450933e-01 3.268007e-01
   outer loop
     vertex 1.512323e+00 7.836361e-02 2.735224e-02
     vertex 1.513295e+00 7.852227e-02 2.689338e-02
     vertex 1.487429e+00 7.840297e-02 2.723919e-02
   endloop
 endfacet
 facet normal -8.778238e-06 9.437778e-01 3.305805e-01
   outer loop
     vertex 1.512323e+00 7.836361e-02 2.735224e-02
     vertex 1.487429e+00 7.840297e-02 2.723919e-02
     vertex 1.488323e+00 7.826470e-02 2.763397e-02
   endloop
 endfacet
 facet normal 1.145874e-05 9.432388e-01 3.321152e-01
   outer loop
     vertex 1.511338e+00 7.821479e-02 2.777493e-02
     vertex 1.512323e+00 7.836361e-02 2.735224e-02
     vertex 1.488323e+00 7.826470e-02 2.763397e-02
   endloop
 endfacet
 facet normal -9.516332e-06 9.421617e-01 3.351585e-01
   outer loop
     vertex 1.511338e+00 7.821479e-02 2.777493e-02
     vertex 1.488323e+00 7.826470e-02 2.763397e-02
     vertex 1.489226e+00 7.813498e-02 2.799866e-02
   endloop
 endfacet
 facet normal 1.138714e-05 9.415078e-01 3.369912e-01
   outer loop
     vertex 1.510342e+00 7.807655e-02 2.816119e-02
     vertex 1.511338e+00 7.821479e-02 2.777493e-02
     vertex 1.489226e+00 7.813498e-02 2.799866e-02
   endloop
 endfacet
 facet normal -9.299140e-06 9.406525e-01 3.393712e-01
   outer loop
     vertex 1.510342e+00 7.807655e-02 2.816119e-02
     vertex 1.489226e+00 7.813498e-02 2.799866e-02
     vertex 1.490139e+00 7.801433e-02 2.833309e-02
   endloop
 endfacet
 facet normal 1.047349e-05 9.399087e-01 3.414258e-01
   outer loop
     vertex 1.509334e+00 7.794955e-02 2.851085e-02
     vertex 1.510342e+00 7.807655e-02 2.816119e-02
     vertex 1.490139e+00 7.801433e-02 2.833309e-02
   endloop
 endfacet
 facet normal -8.310043e-06 9.392564e-01 3.432164e-01
   outer loop
     vertex 1.509334e+00 7.794955e-02 2.851085e-02
     vertex 1.490139e+00 7.801433e-02 2.833309e-02
     vertex 1.491060e+00 7.790325e-02 2.863711e-02
   endloop
 endfacet
 facet normal 8.939220e-06 9.384493e-01 3.454170e-01
   outer loop
     vertex 1.508318e+00 7.783438e-02 2.882376e-02
     vertex 1.509334e+00 7.794955e-02 2.851085e-02
     vertex 1.491060e+00 7.790325e-02 2.863711e-02
   endloop
 endfacet
 facet normal -6.738604e-06 9.379787e-01 3.466929e-01
   outer loop
     vertex 1.508318e+00 7.783438e-02 2.882376e-02
     vertex 1.491060e+00 7.790325e-02 2.863711e-02
     vertex 1.491989e+00 7.780216e-02 2.891061e-02
   endloop
 endfacet
 facet normal 6.999035e-06 9.371364e-01 3.489634e-01
   outer loop
     vertex 1.507294e+00 7.773158e-02 2.909985e-02
     vertex 1.508318e+00 7.783438e-02 2.882376e-02
     vertex 1.491989e+00 7.780216e-02 2.891061e-02
   endloop
 endfacet
 facet normal -4.794275e-06 9.368241e-01 3.498007e-01
   outer loop
     vertex 1.507294e+00 7.773158e-02 2.909985e-02
     vertex 1.491989e+00 7.780216e-02 2.891061e-02
     vertex 1.492924e+00 7.771145e-02 2.915357e-02
   endloop
 endfacet
 facet normal 4.854759e-06 9.359760e-01 3.520639e-01
   outer loop
     vertex 1.506262e+00 7.764160e-02 2.933907e-02
     vertex 1.507294e+00 7.773158e-02 2.909985e-02
     vertex 1.492924e+00 7.771145e-02 2.915357e-02
   endloop
 endfacet
 facet normal -2.692840e-06 9.357971e-01 3.525392e-01
   outer loop
     vertex 1.506262e+00 7.764160e-02 2.933907e-02
     vertex 1.492924e+00 7.771145e-02 2.915357e-02
     vertex 1.493865e+00 7.763140e-02 2.936607e-02
   endloop
 endfacet
 facet normal 2.729608e-06 9.349734e-01 3.547177e-01
   outer loop
     vertex 1.505225e+00 7.756484e-02 2.954141e-02
     vertex 1.506262e+00 7.764160e-02 2.933907e-02
     vertex 1.493865e+00 7.763140e-02 2.936607e-02
   endloop
 endfacet
 facet normal -5.814536e-07 9.349023e-01 3.549053e-01
   outer loop
     vertex 1.505225e+00 7.756484e-02 2.954141e-02
     vertex 1.493865e+00 7.763140e-02 2.936607e-02
     vertex 1.494811e+00 7.756242e-02 2.954778e-02
   endloop
 endfacet
 facet normal 8.148283e-07 9.341419e-01 3.569018e-01
   outer loop
     vertex 1.505225e+00 7.756484e-02 2.954141e-02
     vertex 1.494811e+00 7.756242e-02 2.954778e-02
     vertex 1.495760e+00 7.750472e-02 2.969879e-02
   endloop
 endfacet
 facet normal -4.841407e-07 9.335124e-01 3.585451e-01
   outer loop
     vertex 1.504183e+00 7.750162e-02 2.970687e-02
     vertex 1.495760e+00 7.750472e-02 2.969879e-02
     vertex 1.496711e+00 7.745849e-02 2.981917e-02
   endloop
 endfacet
 facet normal 1.295847e-06 9.341323e-01 3.569271e-01
   outer loop
     vertex 1.504183e+00 7.750162e-02 2.970687e-02
     vertex 1.505225e+00 7.756484e-02 2.954141e-02
     vertex 1.495760e+00 7.750472e-02 2.969879e-02
   endloop
 endfacet
 facet normal 2.259495e-06 9.334513e-01 3.587042e-01
   outer loop
     vertex 1.503138e+00 7.745222e-02 2.983544e-02
     vertex 1.504183e+00 7.750162e-02 2.970687e-02
     vertex 1.496711e+00 7.745849e-02 2.981917e-02
   endloop
 endfacet
 facet normal -9.817708e-07 9.330223e-01 3.598185e-01
   outer loop
     vertex 1.503138e+00 7.745222e-02 2.983544e-02
     vertex 1.496711e+00 7.745849e-02 2.981917e-02
     vertex 1.497664e+00 7.742386e-02 2.990895e-02
   endloop
 endfacet
 facet normal 2.326124e-06 9.329396e-01 3.600330e-01
   outer loop
     vertex 1.502089e+00 7.741683e-02 2.992715e-02
     vertex 1.503138e+00 7.745222e-02 2.983544e-02
     vertex 1.497664e+00 7.742386e-02 2.990895e-02
   endloop
 endfacet
 facet normal -9.250582e-07 9.326740e-01 3.607205e-01
   outer loop
     vertex 1.502089e+00 7.741683e-02 2.992715e-02
     vertex 1.497664e+00 7.742386e-02 2.990895e-02
     vertex 1.498619e+00 7.740095e-02 2.996820e-02
   endloop
 endfacet
 facet normal 1.633719e-06 9.326011e-01 3.609087e-01
   outer loop
     vertex 1.501051e+00 7.739577e-02 2.998157e-02
     vertex 1.502089e+00 7.741683e-02 2.992715e-02
     vertex 1.498619e+00 7.740095e-02 2.996820e-02
   endloop
 endfacet
 facet normal -2.756054e-07 9.324842e-01 3.612107e-01
   outer loop
     vertex 1.501051e+00 7.739577e-02 2.998157e-02
     vertex 1.498619e+00 7.740095e-02 2.996820e-02
     vertex 1.499308e+00 7.739173e-02 2.999201e-02
   endloop
 endfacet
 facet normal 6.149481e-07 9.324341e-01 3.613400e-01
   outer loop
     vertex 1.501051e+00 7.739577e-02 2.998157e-02
     vertex 1.499308e+00 7.739173e-02 2.999201e-02
     vertex 1.500000e+00 7.738863e-02 3.000000e-02
   endloop
 endfacet
endsolid shape
