solid shape, STL ascii file, created with Open CASCADE Technology
 facet normal 4.083855e-06 9.987737e-01 -4.950814e-02
   outer loop
     vertex 3.956645e+00 4.993793e-01 -2.490610e-02
     vertex 4.043787e+00 4.994170e-01 -2.413927e-02
     vertex 4.043087e+00 4.993561e-01 -2.536675e-02
   endloop
 endfacet
 facet normal -3.021733e-06 9.988133e-01 -4.870261e-02
   outer loop
     vertex 3.956645e+00 4.993793e-01 -2.490610e-02
     vertex 3.956025e+00 4.994335e-01 -2.379499e-02
     vertex 4.043787e+00 4.994170e-01 -2.413927e-02
   endloop
 endfacet
 facet normal 4.267180e-06 9.986500e-01 -5.194312e-02
   outer loop
     vertex 3.957292e+00 4.993235e-01 -2.600121e-02
     vertex 4.043087e+00 4.993561e-01 -2.536675e-02
     vertex 4.042353e+00 4.992933e-01 -2.657413e-02
   endloop
 endfacet
 facet normal -3.400284e-06 9.987033e-01 -5.090902e-02
   outer loop
     vertex 3.957292e+00 4.993235e-01 -2.600121e-02
     vertex 3.956645e+00 4.993793e-01 -2.490610e-02
     vertex 4.043087e+00 4.993561e-01 -2.536675e-02
   endloop
 endfacet
 facet normal 4.105868e-06 9.985227e-01 -5.433673e-02
   outer loop
     vertex 3.957968e+00 4.992662e-01 -2.707960e-02
     vertex 4.042353e+00 4.992933e-01 -2.657413e-02
     vertex 4.041586e+00 4.992288e-01 -2.776041e-02
   endloop
 endfacet
 facet normal -3.428441e-06 9.985901e-01 -5.308253e-02
   outer loop
     vertex 3.957968e+00 4.992662e-01 -2.707960e-02
     vertex 3.957292e+00 4.993235e-01 -2.600121e-02
     vertex 4.042353e+00 4.992933e-01 -2.657413e-02
   endloop
 endfacet
 facet normal 3.617586e-06 9.983920e-01 -5.668699e-02
   outer loop
     vertex 3.958671e+00 4.992075e-01 -2.814055e-02
     vertex 4.041586e+00 4.992288e-01 -2.776041e-02
     vertex 4.040784e+00 4.991627e-01 -2.892464e-02
   endloop
 endfacet
 facet normal -3.121300e-06 9.984741e-01 -5.522170e-02
   outer loop
     vertex 3.958671e+00 4.992075e-01 -2.814055e-02
     vertex 3.957968e+00 4.992662e-01 -2.707960e-02
     vertex 4.041586e+00 4.992288e-01 -2.776041e-02
   endloop
 endfacet
 facet normal 8.002551e-08 9.949932e-01 9.994217e-02
   outer loop
     vertex 3.998591e+00 4.974957e-01 4.998014e-02
     vertex 4.001081e+00 4.974949e-01 4.998830e-02
     vertex 4.002161e+00 4.974984e-01 4.995328e-02
   endloop
 endfacet
 facet normal 2.821703e-06 9.982585e-01 -5.899196e-02
   outer loop
     vertex 3.959400e+00 4.991476e-01 -2.918336e-02
     vertex 4.040784e+00 4.991627e-01 -2.892464e-02
     vertex 4.039951e+00 4.990952e-01 -3.006585e-02
   endloop
 endfacet
 facet normal -4.962284e-08 9.949893e-01 9.998134e-02
   outer loop
     vertex 3.998591e+00 4.974957e-01 4.998014e-02
     vertex 4.000000e+00 4.974937e-01 5.000000e-02
     vertex 4.001081e+00 4.974949e-01 4.998830e-02
   endloop
 endfacet
 facet normal -2.495372e-06 9.983556e-01 -5.732508e-02
   outer loop
     vertex 3.959400e+00 4.991476e-01 -2.918336e-02
     vertex 3.958671e+00 4.992075e-01 -2.814055e-02
     vertex 4.040784e+00 4.991627e-01 -2.892464e-02
   endloop
 endfacet
 facet normal 1.739243e-06 9.981225e-01 -6.124972e-02
   outer loop
     vertex 3.960156e+00 4.990867e-01 -3.020736e-02
     vertex 4.039951e+00 4.990952e-01 -3.006585e-02
     vertex 4.039085e+00 4.990267e-01 -3.118311e-02
   endloop
 endfacet
 facet normal -1.568556e-06 9.982348e-01 -5.939128e-02
   outer loop
     vertex 3.960156e+00 4.990867e-01 -3.020736e-02
     vertex 3.959400e+00 4.991476e-01 -2.918336e-02
     vertex 4.039951e+00 4.990952e-01 -3.006585e-02
   endloop
 endfacet
 facet normal 2.268783e-07 9.950037e-01 9.983825e-02
   outer loop
     vertex 3.997186e+00 4.975017e-01 4.992074e-02
     vertex 4.002161e+00 4.974984e-01 4.995328e-02
     vertex 4.003430e+00 4.975055e-01 4.988224e-02
   endloop
 endfacet
 facet normal -2.087440e-07 9.949971e-01 9.990417e-02
   outer loop
     vertex 3.997186e+00 4.975017e-01 4.992074e-02
     vertex 3.998591e+00 4.974957e-01 4.998014e-02
     vertex 4.002161e+00 4.974984e-01 4.995328e-02
   endloop
 endfacet
 facet normal -3.601005e-07 9.981121e-01 -6.141890e-02
   outer loop
     vertex 3.960938e+00 4.990249e-01 -3.121185e-02
     vertex 3.960156e+00 4.990867e-01 -3.020736e-02
     vertex 4.039085e+00 4.990267e-01 -3.118311e-02
   endloop
 endfacet
 facet normal 3.103599e-07 9.950211e-01 9.966419e-02
   outer loop
     vertex 3.995780e+00 4.975116e-01 4.982159e-02
     vertex 4.003430e+00 4.975055e-01 4.988224e-02
     vertex 4.004696e+00 4.975159e-01 4.977897e-02
   endloop
 endfacet
 facet normal -3.463854e-07 9.950129e-01 9.974620e-02
   outer loop
     vertex 3.995780e+00 4.975116e-01 4.982159e-02
     vertex 3.997186e+00 4.975017e-01 4.992074e-02
     vertex 4.003430e+00 4.975055e-01 4.988224e-02
   endloop
 endfacet
 facet normal 1.054858e-06 9.979844e-01 -6.345895e-02
   outer loop
     vertex 3.961746e+00 4.989623e-01 -3.219617e-02
     vertex 4.039085e+00 4.990267e-01 -3.118311e-02
     vertex 4.038188e+00 4.989572e-01 -3.227551e-02
   endloop
 endfacet
 facet normal 3.739142e-07 9.979877e-01 -6.340718e-02
   outer loop
     vertex 3.961746e+00 4.989623e-01 -3.219617e-02
     vertex 3.960938e+00 4.990249e-01 -3.121185e-02
     vertex 4.039085e+00 4.990267e-01 -3.118311e-02
   endloop
 endfacet
 facet normal 3.397081e-07 9.950450e-01 9.942526e-02
   outer loop
     vertex 3.994377e+00 4.975255e-01 4.968284e-02
     vertex 4.004696e+00 4.975159e-01 4.977897e-02
     vertex 4.005960e+00 4.975294e-01 4.964355e-02
   endloop
 endfacet
 facet normal -4.419836e-07 9.950367e-01 9.950834e-02
   outer loop
     vertex 3.994377e+00 4.975255e-01 4.968284e-02
     vertex 3.995780e+00 4.975116e-01 4.982159e-02
     vertex 4.004696e+00 4.975159e-01 4.977897e-02
   endloop
 endfacet
 facet normal 2.165205e-06 9.978447e-01 -6.561909e-02
   outer loop
     vertex 3.962578e+00 4.988992e-01 -3.315968e-02
     vertex 4.038188e+00 4.989572e-01 -3.227551e-02
     vertex 4.037260e+00 4.988871e-01 -3.334215e-02
   endloop
 endfacet
 facet normal -9.223940e-07 9.978620e-01 -6.535618e-02
   outer loop
     vertex 3.962578e+00 4.988992e-01 -3.315968e-02
     vertex 3.961746e+00 4.989623e-01 -3.219617e-02
     vertex 4.038188e+00 4.989572e-01 -3.227551e-02
   endloop
 endfacet
 facet normal 2.853678e-07 9.950753e-01 9.912162e-02
   outer loop
     vertex 3.992979e+00 4.975433e-01 4.950460e-02
     vertex 4.005960e+00 4.975294e-01 4.964355e-02
     vertex 4.007219e+00 4.975461e-01 4.947606e-02
   endloop
 endfacet
 facet normal -4.633017e-07 9.950684e-01 9.919087e-02
   outer loop
     vertex 3.992979e+00 4.975433e-01 4.950460e-02
     vertex 3.994377e+00 4.975255e-01 4.968284e-02
     vertex 4.005960e+00 4.975294e-01 4.964355e-02
   endloop
 endfacet
 facet normal 2.926547e-06 9.977039e-01 -6.772667e-02
   outer loop
     vertex 3.963434e+00 4.988357e-01 -3.410173e-02
     vertex 4.037260e+00 4.988871e-01 -3.334215e-02
     vertex 4.036302e+00 4.988165e-01 -3.438215e-02
   endloop
 endfacet
 facet normal -1.868476e-06 9.977353e-01 -6.726275e-02
   outer loop
     vertex 3.963434e+00 4.988357e-01 -3.410173e-02
     vertex 3.962578e+00 4.988992e-01 -3.315968e-02
     vertex 4.037260e+00 4.988871e-01 -3.334215e-02
   endloop
 endfacet
 facet normal -1.507226e-07 9.951547e-01 9.832128e-02
   outer loop
     vertex 3.991586e+00 4.975649e-01 4.928699e-02
     vertex 4.008474e+00 4.975659e-01 4.927659e-02
     vertex 4.009724e+00 4.975887e-01 4.904528e-02
   endloop
 endfacet
 facet normal 1.179507e-07 9.951119e-01 9.875347e-02
   outer loop
     vertex 3.991586e+00 4.975649e-01 4.928699e-02
     vertex 4.007219e+00 4.975461e-01 4.947606e-02
     vertex 4.008474e+00 4.975659e-01 4.927659e-02
   endloop
 endfacet
 facet normal -3.776577e-07 9.951079e-01 9.879405e-02
   outer loop
     vertex 3.991586e+00 4.975649e-01 4.928699e-02
     vertex 3.992979e+00 4.975433e-01 4.950460e-02
     vertex 4.007219e+00 4.975461e-01 4.947606e-02
   endloop
 endfacet
 facet normal 3.359178e-06 9.975624e-01 -6.977992e-02
   outer loop
     vertex 3.964314e+00 4.987720e-01 -3.502170e-02
     vertex 4.036302e+00 4.988165e-01 -3.438215e-02
     vertex 4.035316e+00 4.987456e-01 -3.539468e-02
   endloop
 endfacet
 facet normal -2.482282e-06 9.976080e-01 -6.912557e-02
   outer loop
     vertex 3.964314e+00 4.987720e-01 -3.502170e-02
     vertex 3.963434e+00 4.988357e-01 -3.410173e-02
     vertex 4.036302e+00 4.988165e-01 -3.438215e-02
   endloop
 endfacet
 facet normal 3.484943e-06 9.974207e-01 -7.177715e-02
   outer loop
     vertex 3.965217e+00 4.987082e-01 -3.591898e-02
     vertex 4.035316e+00 4.987456e-01 -3.539468e-02
     vertex 4.034301e+00 4.986748e-01 -3.637889e-02
   endloop
 endfacet
 facet normal -2.783053e-06 9.974803e-01 -7.094339e-02
   outer loop
     vertex 3.965217e+00 4.987082e-01 -3.591898e-02
     vertex 3.964314e+00 4.987720e-01 -3.502170e-02
     vertex 4.035316e+00 4.987456e-01 -3.539468e-02
   endloop
 endfacet
 facet normal 1.929705e-07 9.952033e-01 9.782873e-02
   outer loop
     vertex 3.990200e+00 4.975902e-01 4.903017e-02
     vertex 4.009724e+00 4.975887e-01 4.904528e-02
     vertex 4.010968e+00 4.976146e-01 4.878226e-02
   endloop
 endfacet
 facet normal -1.896159e-07 9.951550e-01 9.831839e-02
   outer loop
     vertex 3.990200e+00 4.975902e-01 4.903017e-02
     vertex 3.991586e+00 4.975649e-01 4.928699e-02
     vertex 4.009724e+00 4.975887e-01 4.904528e-02
   endloop
 endfacet
 facet normal 3.327178e-06 9.972792e-01 -7.371669e-02
   outer loop
     vertex 3.966143e+00 4.986444e-01 -3.679297e-02
     vertex 4.034301e+00 4.986748e-01 -3.637889e-02
     vertex 4.033259e+00 4.986042e-01 -3.733400e-02
   endloop
 endfacet
 facet normal -2.791272e-06 9.973528e-01 -7.271498e-02
   outer loop
     vertex 3.966143e+00 4.986444e-01 -3.679297e-02
     vertex 3.965217e+00 4.987082e-01 -3.591898e-02
     vertex 4.034301e+00 4.986748e-01 -3.637889e-02
   endloop
 endfacet
 facet normal -2.528610e-06 9.972256e-01 -7.443913e-02
   outer loop
     vertex 3.967091e+00 4.985810e-01 -3.764310e-02
     vertex 3.966143e+00 4.986444e-01 -3.679297e-02
     vertex 4.033259e+00 4.986042e-01 -3.733400e-02
   endloop
 endfacet
 facet normal 5.340007e-07 9.952578e-01 9.727248e-02
   outer loop
     vertex 3.988821e+00 4.976193e-01 4.873433e-02
     vertex 4.010968e+00 4.976146e-01 4.878226e-02
     vertex 4.012204e+00 4.976434e-01 4.848769e-02
   endloop
 endfacet
 facet normal -5.471505e-07 9.952093e-01 9.776732e-02
   outer loop
     vertex 3.988821e+00 4.976193e-01 4.873433e-02
     vertex 3.990200e+00 4.975902e-01 4.903017e-02
     vertex 4.010968e+00 4.976146e-01 4.878226e-02
   endloop
 endfacet
 facet normal 2.910627e-06 9.971385e-01 -7.559693e-02
   outer loop
     vertex 3.967091e+00 4.985810e-01 -3.764310e-02
     vertex 4.033259e+00 4.986042e-01 -3.733400e-02
     vertex 4.032191e+00 4.985341e-01 -3.825921e-02
   endloop
 endfacet
 facet normal -2.017867e-06 9.970991e-01 -7.611468e-02
   outer loop
     vertex 3.968060e+00 4.985180e-01 -3.846881e-02
     vertex 3.967091e+00 4.985810e-01 -3.764310e-02
     vertex 4.032191e+00 4.985341e-01 -3.825921e-02
   endloop
 endfacet
 facet normal 8.426306e-07 9.953181e-01 9.665289e-02
   outer loop
     vertex 3.987451e+00 4.976520e-01 4.839968e-02
     vertex 4.012204e+00 4.976434e-01 4.848769e-02
     vertex 4.013433e+00 4.976750e-01 4.816175e-02
   endloop
 endfacet
 facet normal -8.982807e-07 9.952709e-01 9.713797e-02
   outer loop
     vertex 3.987451e+00 4.976520e-01 4.839968e-02
     vertex 3.988821e+00 4.976193e-01 4.873433e-02
     vertex 4.012204e+00 4.976434e-01 4.848769e-02
   endloop
 endfacet
 facet normal 2.261371e-06 9.969989e-01 -7.741630e-02
   outer loop
     vertex 3.968060e+00 4.985180e-01 -3.846881e-02
     vertex 4.032191e+00 4.985341e-01 -3.825921e-02
     vertex 4.031096e+00 4.984646e-01 -3.915380e-02
   endloop
 endfacet
 facet normal -1.282910e-06 9.969736e-01 -7.774050e-02
   outer loop
     vertex 3.969050e+00 4.984555e-01 -3.926955e-02
     vertex 3.968060e+00 4.985180e-01 -3.846881e-02
     vertex 4.031096e+00 4.984646e-01 -3.915380e-02
   endloop
 endfacet
 facet normal 1.406733e-06 9.968609e-01 -7.917331e-02
   outer loop
     vertex 3.969050e+00 4.984555e-01 -3.926955e-02
     vertex 4.031096e+00 4.984646e-01 -3.915380e-02
     vertex 4.029977e+00 4.983961e-01 -4.001702e-02
   endloop
 endfacet
 facet normal 1.089349e-06 9.953842e-01 9.597035e-02
   outer loop
     vertex 3.986091e+00 4.976881e-01 4.802648e-02
     vertex 4.013433e+00 4.976750e-01 4.816175e-02
     vertex 4.014653e+00 4.977095e-01 4.780464e-02
   endloop
 endfacet
 facet normal -1.210029e-06 9.953397e-01 9.643083e-02
   outer loop
     vertex 3.986091e+00 4.976881e-01 4.802648e-02
     vertex 3.987451e+00 4.976520e-01 4.839968e-02
     vertex 4.013433e+00 4.976750e-01 4.816175e-02
   endloop
 endfacet
 facet normal -3.486077e-07 9.968496e-01 -7.931549e-02
   outer loop
     vertex 3.970060e+00 4.983938e-01 -4.004480e-02
     vertex 3.969050e+00 4.984555e-01 -3.926955e-02
     vertex 4.029977e+00 4.983961e-01 -4.001702e-02
   endloop
 endfacet
 facet normal 1.244932e-06 9.954557e-01 9.522530e-02
   outer loop
     vertex 3.984742e+00 4.977276e-01 4.761500e-02
     vertex 4.014653e+00 4.977095e-01 4.780464e-02
     vertex 4.015864e+00 4.977466e-01 4.741659e-02
   endloop
 endfacet
 facet normal -1.449715e-06 9.954154e-01 9.564644e-02
   outer loop
     vertex 3.984742e+00 4.977276e-01 4.761500e-02
     vertex 3.986091e+00 4.976881e-01 4.802648e-02
     vertex 4.014653e+00 4.977095e-01 4.780464e-02
   endloop
 endfacet
 facet normal 3.624237e-07 9.967272e-01 -8.083914e-02
   outer loop
     vertex 3.971089e+00 4.983331e-01 -4.079405e-02
     vertex 3.970060e+00 4.983938e-01 -4.004480e-02
     vertex 4.029977e+00 4.983961e-01 -4.001702e-02
   endloop
 endfacet
 facet normal 7.324371e-07 9.967249e-01 -8.086700e-02
   outer loop
     vertex 3.971089e+00 4.983331e-01 -4.079405e-02
     vertex 4.029977e+00 4.983961e-01 -4.001702e-02
     vertex 4.028834e+00 4.983286e-01 -4.084819e-02
   endloop
 endfacet
 facet normal 1.280498e-06 9.955326e-01 9.441822e-02
   outer loop
     vertex 3.983404e+00 4.977704e-01 4.716555e-02
     vertex 4.015864e+00 4.977466e-01 4.741659e-02
     vertex 4.017065e+00 4.977863e-01 4.699783e-02
   endloop
 endfacet
 facet normal -1.585034e-06 9.954977e-01 9.478541e-02
   outer loop
     vertex 3.983404e+00 4.977704e-01 4.716555e-02
     vertex 3.984742e+00 4.977276e-01 4.761500e-02
     vertex 4.015864e+00 4.977466e-01 4.741659e-02
   endloop
 endfacet
 facet normal -6.319890e-07 9.966066e-01 -8.231261e-02
   outer loop
     vertex 3.972137e+00 4.982734e-01 -4.151681e-02
     vertex 3.971089e+00 4.983331e-01 -4.079405e-02
     vertex 4.028834e+00 4.983286e-01 -4.084819e-02
   endloop
 endfacet
 facet normal 1.568682e-06 9.965912e-01 -8.249795e-02
   outer loop
     vertex 3.972137e+00 4.982734e-01 -4.151681e-02
     vertex 4.028834e+00 4.983286e-01 -4.084819e-02
     vertex 4.027669e+00 4.982625e-01 -4.164665e-02
   endloop
 endfacet
 facet normal 1.167577e-06 9.956146e-01 9.354961e-02
   outer loop
     vertex 3.982080e+00 4.978164e-01 4.667845e-02
     vertex 4.017065e+00 4.977863e-01 4.699783e-02
     vertex 4.018255e+00 4.978285e-01 4.654862e-02
   endloop
 endfacet
 facet normal -1.584146e-06 9.955865e-01 9.384839e-02
   outer loop
     vertex 3.982080e+00 4.978164e-01 4.667845e-02
     vertex 3.983404e+00 4.977704e-01 4.716555e-02
     vertex 4.017065e+00 4.977863e-01 4.699783e-02
   endloop
 endfacet
 facet normal -1.337305e-06 9.964883e-01 -8.373231e-02
   outer loop
     vertex 3.973203e+00 4.982149e-01 -4.221262e-02
     vertex 3.972137e+00 4.982734e-01 -4.151681e-02
     vertex 4.027669e+00 4.982625e-01 -4.164665e-02
   endloop
 endfacet
 facet normal 2.118142e-06 9.964605e-01 -8.406250e-02
   outer loop
     vertex 3.973203e+00 4.982149e-01 -4.221262e-02
     vertex 4.027669e+00 4.982625e-01 -4.164665e-02
     vertex 4.026481e+00 4.981980e-01 -4.241175e-02
   endloop
 endfacet
 facet normal -1.777335e-06 9.963726e-01 -8.509728e-02
   outer loop
     vertex 3.974286e+00 4.981578e-01 -4.288101e-02
     vertex 3.973203e+00 4.982149e-01 -4.221262e-02
     vertex 4.026481e+00 4.981980e-01 -4.241175e-02
   endloop
 endfacet
 facet normal 8.781686e-07 9.957015e-01 9.262003e-02
   outer loop
     vertex 3.980770e+00 4.978652e-01 4.615409e-02
     vertex 4.018255e+00 4.978285e-01 4.654862e-02
     vertex 4.019433e+00 4.978731e-01 4.606924e-02
   endloop
 endfacet
 facet normal -1.415758e-06 9.956814e-01 9.283611e-02
   outer loop
     vertex 3.980770e+00 4.978652e-01 4.615409e-02
     vertex 3.982080e+00 4.978164e-01 4.667845e-02
     vertex 4.018255e+00 4.978285e-01 4.654862e-02
   endloop
 endfacet
 facet normal 2.407476e-06 9.963331e-01 -8.555936e-02
   outer loop
     vertex 3.974286e+00 4.981578e-01 -4.288101e-02
     vertex 4.026481e+00 4.981980e-01 -4.241175e-02
     vertex 4.025272e+00 4.981352e-01 -4.314290e-02
   endloop
 endfacet
 facet normal -1.049211e-06 9.957821e-01 9.174936e-02
   outer loop
     vertex 3.979475e+00 4.979170e-01 4.559287e-02
     vertex 3.980770e+00 4.978652e-01 4.615409e-02
     vertex 4.019433e+00 4.978731e-01 4.606924e-02
   endloop
 endfacet
 facet normal -1.976820e-06 9.962600e-01 -8.640664e-02
   outer loop
     vertex 3.975386e+00 4.981023e-01 -4.352157e-02
     vertex 3.974286e+00 4.981578e-01 -4.288101e-02
     vertex 4.025272e+00 4.981352e-01 -4.314290e-02
   endloop
 endfacet
 facet normal 2.464451e-06 9.962094e-01 -8.698734e-02
   outer loop
     vertex 3.975386e+00 4.981023e-01 -4.352157e-02
     vertex 4.025272e+00 4.981352e-01 -4.314290e-02
     vertex 4.024044e+00 4.980744e-01 -4.383951e-02
   endloop
 endfacet
 facet normal 3.848090e-07 9.957931e-01 9.163008e-02
   outer loop
     vertex 3.979475e+00 4.979170e-01 4.559287e-02
     vertex 4.019433e+00 4.978731e-01 4.606924e-02
     vertex 4.020598e+00 4.979200e-01 4.555999e-02
   endloop
 endfacet
 facet normal -4.545703e-07 9.958884e-01 9.058898e-02
   outer loop
     vertex 3.978196e+00 4.979713e-01 4.499520e-02
     vertex 3.979475e+00 4.979170e-01 4.559287e-02
     vertex 4.020598e+00 4.979200e-01 4.555999e-02
   endloop
 endfacet
 facet normal 2.317850e-06 9.960899e-01 -8.834529e-02
   outer loop
     vertex 3.976501e+00 4.980484e-01 -4.413387e-02
     vertex 4.024044e+00 4.980744e-01 -4.383951e-02
     vertex 4.022796e+00 4.980157e-01 -4.450104e-02
   endloop
 endfacet
 facet normal -1.961356e-06 9.961505e-01 -8.765951e-02
   outer loop
     vertex 3.976501e+00 4.980484e-01 -4.413387e-02
     vertex 3.975386e+00 4.981023e-01 -4.352157e-02
     vertex 4.024044e+00 4.980744e-01 -4.383951e-02
   endloop
 endfacet
 facet normal 3.256694e-07 9.959891e-01 8.947493e-02
   outer loop
     vertex 3.978196e+00 4.979713e-01 4.499520e-02
     vertex 4.021751e+00 4.979690e-01 4.502119e-02
     vertex 4.022889e+00 4.980200e-01 4.445318e-02
   endloop
 endfacet
 facet normal -3.393608e-07 9.958891e-01 9.058040e-02
   outer loop
     vertex 3.978196e+00 4.979713e-01 4.499520e-02
     vertex 4.020598e+00 4.979200e-01 4.555999e-02
     vertex 4.021751e+00 4.979690e-01 4.502119e-02
   endloop
 endfacet
 facet normal 1.997368e-06 9.959749e-01 -8.963214e-02
   outer loop
     vertex 3.977632e+00 4.979963e-01 -4.471753e-02
     vertex 4.022796e+00 4.980157e-01 -4.450104e-02
     vertex 4.021530e+00 4.979594e-01 -4.512698e-02
   endloop
 endfacet
 facet normal -1.757320e-06 9.960446e-01 -8.885508e-02
   outer loop
     vertex 3.977632e+00 4.979963e-01 -4.471753e-02
     vertex 3.976501e+00 4.980484e-01 -4.413387e-02
     vertex 4.022796e+00 4.980157e-01 -4.450104e-02
   endloop
 endfacet
 facet normal -1.391799e-06 9.959424e-01 -8.999258e-02
   outer loop
     vertex 3.978777e+00 4.979462e-01 -4.527218e-02
     vertex 3.977632e+00 4.979963e-01 -4.471753e-02
     vertex 4.021530e+00 4.979594e-01 -4.512698e-02
   endloop
 endfacet
 facet normal -1.093749e-06 9.959995e-01 8.935882e-02
   outer loop
     vertex 3.976934e+00 4.980282e-01 4.436155e-02
     vertex 3.978196e+00 4.979713e-01 4.499520e-02
     vertex 4.022889e+00 4.980200e-01 4.445318e-02
   endloop
 endfacet
 facet normal 1.011538e-06 9.960929e-01 8.831129e-02
   outer loop
     vertex 3.976934e+00 4.980282e-01 4.436155e-02
     vertex 4.022889e+00 4.980200e-01 4.445318e-02
     vertex 4.024013e+00 4.980729e-01 4.385632e-02
   endloop
 endfacet
 facet normal 1.533523e-06 9.958649e-01 -9.084689e-02
   outer loop
     vertex 3.978777e+00 4.979462e-01 -4.527218e-02
     vertex 4.021530e+00 4.979594e-01 -4.512698e-02
     vertex 4.020248e+00 4.979056e-01 -4.571683e-02
   endloop
 endfacet
 facet normal -8.925089e-07 9.958444e-01 -9.107128e-02
   outer loop
     vertex 3.979935e+00 4.978982e-01 -4.579745e-02
     vertex 3.978777e+00 4.979462e-01 -4.527218e-02
     vertex 4.020248e+00 4.979056e-01 -4.571683e-02
   endloop
 endfacet
 facet normal 9.575460e-07 9.957601e-01 -9.198860e-02
   outer loop
     vertex 3.979935e+00 4.978982e-01 -4.579745e-02
     vertex 4.020248e+00 4.979056e-01 -4.571683e-02
     vertex 4.018949e+00 4.978545e-01 -4.627016e-02
   endloop
 endfacet
 facet normal 1.567694e-06 9.962005e-01 8.708997e-02
   outer loop
     vertex 3.975690e+00 4.980873e-01 4.369241e-02
     vertex 4.024013e+00 4.980729e-01 4.385632e-02
     vertex 4.025121e+00 4.981276e-01 4.323100e-02
   endloop
 endfacet
 facet normal -1.738047e-06 9.961154e-01 8.805706e-02
   outer loop
     vertex 3.975690e+00 4.980873e-01 4.369241e-02
     vertex 3.976934e+00 4.980282e-01 4.436155e-02
     vertex 4.024013e+00 4.980729e-01 4.385632e-02
   endloop
 endfacet
 facet normal -2.246045e-06 9.962358e-01 8.668449e-02
   outer loop
     vertex 3.974466e+00 4.981486e-01 4.298831e-02
     vertex 3.975690e+00 4.980873e-01 4.369241e-02
     vertex 4.025121e+00 4.981276e-01 4.323100e-02
   endloop
 endfacet
 facet normal -2.877183e-07 9.957506e-01 -9.209051e-02
   outer loop
     vertex 3.981107e+00 4.978523e-01 -4.629303e-02
     vertex 3.979935e+00 4.978982e-01 -4.579745e-02
     vertex 4.018949e+00 4.978545e-01 -4.627016e-02
   endloop
 endfacet
 facet normal 1.966519e-06 9.963114e-01 8.581177e-02
   outer loop
     vertex 3.974466e+00 4.981486e-01 4.298831e-02
     vertex 4.025121e+00 4.981276e-01 4.323100e-02
     vertex 4.026213e+00 4.981838e-01 4.257762e-02
   endloop
 endfacet
 facet normal 3.882430e-07 9.956608e-01 -9.305663e-02
   outer loop
     vertex 3.982290e+00 4.978088e-01 -4.675861e-02
     vertex 4.018949e+00 4.978545e-01 -4.627016e-02
     vertex 4.017636e+00 4.978062e-01 -4.678652e-02
   endloop
 endfacet
 facet normal 2.972918e-07 9.956614e-01 -9.304986e-02
   outer loop
     vertex 3.982290e+00 4.978088e-01 -4.675861e-02
     vertex 3.981107e+00 4.978523e-01 -4.629303e-02
     vertex 4.018949e+00 4.978545e-01 -4.627016e-02
   endloop
 endfacet
 facet normal 2.181069e-06 9.964254e-01 8.447752e-02
   outer loop
     vertex 3.973261e+00 4.982118e-01 4.224979e-02
     vertex 4.026213e+00 4.981838e-01 4.257762e-02
     vertex 4.027289e+00 4.982416e-01 4.189658e-02
   endloop
 endfacet
 facet normal -2.587277e-06 9.963603e-01 8.524219e-02
   outer loop
     vertex 3.973261e+00 4.982118e-01 4.224979e-02
     vertex 3.974466e+00 4.981486e-01 4.298831e-02
     vertex 4.026213e+00 4.981838e-01 4.257762e-02
   endloop
 endfacet
 facet normal 8.915888e-07 9.955672e-01 -9.405308e-02
   outer loop
     vertex 3.983485e+00 4.977678e-01 -4.719388e-02
     vertex 4.017636e+00 4.978062e-01 -4.678652e-02
     vertex 4.016309e+00 4.977610e-01 -4.726554e-02
   endloop
 endfacet
 facet normal -3.251675e-07 9.955767e-01 -9.395197e-02
   outer loop
     vertex 3.983485e+00 4.977678e-01 -4.719388e-02
     vertex 3.982290e+00 4.978088e-01 -4.675861e-02
     vertex 4.017636e+00 4.978062e-01 -4.678652e-02
   endloop
 endfacet
 facet normal 2.185138e-06 9.965422e-01 8.308810e-02
   outer loop
     vertex 3.972078e+00 4.982767e-01 4.147744e-02
     vertex 4.027289e+00 4.982416e-01 4.189658e-02
     vertex 4.028346e+00 4.983006e-01 4.118835e-02
   endloop
 endfacet
 facet normal -2.732127e-06 9.964884e-01 8.373131e-02
   outer loop
     vertex 3.972078e+00 4.982767e-01 4.147744e-02
     vertex 3.973261e+00 4.982118e-01 4.224979e-02
     vertex 4.027289e+00 4.982416e-01 4.189658e-02
   endloop
 endfacet
 facet normal 1.188430e-06 9.954797e-01 -9.497417e-02
   outer loop
     vertex 3.984691e+00 4.977292e-01 -4.759858e-02
     vertex 4.016309e+00 4.977610e-01 -4.726554e-02
     vertex 4.014969e+00 4.977189e-01 -4.770685e-02
   endloop
 endfacet
 facet normal -7.382158e-07 9.954970e-01 -9.479290e-02
   outer loop
     vertex 3.984691e+00 4.977292e-01 -4.759858e-02
     vertex 3.983485e+00 4.977678e-01 -4.719388e-02
     vertex 4.016309e+00 4.977610e-01 -4.726554e-02
   endloop
 endfacet
 facet normal 1.953334e-06 9.966615e-01 8.164441e-02
   outer loop
     vertex 3.970917e+00 4.983431e-01 4.067187e-02
     vertex 4.028346e+00 4.983006e-01 4.118835e-02
     vertex 4.029386e+00 4.983608e-01 4.045337e-02
   endloop
 endfacet
 facet normal -2.651928e-06 9.966197e-01 8.215306e-02
   outer loop
     vertex 3.970917e+00 4.983431e-01 4.067187e-02
     vertex 3.972078e+00 4.982767e-01 4.147744e-02
     vertex 4.028346e+00 4.983006e-01 4.118835e-02
   endloop
 endfacet
 facet normal 1.309552e-06 9.953988e-01 -9.581925e-02
   outer loop
     vertex 3.985906e+00 4.976933e-01 -4.797246e-02
     vertex 4.014969e+00 4.977189e-01 -4.770685e-02
     vertex 4.013617e+00 4.976800e-01 -4.811011e-02
   endloop
 endfacet
 facet normal -9.695054e-07 9.954225e-01 -9.557216e-02
   outer loop
     vertex 3.985906e+00 4.976933e-01 -4.797246e-02
     vertex 3.984691e+00 4.977292e-01 -4.759858e-02
     vertex 4.014969e+00 4.977189e-01 -4.770685e-02
   endloop
 endfacet
 facet normal 1.461144e-06 9.967830e-01 8.014742e-02
   outer loop
     vertex 3.969780e+00 4.984107e-01 3.983373e-02
     vertex 4.029386e+00 4.983608e-01 4.045337e-02
     vertex 4.030406e+00 4.984220e-01 3.969212e-02
   endloop
 endfacet
 facet normal -2.319052e-06 9.967539e-01 8.050871e-02
   outer loop
     vertex 3.969780e+00 4.984107e-01 3.983373e-02
     vertex 3.970917e+00 4.983431e-01 4.067187e-02
     vertex 4.029386e+00 4.983608e-01 4.045337e-02
   endloop
 endfacet
 facet normal 1.286310e-06 9.953245e-01 -9.658773e-02
   outer loop
     vertex 3.987130e+00 4.976602e-01 -4.831528e-02
     vertex 4.013617e+00 4.976800e-01 -4.811011e-02
     vertex 4.012254e+00 4.976446e-01 -4.847503e-02
   endloop
 endfacet
 facet normal -1.047171e-06 9.953534e-01 -9.628929e-02
   outer loop
     vertex 3.987130e+00 4.976602e-01 -4.831528e-02
     vertex 3.985906e+00 4.976933e-01 -4.797246e-02
     vertex 4.013617e+00 4.976800e-01 -4.811011e-02
   endloop
 endfacet
 facet normal 1.150534e-06 9.952571e-01 -9.727912e-02
   outer loop
     vertex 3.988363e+00 4.976298e-01 -4.862685e-02
     vertex 4.012254e+00 4.976446e-01 -4.847503e-02
     vertex 4.010883e+00 4.976127e-01 -4.880134e-02
   endloop
 endfacet
 facet normal 6.850111e-07 9.969064e-01 7.859811e-02
   outer loop
     vertex 3.968666e+00 4.984795e-01 3.896368e-02
     vertex 4.030406e+00 4.984220e-01 3.969212e-02
     vertex 4.031407e+00 4.984841e-01 3.890511e-02
   endloop
 endfacet
 facet normal -1.707003e-06 9.968905e-01 7.879959e-02
   outer loop
     vertex 3.968666e+00 4.984795e-01 3.896368e-02
     vertex 3.969780e+00 4.984107e-01 3.983373e-02
     vertex 4.030406e+00 4.984220e-01 3.969212e-02
   endloop
 endfacet
 facet normal -9.997535e-07 9.952898e-01 -9.694390e-02
   outer loop
     vertex 3.988363e+00 4.976298e-01 -4.862685e-02
     vertex 3.987130e+00 4.976602e-01 -4.831528e-02
     vertex 4.012254e+00 4.976446e-01 -4.847503e-02
   endloop
 endfacet
 facet normal 9.344228e-07 9.951969e-01 -9.789297e-02
   outer loop
     vertex 3.989602e+00 4.976024e-01 -4.890695e-02
     vertex 4.010883e+00 4.976127e-01 -4.880134e-02
     vertex 4.009502e+00 4.975845e-01 -4.908879e-02
   endloop
 endfacet
 facet normal 3.805276e-07 9.971572e-01 7.534922e-02
   outer loop
     vertex 3.967577e+00 4.985491e-01 3.806243e-02
     vertex 4.032387e+00 4.985468e-01 3.809285e-02
     vertex 4.033347e+00 4.986101e-01 3.725587e-02
   endloop
 endfacet
 facet normal -8.561168e-07 9.952320e-01 -9.753563e-02
   outer loop
     vertex 3.989602e+00 4.976024e-01 -4.890695e-02
     vertex 3.988363e+00 4.976298e-01 -4.862685e-02
     vertex 4.010883e+00 4.976127e-01 -4.880134e-02
   endloop
 endfacet
 facet normal -3.976068e-07 9.970313e-01 7.699752e-02
   outer loop
     vertex 3.967577e+00 4.985491e-01 3.806243e-02
     vertex 4.031407e+00 4.984841e-01 3.890511e-02
     vertex 4.032387e+00 4.985468e-01 3.809285e-02
   endloop
 endfacet
 facet normal -7.905038e-07 9.970290e-01 7.702711e-02
   outer loop
     vertex 3.967577e+00 4.985491e-01 3.806243e-02
     vertex 3.968666e+00 4.984795e-01 3.896368e-02
     vertex 4.031407e+00 4.984841e-01 3.890511e-02
   endloop
 endfacet
 facet normal 6.704385e-07 9.951441e-01 -9.842893e-02
   outer loop
     vertex 3.990849e+00 4.975779e-01 -4.915544e-02
     vertex 4.009502e+00 4.975845e-01 -4.908879e-02
     vertex 4.008114e+00 4.975599e-01 -4.933718e-02
   endloop
 endfacet
 facet normal -6.453712e-07 9.951801e-01 -9.806419e-02
   outer loop
     vertex 3.990849e+00 4.975779e-01 -4.915544e-02
     vertex 3.989602e+00 4.976024e-01 -4.890695e-02
     vertex 4.009502e+00 4.975845e-01 -4.908879e-02
   endloop
 endfacet
 facet normal 1.383104e-06 9.972840e-01 7.365218e-02
   outer loop
     vertex 3.966514e+00 4.986194e-01 3.713070e-02
     vertex 4.033347e+00 4.986101e-01 3.725587e-02
     vertex 4.034284e+00 4.986737e-01 3.639472e-02
   endloop
 endfacet
 facet normal -1.522293e-06 9.971689e-01 7.519494e-02
   outer loop
     vertex 3.966514e+00 4.986194e-01 3.713070e-02
     vertex 3.967577e+00 4.985491e-01 3.806243e-02
     vertex 4.033347e+00 4.986101e-01 3.725587e-02
   endloop
 endfacet
 facet normal 3.912096e-07 9.950987e-01 -9.888672e-02
   outer loop
     vertex 3.992101e+00 4.975564e-01 -4.937214e-02
     vertex 4.008114e+00 4.975599e-01 -4.933718e-02
     vertex 4.006720e+00 4.975391e-01 -4.954632e-02
   endloop
 endfacet
 facet normal -3.967887e-07 9.951341e-01 -9.852933e-02
   outer loop
     vertex 3.992101e+00 4.975564e-01 -4.937214e-02
     vertex 3.990849e+00 4.975779e-01 -4.915544e-02
     vertex 4.008114e+00 4.975599e-01 -4.933718e-02
   endloop
 endfacet
 facet normal 2.164274e-06 9.974113e-01 7.190704e-02
   outer loop
     vertex 3.965478e+00 4.986901e-01 3.616926e-02
     vertex 4.034284e+00 4.986737e-01 3.639472e-02
     vertex 4.035200e+00 4.987374e-01 3.550998e-02
   endloop
 endfacet
 facet normal -2.433195e-06 9.973097e-01 7.330267e-02
   outer loop
     vertex 3.965478e+00 4.986901e-01 3.616926e-02
     vertex 3.966514e+00 4.986194e-01 3.713070e-02
     vertex 4.034284e+00 4.986737e-01 3.639472e-02
   endloop
 endfacet
 facet normal 1.294329e-07 9.950609e-01 -9.926613e-02
   outer loop
     vertex 3.993358e+00 4.975381e-01 -4.955694e-02
     vertex 4.006720e+00 4.975391e-01 -4.954632e-02
     vertex 4.005321e+00 4.975222e-01 -4.971607e-02
   endloop
 endfacet
 facet normal -1.397167e-07 9.950943e-01 -9.893084e-02
   outer loop
     vertex 3.993358e+00 4.975381e-01 -4.955694e-02
     vertex 3.992101e+00 4.975564e-01 -4.937214e-02
     vertex 4.006720e+00 4.975391e-01 -4.954632e-02
   endloop
 endfacet
 facet normal 2.700371e-06 9.975389e-01 7.011497e-02
   outer loop
     vertex 3.964469e+00 4.987609e-01 3.517887e-02
     vertex 4.035200e+00 4.987374e-01 3.550998e-02
     vertex 4.036093e+00 4.988012e-01 3.460223e-02
   endloop
 endfacet
 facet normal -3.116826e-06 9.974512e-01 7.135140e-02
   outer loop
     vertex 3.964469e+00 4.987609e-01 3.517887e-02
     vertex 3.965478e+00 4.986901e-01 3.616926e-02
     vertex 4.035200e+00 4.987374e-01 3.550998e-02
   endloop
 endfacet
 facet normal 9.651797e-08 9.950607e-01 -9.926858e-02
   outer loop
     vertex 3.994620e+00 4.975228e-01 -4.970972e-02
     vertex 3.993358e+00 4.975381e-01 -4.955694e-02
     vertex 4.005321e+00 4.975222e-01 -4.971607e-02
   endloop
 endfacet
 facet normal -8.003469e-08 9.949878e-01 -9.999611e-02
   outer loop
     vertex 3.998422e+00 4.974962e-01 -4.997510e-02
     vertex 4.001103e+00 4.974949e-01 -4.998784e-02
     vertex 3.999693e+00 4.974938e-01 -4.999905e-02
   endloop
 endfacet
 facet normal 1.715883e-07 9.949931e-01 -9.994369e-02
   outer loop
     vertex 3.998422e+00 4.974962e-01 -4.997510e-02
     vertex 4.002511e+00 4.975001e-01 -4.993690e-02
     vertex 4.001103e+00 4.974949e-01 -4.998784e-02
   endloop
 endfacet
 facet normal 2.968821e-06 9.976664e-01 6.827718e-02
   outer loop
     vertex 3.963489e+00 4.988317e-01 3.416035e-02
     vertex 4.036093e+00 4.988012e-01 3.460223e-02
     vertex 4.036962e+00 4.988649e-01 3.367207e-02
   endloop
 endfacet
 facet normal -3.547213e-06 9.975929e-01 6.934274e-02
   outer loop
     vertex 3.963489e+00 4.988317e-01 3.416035e-02
     vertex 3.964469e+00 4.987609e-01 3.517887e-02
     vertex 4.036093e+00 4.988012e-01 3.460223e-02
   endloop
 endfacet
 facet normal 2.269419e-07 9.950305e-01 -9.957032e-02
   outer loop
     vertex 3.995885e+00 4.975107e-01 -4.983038e-02
     vertex 4.005321e+00 4.975222e-01 -4.971607e-02
     vertex 4.003918e+00 4.975091e-01 -4.984629e-02
   endloop
 endfacet
 facet normal -6.966264e-08 9.950330e-01 -9.954608e-02
   outer loop
     vertex 3.995885e+00 4.975107e-01 -4.983038e-02
     vertex 3.994620e+00 4.975228e-01 -4.970972e-02
     vertex 4.005321e+00 4.975222e-01 -4.971607e-02
   endloop
 endfacet
 facet normal 2.406150e-07 9.950079e-01 -9.979625e-02
   outer loop
     vertex 3.997153e+00 4.975019e-01 -4.991886e-02
     vertex 4.003918e+00 4.975091e-01 -4.984629e-02
     vertex 4.002511e+00 4.975001e-01 -4.993690e-02
   endloop
 endfacet
 facet normal -1.461819e-07 9.949965e-01 -9.991001e-02
   outer loop
     vertex 3.997153e+00 4.975019e-01 -4.991886e-02
     vertex 4.002511e+00 4.975001e-01 -4.993690e-02
     vertex 3.998422e+00 4.974962e-01 -4.997510e-02
   endloop
 endfacet
 facet normal -1.523663e-07 9.950115e-01 -9.975999e-02
   outer loop
     vertex 3.997153e+00 4.975019e-01 -4.991886e-02
     vertex 3.995885e+00 4.975107e-01 -4.983038e-02
     vertex 4.003918e+00 4.975091e-01 -4.984629e-02
   endloop
 endfacet
 facet normal 2.948201e-06 9.977934e-01 6.639490e-02
   outer loop
     vertex 3.962538e+00 4.989022e-01 3.311453e-02
     vertex 4.036962e+00 4.988649e-01 3.367207e-02
     vertex 4.037807e+00 4.989282e-01 3.272011e-02
   endloop
 endfacet
 facet normal -3.699743e-06 9.977342e-01 6.727836e-02
   outer loop
     vertex 3.962538e+00 4.989022e-01 3.311453e-02
     vertex 3.963489e+00 4.988317e-01 3.416035e-02
     vertex 4.036962e+00 4.988649e-01 3.367207e-02
   endloop
 endfacet
 facet normal -3.551232e-06 9.978748e-01 6.515995e-02
   outer loop
     vertex 3.961616e+00 4.989722e-01 3.204227e-02
     vertex 3.962538e+00 4.989022e-01 3.311453e-02
     vertex 4.037807e+00 4.989282e-01 3.272011e-02
   endloop
 endfacet
 facet normal 2.618298e-06 9.979197e-01 6.446940e-02
   outer loop
     vertex 3.961616e+00 4.989722e-01 3.204227e-02
     vertex 4.037807e+00 4.989282e-01 3.272011e-02
     vertex 4.038628e+00 4.989911e-01 3.174698e-02
   endloop
 endfacet
 facet normal -3.080006e-06 9.980142e-01 6.298929e-02
   outer loop
     vertex 3.960726e+00 4.990415e-01 3.094443e-02
     vertex 3.961616e+00 4.989722e-01 3.204227e-02
     vertex 4.038628e+00 4.989911e-01 3.174698e-02
   endloop
 endfacet
 facet normal 1.960165e-06 9.980448e-01 6.250197e-02
   outer loop
     vertex 3.960726e+00 4.990415e-01 3.094443e-02
     vertex 4.038628e+00 4.989911e-01 3.174698e-02
     vertex 4.039424e+00 4.990533e-01 3.075334e-02
   endloop
 endfacet
 facet normal -2.265965e-06 9.981519e-01 6.076817e-02
   outer loop
     vertex 3.959867e+00 4.991099e-01 2.982193e-02
     vertex 3.960726e+00 4.990415e-01 3.094443e-02
     vertex 4.039424e+00 4.990533e-01 3.075334e-02
   endloop
 endfacet
 facet normal 9.561617e-07 9.981686e-01 6.049396e-02
   outer loop
     vertex 3.959867e+00 4.991099e-01 2.982193e-02
     vertex 4.039424e+00 4.990533e-01 3.075334e-02
     vertex 4.040194e+00 4.991148e-01 2.973983e-02
   endloop
 endfacet
 facet normal -1.090645e-06 9.982875e-01 5.849844e-02
   outer loop
     vertex 3.959040e+00 4.991770e-01 2.867567e-02
     vertex 3.959867e+00 4.991099e-01 2.982193e-02
     vertex 4.040194e+00 4.991148e-01 2.973983e-02
   endloop
 endfacet
 facet normal 3.928461e-07 9.984103e-01 5.636333e-02
   outer loop
     vertex 3.959040e+00 4.991770e-01 2.867567e-02
     vertex 4.040938e+00 4.991752e-01 2.870713e-02
     vertex 4.041655e+00 4.992346e-01 2.765591e-02
   endloop
 endfacet
 facet normal -4.099938e-07 9.982905e-01 5.844671e-02
   outer loop
     vertex 3.959040e+00 4.991770e-01 2.867567e-02
     vertex 4.040194e+00 4.991148e-01 2.973983e-02
     vertex 4.040938e+00 4.991752e-01 2.870713e-02
   endloop
 endfacet
 facet normal -1.833449e-06 9.984205e-01 5.618354e-02
   outer loop
     vertex 3.958246e+00 4.992428e-01 2.750660e-02
     vertex 3.959040e+00 4.991770e-01 2.867567e-02
     vertex 4.041655e+00 4.992346e-01 2.765591e-02
   endloop
 endfacet
 facet normal 1.649460e-06 9.985277e-01 5.424386e-02
   outer loop
     vertex 3.958246e+00 4.992428e-01 2.750660e-02
     vertex 4.041655e+00 4.992346e-01 2.765591e-02
     vertex 4.042345e+00 4.992926e-01 2.658688e-02
   endloop
 endfacet
 facet normal 2.606624e-06 9.986424e-01 5.208919e-02
   outer loop
     vertex 3.957485e+00 4.993070e-01 2.631567e-02
     vertex 4.042345e+00 4.992926e-01 2.658688e-02
     vertex 4.043008e+00 4.993493e-01 2.550074e-02
   endloop
 endfacet
 facet normal -2.953915e-06 9.985504e-01 5.382415e-02
   outer loop
     vertex 3.957485e+00 4.993070e-01 2.631567e-02
     vertex 3.958246e+00 4.992428e-01 2.750660e-02
     vertex 4.042345e+00 4.992926e-01 2.658688e-02
   endloop
 endfacet
 facet normal 3.246728e-06 9.987542e-01 4.990076e-02
   outer loop
     vertex 3.956759e+00 4.993694e-01 2.510385e-02
     vertex 4.043008e+00 4.993493e-01 2.550074e-02
     vertex 4.043643e+00 4.994044e-01 2.439819e-02
   endloop
 endfacet
 facet normal -3.770272e-06 9.986770e-01 5.142176e-02
   outer loop
     vertex 3.956759e+00 4.993694e-01 2.510385e-02
     vertex 3.957485e+00 4.993070e-01 2.631567e-02
     vertex 4.043008e+00 4.993493e-01 2.550074e-02
   endloop
 endfacet
 facet normal -4.263324e-06 9.987998e-01 4.897835e-02
   outer loop
     vertex 3.956067e+00 4.994298e-01 2.387214e-02
     vertex 3.956759e+00 4.993694e-01 2.510385e-02
     vertex 4.043643e+00 4.994044e-01 2.439819e-02
   endloop
 endfacet
 facet normal 3.553575e-06 9.988627e-01 4.768004e-02
   outer loop
     vertex 3.956067e+00 4.994298e-01 2.387214e-02
     vertex 4.043643e+00 4.994044e-01 2.439819e-02
     vertex 4.044250e+00 4.994577e-01 2.327997e-02
   endloop
 endfacet
 facet normal -4.415599e-06 9.989185e-01 4.649594e-02
   outer loop
     vertex 3.955410e+00 4.994880e-01 2.262153e-02
     vertex 3.956067e+00 4.994298e-01 2.387214e-02
     vertex 4.044250e+00 4.994577e-01 2.327997e-02
   endloop
 endfacet
 facet normal 3.512407e-06 9.989676e-01 4.542852e-02
   outer loop
     vertex 3.955410e+00 4.994880e-01 2.262153e-02
     vertex 4.044250e+00 4.994577e-01 2.327997e-02
     vertex 4.044828e+00 4.995093e-01 2.214681e-02
   endloop
 endfacet
 facet normal -4.211398e-06 9.990326e-01 4.397659e-02
   outer loop
     vertex 3.954789e+00 4.995438e-01 2.135305e-02
     vertex 3.955410e+00 4.994880e-01 2.262153e-02
     vertex 4.044828e+00 4.995093e-01 2.214681e-02
   endloop
 endfacet
 facet normal 3.109931e-06 9.990687e-01 4.314768e-02
   outer loop
     vertex 3.954789e+00 4.995438e-01 2.135305e-02
     vertex 4.044828e+00 4.995093e-01 2.214681e-02
     vertex 4.045376e+00 4.995588e-01 2.099944e-02
   endloop
 endfacet
 facet normal -3.636822e-06 9.991417e-01 4.142237e-02
   outer loop
     vertex 3.954204e+00 4.995971e-01 2.006771e-02
     vertex 3.954789e+00 4.995438e-01 2.135305e-02
     vertex 4.045376e+00 4.995588e-01 2.099944e-02
   endloop
 endfacet
 facet normal 2.334349e-06 9.991657e-01 4.083906e-02
   outer loop
     vertex 3.954204e+00 4.995971e-01 2.006771e-02
     vertex 4.045376e+00 4.995588e-01 2.099944e-02
     vertex 4.045896e+00 4.996063e-01 1.983862e-02
   endloop
 endfacet
 facet normal -2.679812e-06 9.992456e-01 3.883538e-02
   outer loop
     vertex 3.953655e+00 4.996477e-01 1.876657e-02
     vertex 3.954204e+00 4.995971e-01 2.006771e-02
     vertex 4.045896e+00 4.996063e-01 1.983862e-02
   endloop
 endfacet
 facet normal 1.175374e-06 9.992584e-01 3.850417e-02
   outer loop
     vertex 3.953655e+00 4.996477e-01 1.876657e-02
     vertex 4.045896e+00 4.996063e-01 1.983862e-02
     vertex 4.046385e+00 4.996515e-01 1.866509e-02
   endloop
 endfacet
 facet normal -1.330171e-06 9.993439e-01 3.621775e-02
   outer loop
     vertex 3.953144e+00 4.996954e-01 1.745067e-02
     vertex 3.953655e+00 4.996477e-01 1.876657e-02
     vertex 4.046385e+00 4.996515e-01 1.866509e-02
   endloop
 endfacet
 facet normal 3.612666e-07 9.994299e-01 3.376275e-02
   outer loop
     vertex 3.953144e+00 4.996954e-01 1.745067e-02
     vertex 4.046845e+00 4.996944e-01 1.747963e-02
     vertex 4.047274e+00 4.997348e-01 1.628298e-02
   endloop
 endfacet
 facet normal -3.757567e-07 9.993466e-01 3.614456e-02
   outer loop
     vertex 3.953144e+00 4.996954e-01 1.745067e-02
     vertex 4.046385e+00 4.996515e-01 1.866509e-02
     vertex 4.046845e+00 4.996944e-01 1.747963e-02
   endloop
 endfacet
 facet normal -2.001883e-06 9.994363e-01 3.357247e-02
   outer loop
     vertex 3.952670e+00 4.997400e-01 1.612107e-02
     vertex 3.953144e+00 4.996954e-01 1.745067e-02
     vertex 4.047274e+00 4.997348e-01 1.628298e-02
   endloop
 endfacet
 facet normal 1.789526e-06 9.995082e-01 3.135955e-02
   outer loop
     vertex 3.952670e+00 4.997400e-01 1.612107e-02
     vertex 4.047274e+00 4.997348e-01 1.628298e-02
     vertex 4.047673e+00 4.997727e-01 1.507594e-02
   endloop
 endfacet
 facet normal -3.259736e-06 9.995224e-01 3.090102e-02
   outer loop
     vertex 3.952234e+00 4.997815e-01 1.477884e-02
     vertex 3.952670e+00 4.997400e-01 1.612107e-02
     vertex 4.047673e+00 4.997727e-01 1.507594e-02
   endloop
 endfacet
 facet normal 2.862328e-06 9.995813e-01 2.893613e-02
   outer loop
     vertex 3.952234e+00 4.997815e-01 1.477884e-02
     vertex 4.047673e+00 4.997727e-01 1.507594e-02
     vertex 4.048041e+00 4.998079e-01 1.385926e-02
   endloop
 endfacet
 facet normal -4.159072e-06 9.996022e-01 2.820520e-02
   outer loop
     vertex 3.951836e+00 4.998197e-01 1.342506e-02
     vertex 3.952234e+00 4.997815e-01 1.477884e-02
     vertex 4.048041e+00 4.998079e-01 1.385926e-02
   endloop
 endfacet
 facet normal 3.569568e-06 9.996490e-01 2.649408e-02
   outer loop
     vertex 3.951836e+00 4.998197e-01 1.342506e-02
     vertex 4.048041e+00 4.998079e-01 1.385926e-02
     vertex 4.048378e+00 4.998404e-01 1.263374e-02
   endloop
 endfacet
 facet normal -4.688994e-06 9.996751e-01 2.548721e-02
   outer loop
     vertex 3.951476e+00 4.998545e-01 1.206081e-02
     vertex 3.951836e+00 4.998197e-01 1.342506e-02
     vertex 4.048378e+00 4.998404e-01 1.263374e-02
   endloop
 endfacet
 facet normal 3.902699e-06 9.997111e-01 2.403496e-02
   outer loop
     vertex 3.951476e+00 4.998545e-01 1.206081e-02
     vertex 4.048378e+00 4.998404e-01 1.263374e-02
     vertex 4.048683e+00 4.998700e-01 1.140015e-02
   endloop
 endfacet
 facet normal -4.840510e-06 9.997412e-01 2.274923e-02
   outer loop
     vertex 3.951156e+00 4.998858e-01 1.068717e-02
     vertex 3.951476e+00 4.998545e-01 1.206081e-02
     vertex 4.048683e+00 4.998700e-01 1.140015e-02
   endloop
 endfacet
 facet normal 3.854741e-06 9.997675e-01 2.156040e-02
   outer loop
     vertex 3.951156e+00 4.998858e-01 1.068717e-02
     vertex 4.048683e+00 4.998700e-01 1.140015e-02
     vertex 4.048957e+00 4.998968e-01 1.015928e-02
   endloop
 endfacet
 facet normal -4.606542e-06 9.998001e-01 1.999349e-02
   outer loop
     vertex 3.950873e+00 4.999134e-01 9.305247e-03
     vertex 3.951156e+00 4.998858e-01 1.068717e-02
     vertex 4.048957e+00 4.998968e-01 1.015928e-02
   endloop
 endfacet
 facet normal 3.420286e-06 9.998181e-01 1.907197e-02
   outer loop
     vertex 3.950873e+00 4.999134e-01 9.305247e-03
     vertex 4.048957e+00 4.998968e-01 1.015928e-02
     vertex 4.049199e+00 4.999206e-01 8.911911e-03
   endloop
 endfacet
 facet normal -3.981937e-06 9.998517e-01 1.722218e-02
   outer loop
     vertex 3.950631e+00 4.999373e-01 7.916126e-03
     vertex 3.950873e+00 4.999134e-01 9.305247e-03
     vertex 4.049199e+00 4.999206e-01 8.911911e-03
   endloop
 endfacet
 facet normal 2.595509e-06 9.998627e-01 1.657129e-02
   outer loop
     vertex 3.950631e+00 4.999373e-01 7.916126e-03
     vertex 4.049199e+00 4.999206e-01 8.911911e-03
     vertex 4.049410e+00 4.999413e-01 7.658841e-03
   endloop
 endfacet
 facet normal -2.963478e-06 9.998958e-01 1.443755e-02
   outer loop
     vertex 3.950427e+00 4.999575e-01 6.520910e-03
     vertex 3.950631e+00 4.999373e-01 7.916126e-03
     vertex 4.049410e+00 4.999413e-01 7.658841e-03
   endloop
 endfacet
 facet normal 1.378174e-06 9.999012e-01 1.405997e-02
   outer loop
     vertex 3.950427e+00 4.999575e-01 6.520910e-03
     vertex 4.049410e+00 4.999413e-01 7.658841e-03
     vertex 4.049589e+00 4.999590e-01 6.400857e-03
   endloop
 endfacet
 facet normal -1.549895e-06 9.999322e-01 1.164183e-02
   outer loop
     vertex 3.950263e+00 4.999738e-01 5.120697e-03
     vertex 3.950427e+00 4.999575e-01 6.520910e-03
     vertex 4.049589e+00 4.999590e-01 6.400857e-03
   endloop
 endfacet
 facet normal 2.264051e-07 9.999594e-01 9.012067e-03
   outer loop
     vertex 3.950263e+00 4.999738e-01 5.120697e-03
     vertex 4.049735e+00 4.999736e-01 5.138750e-03
     vertex 4.049850e+00 4.999850e-01 3.873311e-03
   endloop
 endfacet
 facet normal -2.323583e-07 9.999334e-01 1.153961e-02
   outer loop
     vertex 3.950263e+00 4.999738e-01 5.120697e-03
     vertex 4.049589e+00 4.999590e-01 6.400857e-03
     vertex 4.049735e+00 4.999736e-01 5.138750e-03
   endloop
 endfacet
 facet normal -1.960999e-06 9.999609e-01 8.837446e-03
   outer loop
     vertex 3.950138e+00 4.999862e-01 3.716592e-03
     vertex 3.950263e+00 4.999738e-01 5.120697e-03
     vertex 4.049850e+00 4.999850e-01 3.873311e-03
   endloop
 endfacet
 facet normal 1.746539e-06 9.999790e-01 6.478691e-03
   outer loop
     vertex 3.950138e+00 4.999862e-01 3.716592e-03
     vertex 4.049850e+00 4.999850e-01 3.873311e-03
     vertex 4.049932e+00 4.999932e-01 2.605330e-03
   endloop
 endfacet
 facet normal -3.290015e-06 9.999818e-01 6.026415e-03
   outer loop
     vertex 3.950053e+00 4.999947e-01 2.309695e-03
     vertex 3.950138e+00 4.999862e-01 3.716592e-03
     vertex 4.049932e+00 4.999932e-01 2.605330e-03
   endloop
 endfacet
 facet normal 2.883020e-06 9.999922e-01 3.940943e-03
   outer loop
     vertex 3.950053e+00 4.999947e-01 2.309695e-03
     vertex 4.049932e+00 4.999932e-01 2.605330e-03
     vertex 4.049982e+00 4.999982e-01 1.335596e-03
   endloop
 endfacet
 facet normal 3.633941e-06 9.999990e-01 1.400446e-03
   outer loop
     vertex 3.950008e+00 4.999992e-01 9.011074e-04
     vertex 4.049982e+00 4.999982e-01 1.335596e-03
     vertex 4.050000e+00 5.000000e-01 6.489750e-05
   endloop
 endfacet
 facet normal -4.234090e-06 9.999948e-01 3.210837e-03
   outer loop
     vertex 3.950008e+00 4.999992e-01 9.011074e-04
     vertex 3.950053e+00 4.999947e-01 2.309695e-03
     vertex 4.049982e+00 4.999982e-01 1.335596e-03
   endloop
 endfacet
 facet normal 3.993976e-06 9.999993e-01 -1.140288e-03
   outer loop
     vertex 3.950003e+00 4.999997e-01 -5.080704e-04
     vertex 4.050000e+00 5.000000e-01 6.489750e-05
     vertex 4.049985e+00 4.999985e-01 -1.205107e-03
   endloop
 endfacet
 facet normal -4.791347e-06 9.999999e-01 3.929729e-04
   outer loop
     vertex 3.950003e+00 4.999997e-01 -5.080704e-04
     vertex 3.950008e+00 4.999992e-01 9.011074e-04
     vertex 4.050000e+00 5.000000e-01 6.489750e-05
   endloop
 endfacet
 facet normal -4.970123e-06 9.999971e-01 -2.426094e-03
   outer loop
     vertex 3.950037e+00 4.999963e-01 -1.918016e-03
     vertex 3.950003e+00 4.999997e-01 -5.080704e-04
     vertex 4.049985e+00 4.999985e-01 -1.205107e-03
   endloop
 endfacet
 facet normal 4.960428e-06 9.999927e-01 -3.818328e-03
   outer loop
     vertex 3.950037e+00 4.999963e-01 -1.918016e-03
     vertex 4.049985e+00 4.999985e-01 -1.205107e-03
     vertex 4.049932e+00 4.999932e-01 -2.613365e-03
   endloop
 endfacet
 facet normal 4.786887e-06 9.999780e-01 -6.632836e-03
   outer loop
     vertex 3.950102e+00 4.999898e-01 -3.186995e-03
     vertex 4.049932e+00 4.999932e-01 -2.613365e-03
     vertex 4.049838e+00 4.999838e-01 -4.019750e-03
   endloop
 endfacet
 facet normal -3.994083e-06 9.999870e-01 -5.104719e-03
   outer loop
     vertex 3.950102e+00 4.999898e-01 -3.186995e-03
     vertex 3.950037e+00 4.999963e-01 -1.918016e-03
     vertex 4.049932e+00 4.999932e-01 -2.613365e-03
   endloop
 endfacet
 facet normal 4.225471e-06 9.999554e-01 -9.442676e-03
   outer loop
     vertex 3.950199e+00 4.999802e-01 -4.453919e-03
     vertex 4.049838e+00 4.999838e-01 -4.019750e-03
     vertex 4.049705e+00 4.999706e-01 -5.423135e-03
   endloop
 endfacet
 facet normal -3.627624e-06 9.999708e-01 -7.640564e-03
   outer loop
     vertex 3.950199e+00 4.999802e-01 -4.453919e-03
     vertex 3.950102e+00 4.999898e-01 -3.186995e-03
     vertex 4.049838e+00 4.999838e-01 -4.019750e-03
   endloop
 endfacet
 facet normal -2.875115e-06 9.999483e-01 -1.017160e-02
   outer loop
     vertex 3.950328e+00 4.999673e-01 -5.717973e-03
     vertex 3.950199e+00 4.999802e-01 -4.453919e-03
     vertex 4.049705e+00 4.999706e-01 -5.423135e-03
   endloop
 endfacet
 facet normal 3.278565e-06 9.999250e-01 -1.224547e-02
   outer loop
     vertex 3.950328e+00 4.999673e-01 -5.717973e-03
     vertex 4.049705e+00 4.999706e-01 -5.423135e-03
     vertex 4.049532e+00 4.999535e-01 -6.822398e-03
   endloop
 endfacet
 facet normal 1.950522e-06 9.998869e-01 -1.503888e-02
   outer loop
     vertex 3.950489e+00 4.999513e-01 -6.978352e-03
     vertex 4.049532e+00 4.999535e-01 -6.822398e-03
     vertex 4.049320e+00 4.999325e-01 -8.216427e-03
   endloop
 endfacet
 facet normal -1.739114e-06 9.999194e-01 -1.269611e-02
   outer loop
     vertex 3.950489e+00 4.999513e-01 -6.978352e-03
     vertex 3.950328e+00 4.999673e-01 -5.717973e-03
     vertex 4.049532e+00 4.999535e-01 -6.822398e-03
   endloop
 endfacet
 facet normal -2.237789e-07 9.998843e-01 -1.521241e-02
   outer loop
     vertex 3.950683e+00 4.999322e-01 -8.234250e-03
     vertex 3.950489e+00 4.999513e-01 -6.978352e-03
     vertex 4.049320e+00 4.999325e-01 -8.216427e-03
   endloop
 endfacet
 facet normal 2.292763e-07 9.998430e-01 -1.771908e-02
   outer loop
     vertex 3.950908e+00 4.999100e-01 -9.484869e-03
     vertex 3.950683e+00 4.999322e-01 -8.234250e-03
     vertex 4.049320e+00 4.999325e-01 -8.216427e-03
   endloop
 endfacet
 facet normal 1.541192e-06 9.998412e-01 -1.782083e-02
   outer loop
     vertex 3.950908e+00 4.999100e-01 -9.484869e-03
     vertex 4.049320e+00 4.999325e-01 -8.216427e-03
     vertex 4.049069e+00 4.999078e-01 -9.604112e-03
   endloop
 endfacet
 facet normal -1.367977e-06 9.997957e-01 -2.021479e-02
   outer loop
     vertex 3.951165e+00 4.998849e-01 -1.072941e-02
     vertex 3.950908e+00 4.999100e-01 -9.484869e-03
     vertex 4.049069e+00 4.999078e-01 -9.604112e-03
   endloop
 endfacet
 facet normal 2.938886e-06 9.997880e-01 -2.058934e-02
   outer loop
     vertex 3.951165e+00 4.998849e-01 -1.072941e-02
     vertex 4.049069e+00 4.999078e-01 -9.604112e-03
     vertex 4.048778e+00 4.998793e-01 -1.098435e-02
   endloop
 endfacet
 facet normal -2.569661e-06 9.997424e-01 -2.269752e-02
   outer loop
     vertex 3.951453e+00 4.998568e-01 -1.196709e-02
     vertex 3.951165e+00 4.998849e-01 -1.072941e-02
     vertex 4.048778e+00 4.998793e-01 -1.098435e-02
   endloop
 endfacet
 facet normal 3.939503e-06 9.997275e-01 -2.334181e-02
   outer loop
     vertex 3.951453e+00 4.998568e-01 -1.196709e-02
     vertex 4.048778e+00 4.998793e-01 -1.098435e-02
     vertex 4.048449e+00 4.998473e-01 -1.235605e-02
   endloop
 endfacet
 facet normal -3.378517e-06 9.996833e-01 -2.516565e-02
   outer loop
     vertex 3.951773e+00 4.998258e-01 -1.319712e-02
     vertex 3.951453e+00 4.998568e-01 -1.196709e-02
     vertex 4.048449e+00 4.998473e-01 -1.235605e-02
   endloop
 endfacet
 facet normal 4.546621e-06 9.996600e-01 -2.607600e-02
   outer loop
     vertex 3.951773e+00 4.998258e-01 -1.319712e-02
     vertex 4.048449e+00 4.998473e-01 -1.235605e-02
     vertex 4.048081e+00 4.998118e-01 -1.371812e-02
   endloop
 endfacet
 facet normal -3.798872e-06 9.996186e-01 -2.761757e-02
   outer loop
     vertex 3.952124e+00 4.997921e-01 -1.441870e-02
     vertex 3.951773e+00 4.998258e-01 -1.319712e-02
     vertex 4.048081e+00 4.998118e-01 -1.371812e-02
   endloop
 endfacet
 facet normal 4.765752e-06 9.995855e-01 -2.878971e-02
   outer loop
     vertex 3.952124e+00 4.997921e-01 -1.441870e-02
     vertex 4.048081e+00 4.998118e-01 -1.371812e-02
     vertex 4.047675e+00 4.997729e-01 -1.506947e-02
   endloop
 endfacet
 facet normal -3.836625e-06 9.995483e-01 -3.005169e-02
   outer loop
     vertex 3.952506e+00 4.997556e-01 -1.563107e-02
     vertex 3.952124e+00 4.997921e-01 -1.441870e-02
     vertex 4.047675e+00 4.997729e-01 -1.506947e-02
   endloop
 endfacet
 facet normal 4.604315e-06 9.995044e-01 -3.148074e-02
   outer loop
     vertex 3.952506e+00 4.997556e-01 -1.563107e-02
     vertex 4.047675e+00 4.997729e-01 -1.506947e-02
     vertex 4.047231e+00 4.997307e-01 -1.640903e-02
   endloop
 endfacet
 facet normal -3.499225e-06 9.994728e-01 -3.246642e-02
   outer loop
     vertex 3.952919e+00 4.997166e-01 -1.683345e-02
     vertex 3.952506e+00 4.997556e-01 -1.563107e-02
     vertex 4.047231e+00 4.997307e-01 -1.640903e-02
   endloop
 endfacet
 facet normal 4.071621e-06 9.994168e-01 -3.414690e-02
   outer loop
     vertex 3.952919e+00 4.997166e-01 -1.683345e-02
     vertex 4.047231e+00 4.997307e-01 -1.640903e-02
     vertex 4.046749e+00 4.996853e-01 -1.773572e-02
   endloop
 endfacet
 facet normal -2.795659e-06 9.993922e-01 -3.486020e-02
   outer loop
     vertex 3.953362e+00 4.996750e-01 -1.802506e-02
     vertex 3.952919e+00 4.997166e-01 -1.683345e-02
     vertex 4.046749e+00 4.996853e-01 -1.773572e-02
   endloop
 endfacet
 facet normal 3.178851e-06 9.993232e-01 -3.678604e-02
   outer loop
     vertex 3.953362e+00 4.996750e-01 -1.802506e-02
     vertex 4.046749e+00 4.996853e-01 -1.773572e-02
     vertex 4.046229e+00 4.996370e-01 -1.904848e-02
   endloop
 endfacet
 facet normal -1.736444e-06 9.993067e-01 -3.723145e-02
   outer loop
     vertex 3.953835e+00 4.996310e-01 -1.920514e-02
     vertex 3.953362e+00 4.996750e-01 -1.802506e-02
     vertex 4.046229e+00 4.996370e-01 -1.904848e-02
   endloop
 endfacet
 facet normal 1.939040e-06 9.992237e-01 -3.939603e-02
   outer loop
     vertex 3.953835e+00 4.996310e-01 -1.920514e-02
     vertex 4.046229e+00 4.996370e-01 -1.904848e-02
     vertex 4.045673e+00 4.995859e-01 -2.034626e-02
   endloop
 endfacet
 facet normal -3.336086e-07 9.992165e-01 -3.957864e-02
   outer loop
     vertex 3.954339e+00 4.995848e-01 -2.037292e-02
     vertex 3.953835e+00 4.996310e-01 -1.920514e-02
     vertex 4.045673e+00 4.995859e-01 -2.034626e-02
   endloop
 endfacet
 facet normal 3.454117e-07 9.991218e-01 -4.190072e-02
   outer loop
     vertex 3.954872e+00 4.995363e-01 -2.152766e-02
     vertex 3.954339e+00 4.995848e-01 -2.037292e-02
     vertex 4.045673e+00 4.995859e-01 -2.034626e-02
   endloop
 endfacet
 facet normal 1.315803e-06 9.991187e-01 -4.197517e-02
   outer loop
     vertex 3.954872e+00 4.995363e-01 -2.152766e-02
     vertex 4.045673e+00 4.995859e-01 -2.034626e-02
     vertex 4.045080e+00 4.995320e-01 -2.162800e-02
   endloop
 endfacet
 facet normal -1.160323e-06 9.990228e-01 -4.419697e-02
   outer loop
     vertex 3.955434e+00 4.994859e-01 -2.266859e-02
     vertex 3.954872e+00 4.995363e-01 -2.152766e-02
     vertex 4.045080e+00 4.995320e-01 -2.162800e-02
   endloop
 endfacet
 facet normal 2.621398e-06 9.990084e-01 -4.452212e-02
   outer loop
     vertex 3.955434e+00 4.994859e-01 -2.266859e-02
     vertex 4.045080e+00 4.995320e-01 -2.162800e-02
     vertex 4.044451e+00 4.994756e-01 -2.289268e-02
   endloop
 endfacet
 facet normal -2.279140e-06 9.989199e-01 -4.646476e-02
   outer loop
     vertex 3.956025e+00 4.994335e-01 -2.379499e-02
     vertex 3.955434e+00 4.994859e-01 -2.266859e-02
     vertex 4.044451e+00 4.994756e-01 -2.289268e-02
   endloop
 endfacet
 facet normal 3.539974e-06 9.988933e-01 -4.703380e-02
   outer loop
     vertex 3.956025e+00 4.994335e-01 -2.379499e-02
     vertex 4.044451e+00 4.994756e-01 -2.289268e-02
     vertex 4.043787e+00 4.994170e-01 -2.413927e-02
   endloop
 endfacet
endsolid shape
