solid shape, STL ascii file, created with Open CASCADE Technology
 facet normal -5.411237e-07 8.565853e-01 5.160055e-01
   outer loop
     vertex 2.515715e+00 7.109585e-02 4.282966e-02
     vertex 2.514836e+00 7.110229e-02 4.281897e-02
     vertex 2.514039e+00 7.109037e-02 4.283876e-02
   endloop
 endfacet
 facet normal 1.465596e-06 8.564219e-01 5.162766e-01
   outer loop
     vertex 2.516590e+00 7.106897e-02 4.287425e-02
     vertex 2.515715e+00 7.109585e-02 4.282966e-02
     vertex 2.514039e+00 7.109037e-02 4.283876e-02
   endloop
 endfacet
 facet normal -1.059371e-06 8.563416e-01 5.164097e-01
   outer loop
     vertex 2.516590e+00 7.106897e-02 4.287425e-02
     vertex 2.514039e+00 7.109037e-02 4.283876e-02
     vertex 2.513244e+00 7.106156e-02 4.288653e-02
   endloop
 endfacet
 facet normal 1.977276e-06 8.559757e-01 5.170161e-01
   outer loop
     vertex 2.517463e+00 7.102163e-02 4.295262e-02
     vertex 2.516590e+00 7.106897e-02 4.287425e-02
     vertex 2.513244e+00 7.106156e-02 4.288653e-02
   endloop
 endfacet
 facet normal -9.883370e-07 8.558919e-01 5.171548e-01
   outer loop
     vertex 2.517463e+00 7.102163e-02 4.295262e-02
     vertex 2.513244e+00 7.106156e-02 4.288653e-02
     vertex 2.512451e+00 7.101584e-02 4.296220e-02
   endloop
 endfacet
 facet normal 1.652211e-06 8.552800e-01 5.181661e-01
   outer loop
     vertex 2.518331e+00 7.095379e-02 4.306459e-02
     vertex 2.517463e+00 7.102163e-02 4.295262e-02
     vertex 2.512451e+00 7.101584e-02 4.296220e-02
   endloop
 endfacet
 facet normal 2.189998e-07 8.543785e-01 5.196512e-01
   outer loop
     vertex 2.518331e+00 7.095379e-02 4.306459e-02
     vertex 2.511662e+00 7.095318e-02 4.306561e-02
     vertex 2.510878e+00 7.087352e-02 4.319657e-02
   endloop
 endfacet
 facet normal -7.597518e-08 8.552360e-01 5.182387e-01
   outer loop
     vertex 2.518331e+00 7.095379e-02 4.306459e-02
     vertex 2.512451e+00 7.101584e-02 4.296220e-02
     vertex 2.511662e+00 7.095318e-02 4.306561e-02
   endloop
 endfacet
 facet normal -1.876981e-06 8.533210e-01 5.213859e-01
   outer loop
     vertex 2.519194e+00 7.086538e-02 4.320992e-02
     vertex 2.510878e+00 7.087352e-02 4.319657e-02
     vertex 2.510099e+00 7.077682e-02 4.335483e-02
   endloop
 endfacet
 facet normal 1.798890e-06 8.543389e-01 5.197163e-01
   outer loop
     vertex 2.519194e+00 7.086538e-02 4.320992e-02
     vertex 2.518331e+00 7.095379e-02 4.306459e-02
     vertex 2.510878e+00 7.087352e-02 4.319657e-02
   endloop
 endfacet
 facet normal -4.163297e-06 8.520565e-01 5.234498e-01
   outer loop
     vertex 2.520049e+00 7.075633e-02 4.338827e-02
     vertex 2.510099e+00 7.077682e-02 4.335483e-02
     vertex 2.509328e+00 7.066302e-02 4.354007e-02
   endloop
 endfacet
 facet normal 4.113499e-06 8.531537e-01 5.216596e-01
   outer loop
     vertex 2.520049e+00 7.075633e-02 4.338827e-02
     vertex 2.519194e+00 7.086538e-02 4.320992e-02
     vertex 2.510099e+00 7.077682e-02 4.335483e-02
   endloop
 endfacet
 facet normal -6.388695e-06 8.505845e-01 5.258384e-01
   outer loop
     vertex 2.520896e+00 7.062654e-02 4.359922e-02
     vertex 2.509328e+00 7.066302e-02 4.354007e-02
     vertex 2.508565e+00 7.053206e-02 4.375190e-02
   endloop
 endfacet
 facet normal 6.584037e-06 8.517178e-01 5.240007e-01
   outer loop
     vertex 2.520896e+00 7.062654e-02 4.359922e-02
     vertex 2.520049e+00 7.075633e-02 4.338827e-02
     vertex 2.509328e+00 7.066302e-02 4.354007e-02
   endloop
 endfacet
 facet normal -8.304916e-06 8.489043e-01 5.285466e-01
   outer loop
     vertex 2.521732e+00 7.047592e-02 4.384227e-02
     vertex 2.508565e+00 7.053206e-02 4.375190e-02
     vertex 2.507811e+00 7.038388e-02 4.398988e-02
   endloop
 endfacet
 facet normal 8.939357e-06 8.500304e-01 5.267336e-01
   outer loop
     vertex 2.521732e+00 7.047592e-02 4.384227e-02
     vertex 2.520896e+00 7.062654e-02 4.359922e-02
     vertex 2.508565e+00 7.053206e-02 4.375190e-02
   endloop
 endfacet
 facet normal -9.666782e-06 8.470154e-01 5.315684e-01
   outer loop
     vertex 2.522557e+00 7.030439e-02 4.411680e-02
     vertex 2.507811e+00 7.038388e-02 4.398988e-02
     vertex 2.507068e+00 7.021843e-02 4.425350e-02
   endloop
 endfacet
 facet normal 1.090874e-05 8.480906e-01 5.298513e-01
   outer loop
     vertex 2.522557e+00 7.030439e-02 4.411680e-02
     vertex 2.521732e+00 7.047592e-02 4.384227e-02
     vertex 2.507811e+00 7.038388e-02 4.398988e-02
   endloop
 endfacet
 facet normal -1.023264e-05 8.449174e-01 5.348969e-01
   outer loop
     vertex 2.523368e+00 7.011188e-02 4.442212e-02
     vertex 2.507068e+00 7.021843e-02 4.425350e-02
     vertex 2.506337e+00 7.003568e-02 4.454216e-02
   endloop
 endfacet
 facet normal 1.222303e-05 8.458975e-01 5.333456e-01
   outer loop
     vertex 2.523368e+00 7.011188e-02 4.442212e-02
     vertex 2.522557e+00 7.030439e-02 4.411680e-02
     vertex 2.507068e+00 7.021843e-02 4.425350e-02
   endloop
 endfacet
 facet normal -9.765227e-06 8.426099e-01 5.385244e-01
   outer loop
     vertex 2.524163e+00 6.989831e-02 4.475742e-02
     vertex 2.506337e+00 7.003568e-02 4.454216e-02
     vertex 2.505620e+00 6.983560e-02 4.485519e-02
   endloop
 endfacet
 facet normal 1.261615e-05 8.434503e-01 5.372072e-01
   outer loop
     vertex 2.524163e+00 6.989831e-02 4.475742e-02
     vertex 2.523368e+00 7.011188e-02 4.442212e-02
     vertex 2.506337e+00 7.003568e-02 4.454216e-02
   endloop
 endfacet
 facet normal 1.182720e-05 8.407486e-01 5.414258e-01
   outer loop
     vertex 2.524942e+00 6.966366e-02 4.512177e-02
     vertex 2.524163e+00 6.989831e-02 4.475742e-02
     vertex 2.505620e+00 6.983560e-02 4.485519e-02
   endloop
 endfacet
 facet normal -8.033024e-06 8.400930e-01 5.424425e-01
   outer loop
     vertex 2.524942e+00 6.966366e-02 4.512177e-02
     vertex 2.505620e+00 6.983560e-02 4.485519e-02
     vertex 2.504917e+00 6.961821e-02 4.519186e-02
   endloop
 endfacet
 facet normal 9.603008e-06 8.377921e-01 5.459894e-01
   outer loop
     vertex 2.525703e+00 6.940793e-02 4.551416e-02
     vertex 2.524942e+00 6.966366e-02 4.512177e-02
     vertex 2.504917e+00 6.961821e-02 4.519186e-02
   endloop
 endfacet
 facet normal -4.812029e-06 8.373667e-01 5.466416e-01
   outer loop
     vertex 2.525703e+00 6.940793e-02 4.551416e-02
     vertex 2.504917e+00 6.961821e-02 4.519186e-02
     vertex 2.504229e+00 6.938353e-02 4.555135e-02
   endloop
 endfacet
 facet normal 5.701147e-06 8.345811e-01 5.508851e-01
   outer loop
     vertex 2.526443e+00 6.913116e-02 4.593345e-02
     vertex 2.525703e+00 6.940793e-02 4.551416e-02
     vertex 2.504229e+00 6.938353e-02 4.555135e-02
   endloop
 endfacet
 facet normal -9.499539e-08 8.312942e-01 5.558327e-01
   outer loop
     vertex 2.526443e+00 6.913116e-02 4.593345e-02
     vertex 2.503559e+00 6.913163e-02 4.593276e-02
     vertex 2.502906e+00 6.886258e-02 4.633514e-02
   endloop
 endfacet
 facet normal 1.120566e-07 8.344317e-01 5.511114e-01
   outer loop
     vertex 2.526443e+00 6.913116e-02 4.593345e-02
     vertex 2.504229e+00 6.938353e-02 4.555135e-02
     vertex 2.503559e+00 6.913163e-02 4.593276e-02
   endloop
 endfacet
 facet normal 6.292595e-06 8.311212e-01 5.560914e-01
   outer loop
     vertex 2.527161e+00 6.883344e-02 4.637841e-02
     vertex 2.526443e+00 6.913116e-02 4.593345e-02
     vertex 2.502906e+00 6.886258e-02 4.633514e-02
   endloop
 endfacet
 facet normal -5.902740e-06 8.279547e-01 5.607949e-01
   outer loop
     vertex 2.527161e+00 6.883344e-02 4.637841e-02
     vertex 2.502906e+00 6.886258e-02 4.633514e-02
     vertex 2.502273e+00 6.857653e-02 4.675745e-02
   endloop
 endfacet
 facet normal 1.185647e-05 8.274131e-01 5.615938e-01
   outer loop
     vertex 2.527856e+00 6.851492e-02 4.684768e-02
     vertex 2.527161e+00 6.883344e-02 4.637841e-02
     vertex 2.502273e+00 6.857653e-02 4.675745e-02
   endloop
 endfacet
 facet normal -1.089058e-05 8.244103e-01 5.659927e-01
   outer loop
     vertex 2.527856e+00 6.851492e-02 4.684768e-02
     vertex 2.502273e+00 6.857653e-02 4.675745e-02
     vertex 2.501661e+00 6.827364e-02 4.719862e-02
   endloop
 endfacet
 facet normal 1.653701e-05 8.234543e-01 5.673826e-01
   outer loop
     vertex 2.528525e+00 6.817579e-02 4.733985e-02
     vertex 2.527856e+00 6.851492e-02 4.684768e-02
     vertex 2.501661e+00 6.827364e-02 4.719862e-02
   endloop
 endfacet
 facet normal -1.481586e-05 8.206630e-01 5.714125e-01
   outer loop
     vertex 2.528525e+00 6.817579e-02 4.733985e-02
     vertex 2.501661e+00 6.827364e-02 4.719862e-02
     vertex 2.501071e+00 6.795411e-02 4.765751e-02
   endloop
 endfacet
 facet normal 2.007089e-05 8.192476e-01 5.734399e-01
   outer loop
     vertex 2.529168e+00 6.781631e-02 4.785340e-02
     vertex 2.528525e+00 6.817579e-02 4.733985e-02
     vertex 2.501071e+00 6.795411e-02 4.765751e-02
   endloop
 endfacet
 facet normal -1.744769e-05 8.167157e-01 5.770403e-01
   outer loop
     vertex 2.529168e+00 6.781631e-02 4.785340e-02
     vertex 2.501071e+00 6.795411e-02 4.765751e-02
     vertex 2.500503e+00 6.761819e-02 4.813294e-02
   endloop
 endfacet
 facet normal 2.221141e-05 8.147965e-01 5.797470e-01
   outer loop
     vertex 2.529783e+00 6.743680e-02 4.838675e-02
     vertex 2.529168e+00 6.781631e-02 4.785340e-02
     vertex 2.500503e+00 6.761819e-02 4.813294e-02
   endloop
 endfacet
 facet normal -1.857000e-05 8.125715e-01 5.828615e-01
   outer loop
     vertex 2.529783e+00 6.743680e-02 4.838675e-02
     vertex 2.500503e+00 6.761819e-02 4.813294e-02
     vertex 2.499959e+00 6.726617e-02 4.862369e-02
   endloop
 endfacet
 facet normal 2.273174e-05 8.101054e-01 5.862843e-01
   outer loop
     vertex 2.530369e+00 6.703764e-02 4.893827e-02
     vertex 2.529783e+00 6.743680e-02 4.838675e-02
     vertex 2.499959e+00 6.726617e-02 4.862369e-02
   endloop
 endfacet
 facet normal -1.798433e-05 8.082343e-01 5.888610e-01
   outer loop
     vertex 2.530369e+00 6.703764e-02 4.893827e-02
     vertex 2.499959e+00 6.726617e-02 4.862369e-02
     vertex 2.499440e+00 6.689835e-02 4.912851e-02
   endloop
 endfacet
 facet normal 2.142757e-05 8.051792e-01 5.930316e-01
   outer loop
     vertex 2.530924e+00 6.661927e-02 4.950629e-02
     vertex 2.530369e+00 6.703764e-02 4.893827e-02
     vertex 2.499440e+00 6.689835e-02 4.912851e-02
   endloop
 endfacet
 facet normal -1.551202e-05 8.037083e-01 5.950235e-01
   outer loop
     vertex 2.530924e+00 6.661927e-02 4.950629e-02
     vertex 2.499440e+00 6.689835e-02 4.912851e-02
     vertex 2.498946e+00 6.651510e-02 4.964616e-02
   endloop
 endfacet
 facet normal 1.811874e-05 8.000238e-01 5.999683e-01
   outer loop
     vertex 2.531447e+00 6.618218e-02 5.008912e-02
     vertex 2.530924e+00 6.661927e-02 4.950629e-02
     vertex 2.498946e+00 6.651510e-02 4.964616e-02
   endloop
 endfacet
 facet normal -1.099576e-05 7.989981e-01 6.013336e-01
   outer loop
     vertex 2.531447e+00 6.618218e-02 5.008912e-02
     vertex 2.498946e+00 6.651510e-02 4.964616e-02
     vertex 2.498479e+00 6.611681e-02 5.017536e-02
   endloop
 endfacet
 facet normal 1.264988e-05 7.946456e-01 6.070736e-01
   outer loop
     vertex 2.531937e+00 6.572691e-02 5.068504e-02
     vertex 2.531447e+00 6.618218e-02 5.008912e-02
     vertex 2.498479e+00 6.611681e-02 5.017536e-02
   endloop
 endfacet
 facet normal -4.300469e-06 7.941088e-01 6.077756e-01
   outer loop
     vertex 2.531937e+00 6.572691e-02 5.068504e-02
     vertex 2.498479e+00 6.611681e-02 5.017536e-02
     vertex 2.498039e+00 6.570391e-02 5.071485e-02
   endloop
 endfacet
 facet normal -4.291651e-06 7.838223e-01 6.209852e-01
   outer loop
     vertex 2.532394e+00 6.525406e-02 5.129237e-02
     vertex 2.497627e+00 6.527687e-02 5.126334e-02
     vertex 2.497244e+00 6.483617e-02 5.181960e-02
   endloop
 endfacet
 facet normal 4.686678e-06 7.890460e-01 6.143341e-01
   outer loop
     vertex 2.532394e+00 6.525406e-02 5.129237e-02
     vertex 2.498039e+00 6.570391e-02 5.071485e-02
     vertex 2.497627e+00 6.527687e-02 5.126334e-02
   endloop
 endfacet
 facet normal 4.889959e-06 7.890519e-01 6.143266e-01
   outer loop
     vertex 2.532394e+00 6.525406e-02 5.129237e-02
     vertex 2.531937e+00 6.572691e-02 5.068504e-02
     vertex 2.498039e+00 6.570391e-02 5.071485e-02
   endloop
 endfacet
 facet normal 1.314609e-05 7.832562e-01 6.216990e-01
   outer loop
     vertex 2.532815e+00 6.476429e-02 5.190941e-02
     vertex 2.532394e+00 6.525406e-02 5.129237e-02
     vertex 2.497244e+00 6.483617e-02 5.181960e-02
   endloop
 endfacet
 facet normal -1.180406e-05 7.784363e-01 6.277237e-01
   outer loop
     vertex 2.532815e+00 6.476429e-02 5.190941e-02
     vertex 2.497244e+00 6.483617e-02 5.181960e-02
     vertex 2.496889e+00 6.438236e-02 5.238236e-02
   endloop
 endfacet
 facet normal 1.987061e-05 7.772599e-01 6.291797e-01
   outer loop
     vertex 2.533201e+00 6.425828e-02 5.253449e-02
     vertex 2.532815e+00 6.476429e-02 5.190941e-02
     vertex 2.496889e+00 6.438236e-02 5.238236e-02
   endloop
 endfacet
 facet normal -1.747010e-05 7.728957e-01 6.345331e-01
   outer loop
     vertex 2.533201e+00 6.425828e-02 5.253449e-02
     vertex 2.496889e+00 6.438236e-02 5.238236e-02
     vertex 2.496564e+00 6.391624e-02 5.295011e-02
   endloop
 endfacet
 facet normal -2.117955e-05 7.672082e-01 6.413982e-01
   outer loop
     vertex 2.533551e+00 6.373679e-02 5.316599e-02
     vertex 2.496564e+00 6.391624e-02 5.295011e-02
     vertex 2.496269e+00 6.343817e-02 5.352194e-02
   endloop
 endfacet
 facet normal 2.469943e-05 7.710713e-01 6.367489e-01
   outer loop
     vertex 2.533551e+00 6.373679e-02 5.316599e-02
     vertex 2.533201e+00 6.425828e-02 5.253449e-02
     vertex 2.496564e+00 6.391624e-02 5.295011e-02
   endloop
 endfacet
 facet normal -2.278859e-05 7.613790e-01 6.483070e-01
   outer loop
     vertex 2.533864e+00 6.320052e-02 5.380236e-02
     vertex 2.496269e+00 6.343817e-02 5.352194e-02
     vertex 2.496005e+00 6.294858e-02 5.409691e-02
   endloop
 endfacet
 facet normal 2.744593e-05 7.646998e-01 6.443867e-01
   outer loop
     vertex 2.533864e+00 6.320052e-02 5.380236e-02
     vertex 2.533551e+00 6.373679e-02 5.316599e-02
     vertex 2.496269e+00 6.343817e-02 5.352194e-02
   endloop
 endfacet
 facet normal -2.220551e-05 7.554142e-01 6.552476e-01
   outer loop
     vertex 2.534139e+00 6.264998e-02 5.444246e-02
     vertex 2.496005e+00 6.294858e-02 5.409691e-02
     vertex 2.495770e+00 6.244808e-02 5.467392e-02
   endloop
 endfacet
 facet normal 2.799150e-05 7.581541e-01 6.520754e-01
   outer loop
     vertex 2.534139e+00 6.264998e-02 5.444246e-02
     vertex 2.533864e+00 6.320052e-02 5.380236e-02
     vertex 2.496005e+00 6.294858e-02 5.409691e-02
   endloop
 endfacet
 facet normal -1.922688e-05 7.493211e-01 6.622068e-01
   outer loop
     vertex 2.534377e+00 6.208654e-02 5.508414e-02
     vertex 2.495770e+00 6.244808e-02 5.467392e-02
     vertex 2.495567e+00 6.193729e-02 5.525190e-02
   endloop
 endfacet
 facet normal 2.617646e-05 7.514401e-01 6.598013e-01
   outer loop
     vertex 2.534377e+00 6.208654e-02 5.508414e-02
     vertex 2.534139e+00 6.264998e-02 5.444246e-02
     vertex 2.495770e+00 6.244808e-02 5.467392e-02
   endloop
 endfacet
 facet normal -1.379402e-05 7.431075e-01 6.691720e-01
   outer loop
     vertex 2.534577e+00 6.151089e-02 5.572621e-02
     vertex 2.495567e+00 6.193729e-02 5.525190e-02
     vertex 2.495394e+00 6.141685e-02 5.582984e-02
   endloop
 endfacet
 facet normal 2.208012e-05 7.445740e-01 6.675399e-01
   outer loop
     vertex 2.534577e+00 6.151089e-02 5.572621e-02
     vertex 2.534377e+00 6.208654e-02 5.508414e-02
     vertex 2.495567e+00 6.193729e-02 5.525190e-02
   endloop
 endfacet
 facet normal -1.377373e-05 7.367824e-01 6.761299e-01
   outer loop
     vertex 2.534724e+00 6.098306e-02 5.630334e-02
     vertex 2.495394e+00 6.141685e-02 5.582984e-02
     vertex 2.495253e+00 6.088740e-02 5.640678e-02
   endloop
 endfacet
 facet normal 1.376588e-05 7.379218e-01 6.748862e-01
   outer loop
     vertex 2.534724e+00 6.098306e-02 5.630334e-02
     vertex 2.534577e+00 6.151089e-02 5.572621e-02
     vertex 2.495394e+00 6.141685e-02 5.582984e-02
   endloop
 endfacet
 facet normal -1.374612e-05 7.303529e-01 6.830700e-01
   outer loop
     vertex 2.534840e+00 6.044668e-02 5.687880e-02
     vertex 2.495253e+00 6.088740e-02 5.640678e-02
     vertex 2.495142e+00 6.034963e-02 5.698177e-02
   endloop
 endfacet
 facet normal 1.393660e-05 7.315110e-01 6.818296e-01
   outer loop
     vertex 2.534840e+00 6.044668e-02 5.687880e-02
     vertex 2.534724e+00 6.098306e-02 5.630334e-02
     vertex 2.495253e+00 6.088740e-02 5.640678e-02
   endloop
 endfacet
 facet normal -1.374818e-05 7.238274e-01 6.899810e-01
   outer loop
     vertex 2.534925e+00 5.990249e-02 5.745163e-02
     vertex 2.495142e+00 6.034963e-02 5.698177e-02
     vertex 2.495063e+00 5.980424e-02 5.755392e-02
   endloop
 endfacet
 facet normal 1.405458e-05 7.250030e-01 6.887457e-01
   outer loop
     vertex 2.534925e+00 5.990249e-02 5.745163e-02
     vertex 2.534840e+00 6.044668e-02 5.687880e-02
     vertex 2.495142e+00 6.034963e-02 5.698177e-02
   endloop
 endfacet
 facet normal -1.379558e-05 7.172145e-01 6.968525e-01
   outer loop
     vertex 2.534978e+00 5.935126e-02 5.802092e-02
     vertex 2.495063e+00 5.980424e-02 5.755392e-02
     vertex 2.495016e+00 5.925194e-02 5.812235e-02
   endloop
 endfacet
 facet normal 1.409570e-05 7.184059e-01 6.956242e-01
   outer loop
     vertex 2.534978e+00 5.935126e-02 5.802092e-02
     vertex 2.534925e+00 5.990249e-02 5.745163e-02
     vertex 2.495063e+00 5.980424e-02 5.755392e-02
   endloop
 endfacet
 facet normal -1.388183e-05 7.105230e-01 7.036740e-01
   outer loop
     vertex 2.534999e+00 5.879377e-02 5.858576e-02
     vertex 2.495016e+00 5.925194e-02 5.812235e-02
     vertex 2.495000e+00 5.869349e-02 5.868623e-02
   endloop
 endfacet
 facet normal 1.405974e-05 7.117283e-01 7.024549e-01
   outer loop
     vertex 2.534999e+00 5.879377e-02 5.858576e-02
     vertex 2.534978e+00 5.935126e-02 5.802092e-02
     vertex 2.495016e+00 5.925194e-02 5.812235e-02
   endloop
 endfacet
 facet normal 1.396690e-05 7.049792e-01 7.092280e-01
   outer loop
     vertex 2.534990e+00 5.823084e-02 5.914533e-02
     vertex 2.534999e+00 5.879377e-02 5.858576e-02
     vertex 2.495000e+00 5.869349e-02 5.868623e-02
   endloop
 endfacet
 facet normal -1.398336e-05 7.037619e-01 7.104359e-01
   outer loop
     vertex 2.534990e+00 5.823084e-02 5.914533e-02
     vertex 2.495000e+00 5.869349e-02 5.868623e-02
     vertex 2.495016e+00 5.812967e-02 5.924476e-02
   endloop
 endfacet
 facet normal 1.384974e-05 6.981681e-01 7.159339e-01
   outer loop
     vertex 2.534948e+00 5.766326e-02 5.969882e-02
     vertex 2.534990e+00 5.823084e-02 5.914533e-02
     vertex 2.495016e+00 5.812967e-02 5.924476e-02
   endloop
 endfacet
 facet normal -1.406795e-05 6.969409e-01 7.171286e-01
   outer loop
     vertex 2.534948e+00 5.766326e-02 5.969882e-02
     vertex 2.495016e+00 5.812967e-02 5.924476e-02
     vertex 2.495063e+00 5.756127e-02 5.979716e-02
   endloop
 endfacet
 facet normal 1.374299e-05 6.913049e-01 7.225632e-01
   outer loop
     vertex 2.534875e+00 5.709188e-02 6.024549e-02
     vertex 2.534948e+00 5.766326e-02 5.969882e-02
     vertex 2.495063e+00 5.756127e-02 5.979716e-02
   endloop
 endfacet
 facet normal -1.410423e-05 6.900698e-01 7.237429e-01
   outer loop
     vertex 2.534875e+00 5.709188e-02 6.024549e-02
     vertex 2.495063e+00 5.756127e-02 5.979716e-02
     vertex 2.495141e+00 5.698914e-02 6.034267e-02
   endloop
 endfacet
 facet normal 1.367323e-05 6.844001e-01 7.291067e-01
   outer loop
     vertex 2.534771e+00 5.651752e-02 6.078463e-02
     vertex 2.534875e+00 5.709188e-02 6.024549e-02
     vertex 2.495141e+00 5.698914e-02 6.034267e-02
   endloop
 endfacet
 facet normal -1.407053e-05 6.831588e-01 7.302698e-01
   outer loop
     vertex 2.534771e+00 5.651752e-02 6.078463e-02
     vertex 2.495141e+00 5.698914e-02 6.034267e-02
     vertex 2.495251e+00 5.641417e-02 6.088056e-02
   endloop
 endfacet
 facet normal 1.551766e-05 6.770795e-01 7.359099e-01
   outer loop
     vertex 2.534619e+00 5.587690e-02 6.137404e-02
     vertex 2.534771e+00 5.651752e-02 6.078463e-02
     vertex 2.495251e+00 5.641417e-02 6.088056e-02
   endloop
 endfacet
 facet normal -6.112811e-06 6.762200e-01 7.366997e-01
   outer loop
     vertex 2.534619e+00 5.587690e-02 6.137404e-02
     vertex 2.495251e+00 5.641417e-02 6.088056e-02
     vertex 2.495392e+00 5.583726e-02 6.141010e-02
   endloop
 endfacet
 facet normal 6.570423e-06 6.693521e-01 7.429453e-01
   outer loop
     vertex 2.534428e+00 5.523490e-02 6.195245e-02
     vertex 2.534619e+00 5.587690e-02 6.137404e-02
     vertex 2.495392e+00 5.583726e-02 6.141010e-02
   endloop
 endfacet
 facet normal -6.684788e-06 6.688777e-01 7.433725e-01
   outer loop
     vertex 2.534428e+00 5.523490e-02 6.195245e-02
     vertex 2.495392e+00 5.583726e-02 6.141010e-02
     vertex 2.495585e+00 5.519516e-02 6.198786e-02
   endloop
 endfacet
 facet normal 6.641413e-06 6.616166e-01 7.498423e-01
   outer loop
     vertex 2.534199e+00 5.459280e-02 6.251900e-02
     vertex 2.534428e+00 5.523490e-02 6.195245e-02
     vertex 2.495585e+00 5.519516e-02 6.198786e-02
   endloop
 endfacet
 facet normal -6.508470e-06 6.611424e-01 7.502604e-01
   outer loop
     vertex 2.534199e+00 5.459280e-02 6.251900e-02
     vertex 2.495585e+00 5.519516e-02 6.198786e-02
     vertex 2.495817e+00 5.455327e-02 6.255350e-02
   endloop
 endfacet
 facet normal 6.650045e-06 6.538906e-01 7.565891e-01
   outer loop
     vertex 2.533932e+00 5.395201e-02 6.307281e-02
     vertex 2.534199e+00 5.459280e-02 6.251900e-02
     vertex 2.495817e+00 5.455327e-02 6.255350e-02
   endloop
 endfacet
 facet normal -6.350979e-06 6.534186e-01 7.569968e-01
   outer loop
     vertex 2.533932e+00 5.395201e-02 6.307281e-02
     vertex 2.495817e+00 5.455327e-02 6.255350e-02
     vertex 2.496086e+00 5.391305e-02 6.310613e-02
   endloop
 endfacet
 facet normal -6.234905e-06 6.457238e-01 7.635710e-01
   outer loop
     vertex 2.533627e+00 5.331406e-02 6.361297e-02
     vertex 2.496086e+00 5.391305e-02 6.310613e-02
     vertex 2.496392e+00 5.327605e-02 6.364481e-02
   endloop
 endfacet
 facet normal 6.532032e-06 6.461901e-01 7.631765e-01
   outer loop
     vertex 2.533627e+00 5.331406e-02 6.361297e-02
     vertex 2.533932e+00 5.395201e-02 6.307281e-02
     vertex 2.496086e+00 5.391305e-02 6.310613e-02
   endloop
 endfacet
 facet normal -1.476190e-05 6.380727e-01 7.699762e-01
   outer loop
     vertex 2.533321e+00 5.274376e-02 6.408663e-02
     vertex 2.496392e+00 5.327605e-02 6.364481e-02
     vertex 2.496736e+00 5.264360e-02 6.416892e-02
   endloop
 endfacet
 facet normal 5.605195e-06 6.389094e-01 7.692819e-01
   outer loop
     vertex 2.533321e+00 5.274376e-02 6.408663e-02
     vertex 2.533627e+00 5.331406e-02 6.361297e-02
     vertex 2.496392e+00 5.327605e-02 6.364481e-02
   endloop
 endfacet
 facet normal -2.073058e-05 6.304868e-01 7.762000e-01
   outer loop
     vertex 2.532986e+00 5.217764e-02 6.454838e-02
     vertex 2.496736e+00 5.264360e-02 6.416892e-02
     vertex 2.497115e+00 5.201729e-02 6.467768e-02
   endloop
 endfacet
 facet normal 1.283075e-05 6.320569e-01 7.749220e-01
   outer loop
     vertex 2.532986e+00 5.217764e-02 6.454838e-02
     vertex 2.533321e+00 5.274376e-02 6.408663e-02
     vertex 2.496736e+00 5.264360e-02 6.416892e-02
   endloop
 endfacet
 facet normal -2.435581e-05 6.229852e-01 7.822336e-01
   outer loop
     vertex 2.532621e+00 5.161727e-02 6.499736e-02
     vertex 2.497115e+00 5.201729e-02 6.467768e-02
     vertex 2.497531e+00 5.139873e-02 6.517032e-02
   endloop
 endfacet
 facet normal 1.777735e-05 6.252677e-01 7.804103e-01
   outer loop
     vertex 2.532621e+00 5.161727e-02 6.499736e-02
     vertex 2.532986e+00 5.217764e-02 6.454838e-02
     vertex 2.497115e+00 5.201729e-02 6.467768e-02
   endloop
 endfacet
 facet normal -2.578620e-05 6.155877e-01 7.880684e-01
   outer loop
     vertex 2.532227e+00 5.106384e-02 6.543305e-02
     vertex 2.497531e+00 5.139873e-02 6.517032e-02
     vertex 2.497981e+00 5.078960e-02 6.564615e-02
   endloop
 endfacet
 facet normal 2.050539e-05 6.185570e-01 7.857399e-01
   outer loop
     vertex 2.532227e+00 5.106384e-02 6.543305e-02
     vertex 2.532621e+00 5.161727e-02 6.499736e-02
     vertex 2.497531e+00 5.139873e-02 6.517032e-02
   endloop
 endfacet
 facet normal -2.516799e-05 6.083144e-01 7.936961e-01
   outer loop
     vertex 2.531805e+00 5.051860e-02 6.585492e-02
     vertex 2.497981e+00 5.078960e-02 6.564615e-02
     vertex 2.498466e+00 5.019157e-02 6.610451e-02
   endloop
 endfacet
 facet normal 2.109257e-05 6.119383e-01 7.909055e-01
   outer loop
     vertex 2.531805e+00 5.051860e-02 6.585492e-02
     vertex 2.532227e+00 5.106384e-02 6.543305e-02
     vertex 2.497981e+00 5.078960e-02 6.564615e-02
   endloop
 endfacet
 facet normal -2.265697e-05 6.011860e-01 7.991091e-01
   outer loop
     vertex 2.531355e+00 4.998280e-02 6.626251e-02
     vertex 2.498466e+00 5.019157e-02 6.610451e-02
     vertex 2.498983e+00 4.960635e-02 6.654480e-02
   endloop
 endfacet
 facet normal 1.967000e-05 6.054263e-01 7.959013e-01
   outer loop
     vertex 2.531355e+00 4.998280e-02 6.626251e-02
     vertex 2.531805e+00 5.051860e-02 6.585492e-02
     vertex 2.498466e+00 5.019157e-02 6.610451e-02
   endloop
 endfacet
 facet normal -1.842724e-05 5.942231e-01 8.043002e-01
   outer loop
     vertex 2.530878e+00 4.945771e-02 6.665535e-02
     vertex 2.498983e+00 4.960635e-02 6.654480e-02
     vertex 2.499533e+00 4.903564e-02 6.696645e-02
   endloop
 endfacet
 facet normal 1.640617e-05 5.990362e-01 8.007219e-01
   outer loop
     vertex 2.530878e+00 4.945771e-02 6.665535e-02
     vertex 2.531355e+00 4.998280e-02 6.626251e-02
     vertex 2.498983e+00 4.960635e-02 6.654480e-02
   endloop
 endfacet
 facet normal -1.267708e-05 5.874467e-01 8.092629e-01
   outer loop
     vertex 2.530375e+00 4.894460e-02 6.703302e-02
     vertex 2.499533e+00 4.903564e-02 6.696645e-02
     vertex 2.500113e+00 4.848114e-02 6.736898e-02
   endloop
 endfacet
 facet normal 1.149536e-05 5.927834e-01 8.053619e-01
   outer loop
     vertex 2.530375e+00 4.894460e-02 6.703302e-02
     vertex 2.530878e+00 4.945771e-02 6.665535e-02
     vertex 2.499533e+00 4.903564e-02 6.696645e-02
   endloop
 endfacet
 facet normal -5.631782e-06 5.808773e-01 8.139911e-01
   outer loop
     vertex 2.529847e+00 4.844475e-02 6.739516e-02
     vertex 2.500113e+00 4.848114e-02 6.736898e-02
     vertex 2.500723e+00 4.794451e-02 6.775193e-02
   endloop
 endfacet
 facet normal 5.149671e-06 5.866838e-01 8.098161e-01
   outer loop
     vertex 2.529847e+00 4.844475e-02 6.739516e-02
     vertex 2.530375e+00 4.894460e-02 6.703302e-02
     vertex 2.500113e+00 4.848114e-02 6.736898e-02
   endloop
 endfacet
 facet normal -2.406195e-06 5.807529e-01 8.140799e-01
   outer loop
     vertex 2.529295e+00 4.795940e-02 6.774139e-02
     vertex 2.529847e+00 4.844475e-02 6.739516e-02
     vertex 2.500723e+00 4.794451e-02 6.775193e-02
   endloop
 endfacet
 facet normal -9.304803e-06 5.745255e-01 8.184867e-01
   outer loop
     vertex 2.528719e+00 4.748981e-02 6.807142e-02
     vertex 2.500723e+00 4.794451e-02 6.775193e-02
     vertex 2.501361e+00 4.742741e-02 6.811491e-02
   endloop
 endfacet
 facet normal 2.097277e-06 5.749956e-01 8.181565e-01
   outer loop
     vertex 2.528719e+00 4.748981e-02 6.807142e-02
     vertex 2.529295e+00 4.795940e-02 6.774139e-02
     vertex 2.500723e+00 4.794451e-02 6.775193e-02
   endloop
 endfacet
 facet normal -1.397528e-05 5.684172e-01 8.227405e-01
   outer loop
     vertex 2.528120e+00 4.703717e-02 6.838497e-02
     vertex 2.501361e+00 4.742741e-02 6.811491e-02
     vertex 2.502026e+00 4.693143e-02 6.845759e-02
   endloop
 endfacet
 facet normal 7.951272e-06 5.694339e-01 8.220371e-01
   outer loop
     vertex 2.528120e+00 4.703717e-02 6.838497e-02
     vertex 2.528719e+00 4.748981e-02 6.807142e-02
     vertex 2.501361e+00 4.742741e-02 6.811491e-02
   endloop
 endfacet
 facet normal -1.671687e-05 5.625736e-01 8.267472e-01
   outer loop
     vertex 2.527500e+00 4.660265e-02 6.868182e-02
     vertex 2.502026e+00 4.693143e-02 6.845759e-02
     vertex 2.502717e+00 4.645807e-02 6.877970e-02
   endloop
 endfacet
 facet normal 1.186236e-05 5.640851e-01 8.257167e-01
   outer loop
     vertex 2.527500e+00 4.660265e-02 6.868182e-02
     vertex 2.528120e+00 4.703717e-02 6.838497e-02
     vertex 2.502026e+00 4.693143e-02 6.845759e-02
   endloop
 endfacet
 facet normal -1.775140e-05 5.570128e-01 8.305039e-01
   outer loop
     vertex 2.526860e+00 4.618739e-02 6.896176e-02
     vertex 2.502717e+00 4.645807e-02 6.877970e-02
     vertex 2.503431e+00 4.600880e-02 6.908104e-02
   endloop
 endfacet
 facet normal 1.400397e-05 5.589631e-01 8.291926e-01
   outer loop
     vertex 2.526860e+00 4.618739e-02 6.896176e-02
     vertex 2.527500e+00 4.660265e-02 6.868182e-02
     vertex 2.502717e+00 4.645807e-02 6.877970e-02
   endloop
 endfacet
 facet normal -1.731704e-05 5.517517e-01 8.340084e-01
   outer loop
     vertex 2.526201e+00 4.579243e-02 6.922465e-02
     vertex 2.503431e+00 4.600880e-02 6.908104e-02
     vertex 2.504168e+00 4.558497e-02 6.936145e-02
   endloop
 endfacet
 facet normal 1.456712e-05 5.540810e-01 8.324627e-01
   outer loop
     vertex 2.526201e+00 4.579243e-02 6.922465e-02
     vertex 2.526860e+00 4.618739e-02 6.896176e-02
     vertex 2.503431e+00 4.600880e-02 6.908104e-02
   endloop
 endfacet
 facet normal -1.566223e-05 5.468061e-01 8.372593e-01
   outer loop
     vertex 2.525524e+00 4.541880e-02 6.947037e-02
     vertex 2.504168e+00 4.558497e-02 6.936145e-02
     vertex 2.504925e+00 4.518783e-02 6.962083e-02
   endloop
 endfacet
 facet normal 1.376209e-05 5.494514e-01 8.355257e-01
   outer loop
     vertex 2.525524e+00 4.541880e-02 6.947037e-02
     vertex 2.526201e+00 4.579243e-02 6.922465e-02
     vertex 2.504168e+00 4.558497e-02 6.936145e-02
   endloop
 endfacet
 facet normal -1.304022e-05 5.421905e-01 8.402556e-01
   outer loop
     vertex 2.524831e+00 4.506742e-02 6.969884e-02
     vertex 2.504925e+00 4.518783e-02 6.962083e-02
     vertex 2.505700e+00 4.481854e-02 6.985913e-02
   endloop
 endfacet
 facet normal 1.181927e-05 5.450854e-01 8.383805e-01
   outer loop
     vertex 2.524831e+00 4.506742e-02 6.969884e-02
     vertex 2.525524e+00 4.541880e-02 6.947037e-02
     vertex 2.504925e+00 4.518783e-02 6.962083e-02
   endloop
 endfacet
 facet normal 8.988389e-06 5.409938e-01 8.410266e-01
   outer loop
     vertex 2.524122e+00 4.473916e-02 6.991000e-02
     vertex 2.524831e+00 4.506742e-02 6.969884e-02
     vertex 2.505700e+00 4.481854e-02 6.985913e-02
   endloop
 endfacet
 facet normal -9.705090e-06 5.379182e-01 8.429970e-01
   outer loop
     vertex 2.524122e+00 4.473916e-02 6.991000e-02
     vertex 2.505700e+00 4.481854e-02 6.985913e-02
     vertex 2.506493e+00 4.447814e-02 7.007635e-02
   endloop
 endfacet
 facet normal -5.910408e-06 5.340011e-01 8.454838e-01
   outer loop
     vertex 2.523399e+00 4.443482e-02 7.010383e-02
     vertex 2.506493e+00 4.447814e-02 7.007635e-02
     vertex 2.507302e+00 4.416756e-02 7.027252e-02
   endloop
 endfacet
 facet normal 5.535080e-06 5.371863e-01 8.434636e-01
   outer loop
     vertex 2.523399e+00 4.443482e-02 7.010383e-02
     vertex 2.524122e+00 4.473916e-02 6.991000e-02
     vertex 2.506493e+00 4.447814e-02 7.007635e-02
   endloop
 endfacet
 facet normal 1.732681e-06 5.336719e-01 8.456916e-01
   outer loop
     vertex 2.522664e+00 4.415510e-02 7.028035e-02
     vertex 2.523399e+00 4.443482e-02 7.010383e-02
     vertex 2.507302e+00 4.416756e-02 7.027252e-02
   endloop
 endfacet
 facet normal -2.141779e-06 5.304495e-01 8.477165e-01
   outer loop
     vertex 2.521917e+00 4.390066e-02 7.043957e-02
     vertex 2.507302e+00 4.416756e-02 7.027252e-02
     vertex 2.508124e+00 4.388764e-02 7.044768e-02
   endloop
 endfacet
 facet normal -1.902287e-06 5.304589e-01 8.477106e-01
   outer loop
     vertex 2.521917e+00 4.390066e-02 7.043957e-02
     vertex 2.522664e+00 4.415510e-02 7.028035e-02
     vertex 2.507302e+00 4.416756e-02 7.027252e-02
   endloop
 endfacet
 facet normal -4.785935e-06 5.272578e-01 8.497054e-01
   outer loop
     vertex 2.521160e+00 4.367204e-02 7.058153e-02
     vertex 2.508124e+00 4.388764e-02 7.044768e-02
     vertex 2.508958e+00 4.363908e-02 7.060191e-02
   endloop
 endfacet
 facet normal 1.672083e-06 5.275396e-01 8.495304e-01
   outer loop
     vertex 2.521160e+00 4.367204e-02 7.058153e-02
     vertex 2.521917e+00 4.390066e-02 7.043957e-02
     vertex 2.508124e+00 4.388764e-02 7.044768e-02
   endloop
 endfacet
 facet normal -6.146556e-06 5.244490e-01 8.514418e-01
   outer loop
     vertex 2.520393e+00 4.346974e-02 7.070631e-02
     vertex 2.508958e+00 4.363908e-02 7.060191e-02
     vertex 2.509803e+00 4.342253e-02 7.073531e-02
   endloop
 endfacet
 facet normal 3.873094e-06 5.249393e-01 8.511397e-01
   outer loop
     vertex 2.520393e+00 4.346974e-02 7.070631e-02
     vertex 2.521160e+00 4.367204e-02 7.058153e-02
     vertex 2.508958e+00 4.363908e-02 7.060191e-02
   endloop
 endfacet
 facet normal -6.446177e-06 5.220307e-01 8.529267e-01
   outer loop
     vertex 2.519618e+00 4.329416e-02 7.081395e-02
     vertex 2.509803e+00 4.342253e-02 7.073531e-02
     vertex 2.510657e+00 4.323849e-02 7.084795e-02
   endloop
 endfacet
 facet normal 4.848439e-06 5.226586e-01 8.525421e-01
   outer loop
     vertex 2.519618e+00 4.329416e-02 7.081395e-02
     vertex 2.520393e+00 4.346974e-02 7.070631e-02
     vertex 2.509803e+00 4.342253e-02 7.073531e-02
   endloop
 endfacet
 facet normal -5.946498e-06 5.200088e-01 8.541609e-01
   outer loop
     vertex 2.518838e+00 4.314578e-02 7.090446e-02
     vertex 2.510657e+00 4.323849e-02 7.084795e-02
     vertex 2.511519e+00 4.308741e-02 7.093994e-02
   endloop
 endfacet
 facet normal 4.865835e-06 5.207045e-01 8.537370e-01
   outer loop
     vertex 2.518838e+00 4.314578e-02 7.090446e-02
     vertex 2.519618e+00 4.329416e-02 7.081395e-02
     vertex 2.510657e+00 4.323849e-02 7.084795e-02
   endloop
 endfacet
 facet normal -4.884416e-06 5.183888e-01 8.551450e-01
   outer loop
     vertex 2.518052e+00 4.302484e-02 7.097791e-02
     vertex 2.511519e+00 4.308741e-02 7.093994e-02
     vertex 2.512386e+00 4.296963e-02 7.101134e-02
   endloop
 endfacet
 facet normal 4.187278e-06 5.190810e-01 8.547250e-01
   outer loop
     vertex 2.518052e+00 4.302484e-02 7.097791e-02
     vertex 2.518838e+00 4.314578e-02 7.090446e-02
     vertex 2.511519e+00 4.308741e-02 7.093994e-02
   endloop
 endfacet
 facet normal -3.475363e-06 5.171751e-01 8.558796e-01
   outer loop
     vertex 2.517262e+00 4.293154e-02 7.103438e-02
     vertex 2.512386e+00 4.296963e-02 7.101134e-02
     vertex 2.513258e+00 4.288542e-02 7.106223e-02
   endloop
 endfacet
 facet normal 3.088334e-06 5.177902e-01 8.555076e-01
   outer loop
     vertex 2.517262e+00 4.293154e-02 7.103438e-02
     vertex 2.518052e+00 4.302484e-02 7.097791e-02
     vertex 2.512386e+00 4.296963e-02 7.101134e-02
   endloop
 endfacet
 facet normal -1.920153e-06 5.163739e-01 8.563633e-01
   outer loop
     vertex 2.516469e+00 4.286604e-02 7.107392e-02
     vertex 2.513258e+00 4.288542e-02 7.106223e-02
     vertex 2.514124e+00 4.283533e-02 7.109244e-02
   endloop
 endfacet
 facet normal 1.875785e-06 5.168347e-01 8.560852e-01
   outer loop
     vertex 2.516469e+00 4.286604e-02 7.107392e-02
     vertex 2.517262e+00 4.293154e-02 7.103438e-02
     vertex 2.513258e+00 4.288542e-02 7.106223e-02
   endloop
 endfacet
 facet normal -4.802136e-07 5.159844e-01 8.565980e-01
   outer loop
     vertex 2.515737e+00 4.283036e-02 7.109543e-02
     vertex 2.514124e+00 4.283533e-02 7.109244e-02
     vertex 2.515000e+00 4.281838e-02 7.110265e-02
   endloop
 endfacet
 facet normal 5.695663e-07 5.162344e-01 8.564473e-01
   outer loop
     vertex 2.515737e+00 4.283036e-02 7.109543e-02
     vertex 2.516469e+00 4.286604e-02 7.107392e-02
     vertex 2.514124e+00 4.283533e-02 7.109244e-02
   endloop
 endfacet
endsolid shape
