solid shape, STL ascii file, created with Open CASCADE Technology
 facet normal 5.411238e-07 9.705682e-01 -2.408263e-01
   outer loop
     vertex 2.110961e+00 8.056006e-02 -1.997690e-02
     vertex 2.110164e+00 8.055450e-02 -1.999932e-02
     vertex 2.109285e+00 8.055750e-02 -1.998721e-02
   endloop
 endfacet
 facet normal -1.465596e-06 9.706444e-01 -2.405190e-01
   outer loop
     vertex 2.110961e+00 8.056006e-02 -1.997690e-02
     vertex 2.109285e+00 8.055750e-02 -1.998721e-02
     vertex 2.108410e+00 8.057002e-02 -1.993668e-02
   endloop
 endfacet
 facet normal 1.059371e-06 9.706818e-01 -2.403681e-01
   outer loop
     vertex 2.111756e+00 8.057347e-02 -1.992275e-02
     vertex 2.110961e+00 8.056006e-02 -1.997690e-02
     vertex 2.108410e+00 8.057002e-02 -1.993668e-02
   endloop
 endfacet
 facet normal -1.977276e-06 9.708518e-01 -2.396806e-01
   outer loop
     vertex 2.111756e+00 8.057347e-02 -1.992275e-02
     vertex 2.108410e+00 8.057002e-02 -1.993668e-02
     vertex 2.107537e+00 8.059197e-02 -1.984779e-02
   endloop
 endfacet
 facet normal 9.883370e-07 9.708906e-01 -2.395232e-01
   outer loop
     vertex 2.112549e+00 8.059464e-02 -1.983692e-02
     vertex 2.111756e+00 8.057347e-02 -1.992275e-02
     vertex 2.107537e+00 8.059197e-02 -1.984779e-02
   endloop
 endfacet
 facet normal -1.652211e-06 9.711731e-01 -2.383755e-01
   outer loop
     vertex 2.112549e+00 8.059464e-02 -1.983692e-02
     vertex 2.107537e+00 8.059197e-02 -1.984779e-02
     vertex 2.106669e+00 8.062317e-02 -1.972064e-02
   endloop
 endfacet
 facet normal 7.597519e-08 9.711933e-01 -2.382931e-01
   outer loop
     vertex 2.113338e+00 8.062346e-02 -1.971949e-02
     vertex 2.112549e+00 8.059464e-02 -1.983692e-02
     vertex 2.106669e+00 8.062317e-02 -1.972064e-02
   endloop
 endfacet
 facet normal -2.189998e-07 9.715857e-01 -2.366880e-01
   outer loop
     vertex 2.114122e+00 8.065974e-02 -1.957056e-02
     vertex 2.113338e+00 8.062346e-02 -1.971949e-02
     vertex 2.106669e+00 8.062317e-02 -1.972064e-02
   endloop
 endfacet
 facet normal -1.798890e-06 9.716038e-01 -2.366139e-01
   outer loop
     vertex 2.114122e+00 8.065974e-02 -1.957056e-02
     vertex 2.106669e+00 8.062317e-02 -1.972064e-02
     vertex 2.105806e+00 8.066342e-02 -1.955537e-02
   endloop
 endfacet
 facet normal 1.876981e-06 9.720646e-01 -2.347136e-01
   outer loop
     vertex 2.114901e+00 8.070327e-02 -1.939028e-02
     vertex 2.114122e+00 8.065974e-02 -1.957056e-02
     vertex 2.105806e+00 8.066342e-02 -1.955537e-02
   endloop
 endfacet
 facet normal -4.113499e-06 9.721398e-01 -2.344018e-01
   outer loop
     vertex 2.114901e+00 8.070327e-02 -1.939028e-02
     vertex 2.105806e+00 8.066342e-02 -1.955537e-02
     vertex 2.104951e+00 8.071242e-02 -1.935214e-02
   endloop
 endfacet
 facet normal 4.163297e-06 9.726298e-01 -2.323601e-01
   outer loop
     vertex 2.115672e+00 8.075378e-02 -1.917883e-02
     vertex 2.114901e+00 8.070327e-02 -1.939028e-02
     vertex 2.104951e+00 8.071242e-02 -1.935214e-02
   endloop
 endfacet
 facet normal -6.584037e-06 9.727799e-01 -2.317310e-01
   outer loop
     vertex 2.115672e+00 8.075378e-02 -1.917883e-02
     vertex 2.104951e+00 8.071242e-02 -1.935214e-02
     vertex 2.104104e+00 8.076981e-02 -1.911120e-02
   endloop
 endfacet
 facet normal -8.939357e-06 9.735192e-01 -2.286054e-01
   outer loop
     vertex 2.116435e+00 8.081096e-02 -1.893643e-02
     vertex 2.104104e+00 8.076981e-02 -1.911120e-02
     vertex 2.103268e+00 8.083517e-02 -1.883284e-02
   endloop
 endfacet
 facet normal 6.388695e-06 9.732780e-01 -2.296301e-01
   outer loop
     vertex 2.116435e+00 8.081096e-02 -1.893643e-02
     vertex 2.115672e+00 8.075378e-02 -1.917883e-02
     vertex 2.104104e+00 8.076981e-02 -1.911120e-02
   endloop
 endfacet
 facet normal -1.090874e-05 9.743520e-01 -2.250292e-01
   outer loop
     vertex 2.117189e+00 8.087446e-02 -1.866337e-02
     vertex 2.103268e+00 8.083517e-02 -1.883284e-02
     vertex 2.102443e+00 8.090800e-02 -1.851742e-02
   endloop
 endfacet
 facet normal 8.304916e-06 9.740049e-01 -2.265270e-01
   outer loop
     vertex 2.117189e+00 8.087446e-02 -1.866337e-02
     vertex 2.116435e+00 8.081096e-02 -1.893643e-02
     vertex 2.103268e+00 8.083517e-02 -1.883284e-02
   endloop
 endfacet
 facet normal -1.222303e-05 9.752721e-01 -2.210076e-01
   outer loop
     vertex 2.117932e+00 8.094388e-02 -1.835998e-02
     vertex 2.102443e+00 8.090800e-02 -1.851742e-02
     vertex 2.101632e+00 8.098777e-02 -1.816540e-02
   endloop
 endfacet
 facet normal 9.666782e-06 9.748059e-01 -2.230547e-01
   outer loop
     vertex 2.117932e+00 8.094388e-02 -1.835998e-02
     vertex 2.117189e+00 8.087446e-02 -1.866337e-02
     vertex 2.102443e+00 8.090800e-02 -1.851742e-02
   endloop
 endfacet
 facet normal -1.261615e-05 9.762723e-01 -2.165465e-01
   outer loop
     vertex 2.118663e+00 8.101877e-02 -1.802664e-02
     vertex 2.101632e+00 8.098777e-02 -1.816540e-02
     vertex 2.100837e+00 8.107384e-02 -1.777729e-02
   endloop
 endfacet
 facet normal 1.023264e-05 9.756760e-01 -2.192176e-01
   outer loop
     vertex 2.118663e+00 8.101877e-02 -1.802664e-02
     vertex 2.117932e+00 8.094388e-02 -1.835998e-02
     vertex 2.101632e+00 8.098777e-02 -1.816540e-02
   endloop
 endfacet
 facet normal -1.182720e-05 9.773448e-01 -2.116532e-01
   outer loop
     vertex 2.119380e+00 8.109864e-02 -1.766382e-02
     vertex 2.100837e+00 8.107384e-02 -1.777729e-02
     vertex 2.100058e+00 8.116556e-02 -1.735374e-02
   endloop
 endfacet
 facet normal 9.765227e-06 9.766094e-01 -2.150209e-01
   outer loop
     vertex 2.119380e+00 8.109864e-02 -1.766382e-02
     vertex 2.118663e+00 8.101877e-02 -1.802664e-02
     vertex 2.100837e+00 8.107384e-02 -1.777729e-02
   endloop
 endfacet
 facet normal 8.033024e-06 9.776002e-01 -2.104707e-01
   outer loop
     vertex 2.120083e+00 8.118298e-02 -1.727204e-02
     vertex 2.119380e+00 8.109864e-02 -1.766382e-02
     vertex 2.100058e+00 8.116556e-02 -1.735374e-02
   endloop
 endfacet
 facet normal -9.603008e-06 9.784813e-01 -2.063356e-01
   outer loop
     vertex 2.120083e+00 8.118298e-02 -1.727204e-02
     vertex 2.100058e+00 8.116556e-02 -1.735374e-02
     vertex 2.099297e+00 8.126219e-02 -1.689545e-02
   endloop
 endfacet
 facet normal 4.812029e-06 9.786416e-01 -2.055737e-01
   outer loop
     vertex 2.120771e+00 8.127123e-02 -1.685190e-02
     vertex 2.120083e+00 8.118298e-02 -1.727204e-02
     vertex 2.099297e+00 8.126219e-02 -1.689545e-02
   endloop
 endfacet
 facet normal -5.701148e-06 9.796725e-01 -2.006034e-01
   outer loop
     vertex 2.120771e+00 8.127123e-02 -1.685190e-02
     vertex 2.099297e+00 8.126219e-02 -1.689545e-02
     vertex 2.098557e+00 8.136297e-02 -1.640326e-02
   endloop
 endfacet
 facet normal -1.120565e-07 9.797269e-01 -2.003377e-01
   outer loop
     vertex 2.121441e+00 8.136281e-02 -1.640408e-02
     vertex 2.120771e+00 8.127123e-02 -1.685190e-02
     vertex 2.098557e+00 8.136297e-02 -1.640326e-02
   endloop
 endfacet
 facet normal 9.499536e-08 9.808468e-01 -1.947806e-01
   outer loop
     vertex 2.122094e+00 8.145709e-02 -1.592931e-02
     vertex 2.121441e+00 8.136281e-02 -1.640408e-02
     vertex 2.098557e+00 8.136297e-02 -1.640326e-02
   endloop
 endfacet
 facet normal -6.292595e-06 9.809074e-01 -1.944755e-01
   outer loop
     vertex 2.122094e+00 8.145709e-02 -1.592931e-02
     vertex 2.098557e+00 8.136297e-02 -1.640326e-02
     vertex 2.097839e+00 8.146708e-02 -1.587811e-02
   endloop
 endfacet
 facet normal 5.902740e-06 9.819943e-01 -1.889105e-01
   outer loop
     vertex 2.122727e+00 8.155344e-02 -1.542842e-02
     vertex 2.122094e+00 8.145709e-02 -1.592931e-02
     vertex 2.097839e+00 8.146708e-02 -1.587811e-02
   endloop
 endfacet
 facet normal -1.185647e-05 9.821762e-01 -1.879626e-01
   outer loop
     vertex 2.122727e+00 8.155344e-02 -1.542842e-02
     vertex 2.097839e+00 8.146708e-02 -1.587811e-02
     vertex 2.097144e+00 8.157368e-02 -1.532105e-02
   endloop
 endfacet
 facet normal 1.089058e-05 9.831633e-01 -1.827288e-01
   outer loop
     vertex 2.123339e+00 8.165122e-02 -1.490229e-02
     vertex 2.122727e+00 8.155344e-02 -1.542842e-02
     vertex 2.097144e+00 8.157368e-02 -1.532105e-02
   endloop
 endfacet
 facet normal -1.653701e-05 9.834702e-01 -1.810700e-01
   outer loop
     vertex 2.123339e+00 8.165122e-02 -1.490229e-02
     vertex 2.097144e+00 8.157368e-02 -1.532105e-02
     vertex 2.096475e+00 8.168189e-02 -1.473323e-02
   endloop
 endfacet
 facet normal 1.481586e-05 9.843460e-01 -1.762467e-01
   outer loop
     vertex 2.123929e+00 8.174977e-02 -1.435186e-02
     vertex 2.123339e+00 8.165122e-02 -1.490229e-02
     vertex 2.096475e+00 8.168189e-02 -1.473323e-02
   endloop
 endfacet
 facet normal -2.007089e-05 9.847788e-01 -1.738123e-01
   outer loop
     vertex 2.123929e+00 8.174977e-02 -1.435186e-02
     vertex 2.096475e+00 8.168189e-02 -1.473323e-02
     vertex 2.095832e+00 8.179084e-02 -1.411591e-02
   endloop
 endfacet
 facet normal 1.744769e-05 9.855343e-01 -1.694760e-01
   outer loop
     vertex 2.124497e+00 8.184841e-02 -1.377816e-02
     vertex 2.123929e+00 8.174977e-02 -1.435186e-02
     vertex 2.095832e+00 8.179084e-02 -1.411591e-02
   endloop
 endfacet
 facet normal -2.221141e-05 9.860912e-01 -1.662051e-01
   outer loop
     vertex 2.124497e+00 8.184841e-02 -1.377816e-02
     vertex 2.095832e+00 8.179084e-02 -1.411591e-02
     vertex 2.095217e+00 8.189962e-02 -1.347042e-02
   endloop
 endfacet
 facet normal 1.857000e-05 9.867202e-01 -1.624295e-01
   outer loop
     vertex 2.125041e+00 8.194650e-02 -1.318222e-02
     vertex 2.124497e+00 8.184841e-02 -1.377816e-02
     vertex 2.095217e+00 8.189962e-02 -1.347042e-02
   endloop
 endfacet
 facet normal -2.273174e-05 9.873966e-01 -1.582654e-01
   outer loop
     vertex 2.125041e+00 8.194650e-02 -1.318222e-02
     vertex 2.095217e+00 8.189962e-02 -1.347042e-02
     vertex 2.094631e+00 8.200736e-02 -1.279819e-02
   endloop
 endfacet
 facet normal 1.798433e-05 9.878956e-01 -1.551203e-01
   outer loop
     vertex 2.125560e+00 8.204338e-02 -1.256517e-02
     vertex 2.125041e+00 8.194650e-02 -1.318222e-02
     vertex 2.094631e+00 8.200736e-02 -1.279819e-02
   endloop
 endfacet
 facet normal -2.142757e-05 9.886843e-01 -1.500110e-01
   outer loop
     vertex 2.125560e+00 8.204338e-02 -1.256517e-02
     vertex 2.094631e+00 8.200736e-02 -1.279819e-02
     vertex 2.094076e+00 8.211317e-02 -1.210070e-02
   endloop
 endfacet
 facet normal 1.551202e-05 9.890527e-01 -1.475624e-01
   outer loop
     vertex 2.126054e+00 8.213842e-02 -1.192814e-02
     vertex 2.125560e+00 8.204338e-02 -1.256517e-02
     vertex 2.094076e+00 8.211317e-02 -1.210070e-02
   endloop
 endfacet
 facet normal -1.811874e-05 9.899439e-01 -1.414606e-01
   outer loop
     vertex 2.126054e+00 8.213842e-02 -1.192814e-02
     vertex 2.094076e+00 8.211317e-02 -1.210070e-02
     vertex 2.093553e+00 8.221622e-02 -1.137951e-02
   endloop
 endfacet
 facet normal 1.099576e-05 9.901840e-01 -1.397699e-01
   outer loop
     vertex 2.126521e+00 8.223099e-02 -1.127231e-02
     vertex 2.126054e+00 8.213842e-02 -1.192814e-02
     vertex 2.093553e+00 8.221622e-02 -1.137951e-02
   endloop
 endfacet
 facet normal -1.264988e-05 9.911652e-01 -1.326335e-01
   outer loop
     vertex 2.126521e+00 8.223099e-02 -1.127231e-02
     vertex 2.093553e+00 8.221622e-02 -1.137951e-02
     vertex 2.093063e+00 8.231568e-02 -1.063621e-02
   endloop
 endfacet
 facet normal 4.300469e-06 9.912820e-01 -1.317575e-01
   outer loop
     vertex 2.126961e+00 8.232049e-02 -1.059887e-02
     vertex 2.126521e+00 8.223099e-02 -1.127231e-02
     vertex 2.093063e+00 8.231568e-02 -1.063621e-02
   endloop
 endfacet
 facet normal -4.889959e-06 9.923384e-01 -1.235494e-01
   outer loop
     vertex 2.126961e+00 8.232049e-02 -1.059887e-02
     vertex 2.093063e+00 8.231568e-02 -1.063621e-02
     vertex 2.092606e+00 8.241077e-02 -9.872411e-03
   endloop
 endfacet
 facet normal -4.686678e-06 9.923396e-01 -1.235400e-01
   outer loop
     vertex 2.127373e+00 8.240637e-02 -9.909057e-03
     vertex 2.126961e+00 8.232049e-02 -1.059887e-02
     vertex 2.092606e+00 8.241077e-02 -9.872411e-03
   endloop
 endfacet
 facet normal 4.291651e-06 9.933489e-01 -1.151432e-01
   outer loop
     vertex 2.127756e+00 8.248809e-02 -9.204107e-03
     vertex 2.127373e+00 8.240637e-02 -9.909057e-03
     vertex 2.092606e+00 8.241077e-02 -9.872411e-03
   endloop
 endfacet
 facet normal -1.314609e-05 9.934534e-01 -1.142382e-01
   outer loop
     vertex 2.127756e+00 8.248809e-02 -9.204107e-03
     vertex 2.092606e+00 8.241077e-02 -9.872411e-03
     vertex 2.092185e+00 8.250076e-02 -9.089777e-03
   endloop
 endfacet
 facet normal -1.987061e-05 9.945030e-01 -1.047085e-01
   outer loop
     vertex 2.128111e+00 8.256513e-02 -8.485280e-03
     vertex 2.092185e+00 8.250076e-02 -9.089777e-03
     vertex 2.091799e+00 8.258496e-02 -8.289974e-03
   endloop
 endfacet
 facet normal 1.180406e-05 9.943052e-01 -1.065699e-01
   outer loop
     vertex 2.128111e+00 8.256513e-02 -8.485280e-03
     vertex 2.127756e+00 8.248809e-02 -9.204107e-03
     vertex 2.092185e+00 8.250076e-02 -9.089777e-03
   endloop
 endfacet
 facet normal -2.469943e-05 9.954792e-01 -9.498027e-02
   outer loop
     vertex 2.128436e+00 8.263699e-02 -7.754223e-03
     vertex 2.091799e+00 8.258496e-02 -8.289974e-03
     vertex 2.091449e+00 8.266274e-02 -7.474685e-03
   endloop
 endfacet
 facet normal 1.747010e-05 9.952024e-01 -9.783710e-02
   outer loop
     vertex 2.128436e+00 8.263699e-02 -7.754223e-03
     vertex 2.128111e+00 8.256513e-02 -8.485280e-03
     vertex 2.091799e+00 8.258496e-02 -8.289974e-03
   endloop
 endfacet
 facet normal -2.744593e-05 9.963746e-01 -8.507423e-02
   outer loop
     vertex 2.128731e+00 8.270329e-02 -7.011833e-03
     vertex 2.091449e+00 8.266274e-02 -7.474685e-03
     vertex 2.091136e+00 8.273353e-02 -6.645503e-03
   endloop
 endfacet
 facet normal 2.117955e-05 9.960351e-01 -8.896111e-02
   outer loop
     vertex 2.128731e+00 8.270329e-02 -7.011833e-03
     vertex 2.128436e+00 8.263699e-02 -7.754223e-03
     vertex 2.091449e+00 8.266274e-02 -7.474685e-03
   endloop
 endfacet
 facet normal -2.799150e-05 9.971829e-01 -7.500893e-02
   outer loop
     vertex 2.128995e+00 8.276366e-02 -6.259074e-03
     vertex 2.091136e+00 8.273353e-02 -6.645503e-03
     vertex 2.090861e+00 8.279685e-02 -5.803595e-03
   endloop
 endfacet
 facet normal 2.278859e-05 9.967986e-01 -7.995396e-02
   outer loop
     vertex 2.128995e+00 8.276366e-02 -6.259074e-03
     vertex 2.128731e+00 8.270329e-02 -7.011833e-03
     vertex 2.091136e+00 8.273353e-02 -6.645503e-03
   endloop
 endfacet
 facet normal -2.617646e-05 9.978984e-01 -6.479840e-02
   outer loop
     vertex 2.129230e+00 8.281776e-02 -5.497163e-03
     vertex 2.090861e+00 8.279685e-02 -5.803595e-03
     vertex 2.090623e+00 8.285218e-02 -4.951444e-03
   endloop
 endfacet
 facet normal 2.220551e-05 9.974885e-01 -7.082847e-02
   outer loop
     vertex 2.129230e+00 8.281776e-02 -5.497163e-03
     vertex 2.128995e+00 8.276366e-02 -6.259074e-03
     vertex 2.090861e+00 8.279685e-02 -5.803595e-03
   endloop
 endfacet
 facet normal -2.208012e-05 9.985153e-01 -5.447138e-02
   outer loop
     vertex 2.129433e+00 8.286527e-02 -4.727286e-03
     vertex 2.090623e+00 8.285218e-02 -4.951444e-03
     vertex 2.090423e+00 8.289915e-02 -4.090390e-03
   endloop
 endfacet
 facet normal 1.922688e-05 9.981010e-01 -6.159910e-02
   outer loop
     vertex 2.129433e+00 8.286527e-02 -4.727286e-03
     vertex 2.129230e+00 8.281776e-02 -5.497163e-03
     vertex 2.090623e+00 8.285218e-02 -4.951444e-03
   endloop
 endfacet
 facet normal -1.376588e-05 9.990061e-01 -4.457288e-02
   outer loop
     vertex 2.129606e+00 8.290593e-02 -3.950608e-03
     vertex 2.090423e+00 8.289915e-02 -4.090390e-03
     vertex 2.090276e+00 8.293401e-02 -3.309057e-03
   endloop
 endfacet
 facet normal 1.379402e-05 9.986325e-01 -5.228029e-02
   outer loop
     vertex 2.129606e+00 8.290593e-02 -3.950608e-03
     vertex 2.129433e+00 8.286527e-02 -4.727286e-03
     vertex 2.090423e+00 8.289915e-02 -4.090390e-03
   endloop
 endfacet
 facet normal -1.393660e-05 9.993827e-01 -3.513010e-02
   outer loop
     vertex 2.129747e+00 8.293951e-02 -3.168279e-03
     vertex 2.090276e+00 8.293401e-02 -3.309057e-03
     vertex 2.090160e+00 8.296164e-02 -2.522872e-03
   endloop
 endfacet
 facet normal 1.377373e-05 9.990799e-01 -4.288779e-02
   outer loop
     vertex 2.129747e+00 8.293951e-02 -3.168279e-03
     vertex 2.129606e+00 8.290593e-02 -3.950608e-03
     vertex 2.090276e+00 8.293401e-02 -3.309057e-03
   endloop
 endfacet
 facet normal -1.405458e-05 9.996713e-01 -2.563775e-02
   outer loop
     vertex 2.129858e+00 8.296583e-02 -2.381438e-03
     vertex 2.090160e+00 8.296164e-02 -2.522872e-03
     vertex 2.090075e+00 8.298190e-02 -1.733020e-03
   endloop
 endfacet
 facet normal 1.374612e-05 9.994409e-01 -3.343411e-02
   outer loop
     vertex 2.129858e+00 8.296583e-02 -2.381438e-03
     vertex 2.129747e+00 8.293951e-02 -3.168279e-03
     vertex 2.090160e+00 8.296164e-02 -2.522872e-03
   endloop
 endfacet
 facet normal -1.409570e-05 9.998702e-01 -1.610906e-02
   outer loop
     vertex 2.129937e+00 8.298475e-02 -1.591218e-03
     vertex 2.090075e+00 8.298190e-02 -1.733020e-03
     vertex 2.090022e+00 8.299466e-02 -9.406950e-04
   endloop
 endfacet
 facet normal 1.374818e-05 9.997136e-01 -2.393301e-02
   outer loop
     vertex 2.129937e+00 8.298475e-02 -1.591218e-03
     vertex 2.129858e+00 8.296583e-02 -2.381438e-03
     vertex 2.090075e+00 8.298190e-02 -1.733020e-03
   endloop
 endfacet
 facet normal -1.405974e-05 9.999785e-01 -6.557268e-03
   outer loop
     vertex 2.129984e+00 8.299616e-02 -7.987426e-04
     vertex 2.090022e+00 8.299466e-02 -9.406950e-04
     vertex 2.090001e+00 8.299987e-02 -1.470846e-04
   endloop
 endfacet
 facet normal 1.379558e-05 9.998963e-01 -1.439812e-02
   outer loop
     vertex 2.129984e+00 8.299616e-02 -7.987426e-04
     vertex 2.129937e+00 8.298475e-02 -1.591218e-03
     vertex 2.090022e+00 8.299466e-02 -9.406950e-04
   endloop
 endfacet
 facet normal 1.388183e-05 9.999883e-01 -4.842926e-03
   outer loop
     vertex 2.130000e+00 8.300000e-02 -5.132821e-06
     vertex 2.129984e+00 8.299616e-02 -7.987426e-04
     vertex 2.090001e+00 8.299987e-02 -1.470846e-04
   endloop
 endfacet
 facet normal -1.396689e-05 9.999955e-01 3.004336e-03
   outer loop
     vertex 2.130000e+00 8.300000e-02 -5.132821e-06
     vertex 2.090001e+00 8.299987e-02 -1.470846e-04
     vertex 2.090010e+00 8.299748e-02 6.466461e-04
   endloop
 endfacet
 facet normal 1.398336e-05 9.999889e-01 4.719184e-03
   outer loop
     vertex 2.129984e+00 8.299625e-02 7.884927e-04
     vertex 2.130000e+00 8.300000e-02 -5.132821e-06
     vertex 2.090010e+00 8.299748e-02 6.466461e-04
   endloop
 endfacet
 facet normal -1.384974e-05 9.999211e-01 1.256229e-02
   outer loop
     vertex 2.129984e+00 8.299625e-02 7.884927e-04
     vertex 2.090010e+00 8.299748e-02 6.466461e-04
     vertex 2.090052e+00 8.298752e-02 1.439358e-03
   endloop
 endfacet
 facet normal 1.406795e-05 9.998981e-01 1.427481e-02
   outer loop
     vertex 2.129937e+00 8.298494e-02 1.581013e-03
     vertex 2.129984e+00 8.299625e-02 7.884927e-04
     vertex 2.090052e+00 8.298752e-02 1.439358e-03
   endloop
 endfacet
 facet normal -1.374299e-05 9.997557e-01 2.210292e-02
   outer loop
     vertex 2.129937e+00 8.298494e-02 1.581013e-03
     vertex 2.090052e+00 8.298752e-02 1.439358e-03
     vertex 2.090125e+00 8.297005e-02 2.229941e-03
   endloop
 endfacet
 facet normal -1.367323e-05 9.995002e-01 3.161235e-02
   outer loop
     vertex 2.129859e+00 8.296612e-02 2.371300e-03
     vertex 2.090125e+00 8.297005e-02 2.229941e-03
     vertex 2.090229e+00 8.294515e-02 3.017305e-03
   endloop
 endfacet
 facet normal 1.410422e-05 9.997165e-01 2.381049e-02
   outer loop
     vertex 2.129859e+00 8.296612e-02 2.371300e-03
     vertex 2.129937e+00 8.298494e-02 1.581013e-03
     vertex 2.090125e+00 8.297005e-02 2.229941e-03
   endloop
 endfacet
 facet normal -1.551766e-05 9.991344e-01 4.159939e-02
   outer loop
     vertex 2.129749e+00 8.293989e-02 3.158215e-03
     vertex 2.090229e+00 8.294515e-02 3.017305e-03
     vertex 2.090381e+00 8.290893e-02 3.887064e-03
   endloop
 endfacet
 facet normal 1.407053e-05 9.994450e-01 3.331254e-02
   outer loop
     vertex 2.129749e+00 8.293989e-02 3.158215e-03
     vertex 2.129859e+00 8.296612e-02 2.371300e-03
     vertex 2.090229e+00 8.294515e-02 3.017305e-03
   endloop
 endfacet
 facet normal -6.570424e-06 9.986451e-01 5.203827e-02
   outer loop
     vertex 2.129608e+00 8.290640e-02 3.940599e-03
     vertex 2.090381e+00 8.290893e-02 3.887064e-03
     vertex 2.090572e+00 8.286397e-02 4.750027e-03
   endloop
 endfacet
 facet normal 6.112809e-06 9.990851e-01 4.276563e-02
   outer loop
     vertex 2.129608e+00 8.290640e-02 3.940599e-03
     vertex 2.129749e+00 8.293989e-02 3.158215e-03
     vertex 2.090381e+00 8.290893e-02 3.887064e-03
   endloop
 endfacet
 facet normal 6.684787e-06 9.986117e-01 5.267577e-02
   outer loop
     vertex 2.129415e+00 8.286091e-02 4.803164e-03
     vertex 2.129608e+00 8.290640e-02 3.940599e-03
     vertex 2.090572e+00 8.286397e-02 4.750027e-03
   endloop
 endfacet
 facet normal -6.641412e-06 9.980522e-01 6.238493e-02
   outer loop
     vertex 2.129415e+00 8.286091e-02 4.803164e-03
     vertex 2.090572e+00 8.286397e-02 4.750027e-03
     vertex 2.090801e+00 8.281055e-02 5.604667e-03
   endloop
 endfacet
 facet normal -6.650043e-06 9.973598e-01 7.261879e-02
   outer loop
     vertex 2.129183e+00 8.280699e-02 5.657019e-03
     vertex 2.090801e+00 8.281055e-02 5.604667e-03
     vertex 2.091068e+00 8.274905e-02 6.449377e-03
   endloop
 endfacet
 facet normal 6.508471e-06 9.980125e-01 6.301595e-02
   outer loop
     vertex 2.129183e+00 8.280699e-02 5.657019e-03
     vertex 2.129415e+00 8.286091e-02 4.803164e-03
     vertex 2.090801e+00 8.281055e-02 5.604667e-03
   endloop
 endfacet
 facet normal -6.532030e-06 9.965727e-01 8.272185e-02
   outer loop
     vertex 2.128914e+00 8.274505e-02 6.500491e-03
     vertex 2.091068e+00 8.274905e-02 6.449377e-03
     vertex 2.091373e+00 8.267990e-02 7.282427e-03
   endloop
 endfacet
 facet normal 6.350981e-06 9.973143e-01 7.324085e-02
   outer loop
     vertex 2.128914e+00 8.274505e-02 6.500491e-03
     vertex 2.129183e+00 8.280699e-02 5.657019e-03
     vertex 2.091068e+00 8.274905e-02 6.449377e-03
   endloop
 endfacet
 facet normal -5.605195e-06 9.957417e-01 9.218728e-02
   outer loop
     vertex 2.128608e+00 8.267554e-02 7.331820e-03
     vertex 2.091373e+00 8.267990e-02 7.282427e-03
     vertex 2.091679e+00 8.261156e-02 8.020624e-03
   endloop
 endfacet
 facet normal 6.234906e-06 9.965220e-01 8.333058e-02
   outer loop
     vertex 2.128608e+00 8.267554e-02 7.331820e-03
     vertex 2.128914e+00 8.274505e-02 6.500491e-03
     vertex 2.091373e+00 8.267990e-02 7.282427e-03
   endloop
 endfacet
 facet normal -1.283075e-05 9.948843e-01 1.010208e-01
   outer loop
     vertex 2.128264e+00 8.259893e-02 8.149632e-03
     vertex 2.091679e+00 8.261156e-02 8.020624e-03
     vertex 2.092014e+00 8.253776e-02 8.747432e-03
   endloop
 endfacet
 facet normal 1.476190e-05 9.956409e-01 9.326986e-02
   outer loop
     vertex 2.128264e+00 8.259893e-02 8.149632e-03
     vertex 2.128608e+00 8.267554e-02 7.331820e-03
     vertex 2.091679e+00 8.261156e-02 8.020624e-03
   endloop
 endfacet
 facet normal -1.777735e-05 9.939645e-01 1.097024e-01
   outer loop
     vertex 2.127885e+00 8.251580e-02 8.952248e-03
     vertex 2.092014e+00 8.253776e-02 8.747432e-03
     vertex 2.092379e+00 8.245900e-02 9.461158e-03
   endloop
 endfacet
 facet normal 2.073058e-05 9.946777e-01 1.030348e-01
   outer loop
     vertex 2.127885e+00 8.251580e-02 8.952248e-03
     vertex 2.128264e+00 8.259893e-02 8.149632e-03
     vertex 2.092014e+00 8.253776e-02 8.747432e-03
   endloop
 endfacet
 facet normal -2.050539e-05 9.929879e-01 1.182162e-01
   outer loop
     vertex 2.127469e+00 8.242676e-02 9.737984e-03
     vertex 2.092379e+00 8.245900e-02 9.461158e-03
     vertex 2.092773e+00 8.237574e-02 1.016057e-02
   endloop
 endfacet
 facet normal 2.435581e-05 9.936398e-01 1.126056e-01
   outer loop
     vertex 2.127469e+00 8.242676e-02 9.737984e-03
     vertex 2.127885e+00 8.251580e-02 8.952248e-03
     vertex 2.092379e+00 8.245900e-02 9.461158e-03
   endloop
 endfacet
 facet normal -2.109257e-05 9.919604e-01 1.265489e-01
   outer loop
     vertex 2.127019e+00 8.233250e-02 1.050517e-02
     vertex 2.092773e+00 8.237574e-02 1.016057e-02
     vertex 2.093195e+00 8.228851e-02 1.084442e-02
   endloop
 endfacet
 facet normal 2.578620e-05 9.925347e-01 1.219623e-01
   outer loop
     vertex 2.127019e+00 8.233250e-02 1.050517e-02
     vertex 2.127469e+00 8.242676e-02 9.737984e-03
     vertex 2.092773e+00 8.237574e-02 1.016057e-02
   endloop
 endfacet
 facet normal -1.967000e-05 9.908883e-01 1.346862e-01
   outer loop
     vertex 2.126534e+00 8.223375e-02 1.125215e-02
     vertex 2.093195e+00 8.228851e-02 1.084442e-02
     vertex 2.093645e+00 8.219784e-02 1.151149e-02
   endloop
 endfacet
 facet normal 2.516799e-05 9.913712e-01 1.310847e-01
   outer loop
     vertex 2.126534e+00 8.223375e-02 1.125215e-02
     vertex 2.127019e+00 8.233250e-02 1.050517e-02
     vertex 2.093195e+00 8.228851e-02 1.084442e-02
   endloop
 endfacet
 facet normal -1.640617e-05 9.897785e-01 1.426134e-01
   outer loop
     vertex 2.126017e+00 8.213126e-02 1.197729e-02
     vertex 2.093645e+00 8.219784e-02 1.151149e-02
     vertex 2.094122e+00 8.210433e-02 1.216057e-02
   endloop
 endfacet
 facet normal 2.265697e-05 9.901582e-01 1.399528e-01
   outer loop
     vertex 2.126017e+00 8.213126e-02 1.197729e-02
     vertex 2.126534e+00 8.223375e-02 1.125215e-02
     vertex 2.093645e+00 8.219784e-02 1.151149e-02
   endloop
 endfacet
 facet normal -1.149536e-05 9.886380e-01 1.503157e-01
   outer loop
     vertex 2.125467e+00 8.202587e-02 1.267900e-02
     vertex 2.094122e+00 8.210433e-02 1.216057e-02
     vertex 2.094625e+00 8.200857e-02 1.279045e-02
   endloop
 endfacet
 facet normal 1.842724e-05 9.889054e-01 1.485469e-01
   outer loop
     vertex 2.125467e+00 8.202587e-02 1.267900e-02
     vertex 2.126017e+00 8.213126e-02 1.197729e-02
     vertex 2.094122e+00 8.210433e-02 1.216057e-02
   endloop
 endfacet
 facet normal -5.149671e-06 9.874745e-01 1.577784e-01
   outer loop
     vertex 2.124887e+00 8.191840e-02 1.335572e-02
     vertex 2.094625e+00 8.200857e-02 1.279045e-02
     vertex 2.095153e+00 8.191118e-02 1.339996e-02
   endloop
 endfacet
 facet normal 1.267708e-05 9.876228e-01 1.568477e-01
   outer loop
     vertex 2.124887e+00 8.191840e-02 1.335572e-02
     vertex 2.125467e+00 8.202587e-02 1.267900e-02
     vertex 2.094625e+00 8.200857e-02 1.279045e-02
   endloop
 endfacet
 facet normal 2.406195e-06 9.862957e-01 1.649871e-01
   outer loop
     vertex 2.124277e+00 8.180974e-02 1.400596e-02
     vertex 2.095153e+00 8.191118e-02 1.339996e-02
     vertex 2.095705e+00 8.181282e-02 1.398798e-02
   endloop
 endfacet
 facet normal -2.097277e-06 9.851073e-01 1.719408e-01
   outer loop
     vertex 2.124277e+00 8.180974e-02 1.400596e-02
     vertex 2.095705e+00 8.181282e-02 1.398798e-02
     vertex 2.096281e+00 8.171413e-02 1.455340e-02
   endloop
 endfacet
 facet normal 5.631781e-06 9.863209e-01 1.648363e-01
   outer loop
     vertex 2.124277e+00 8.180974e-02 1.400596e-02
     vertex 2.124887e+00 8.191840e-02 1.335572e-02
     vertex 2.095153e+00 8.191118e-02 1.339996e-02
   endloop
 endfacet
 facet normal -7.951273e-06 9.839186e-01 1.786175e-01
   outer loop
     vertex 2.123639e+00 8.170076e-02 1.462827e-02
     vertex 2.096281e+00 8.171413e-02 1.455340e-02
     vertex 2.096880e+00 8.161578e-02 1.509518e-02
   endloop
 endfacet
 facet normal 9.304803e-06 9.850084e-01 1.725066e-01
   outer loop
     vertex 2.123639e+00 8.170076e-02 1.462827e-02
     vertex 2.124277e+00 8.180974e-02 1.400596e-02
     vertex 2.096281e+00 8.171413e-02 1.455340e-02
   endloop
 endfacet
 facet normal -1.186236e-05 9.827382e-01 1.850015e-01
   outer loop
     vertex 2.122974e+00 8.159235e-02 1.522129e-02
     vertex 2.096880e+00 8.161578e-02 1.509518e-02
     vertex 2.097500e+00 8.151843e-02 1.561233e-02
   endloop
 endfacet
 facet normal 1.397528e-05 9.836970e-01 1.798337e-01
   outer loop
     vertex 2.122974e+00 8.159235e-02 1.522129e-02
     vertex 2.123639e+00 8.170076e-02 1.462827e-02
     vertex 2.096880e+00 8.161578e-02 1.509518e-02
   endloop
 endfacet
 facet normal -1.400397e-05 9.815743e-01 1.910811e-01
   outer loop
     vertex 2.122283e+00 8.148541e-02 1.578377e-02
     vertex 2.097500e+00 8.151843e-02 1.561233e-02
     vertex 2.098140e+00 8.142275e-02 1.610392e-02
   endloop
 endfacet
 facet normal 1.671687e-05 9.823982e-01 1.867990e-01
   outer loop
     vertex 2.122283e+00 8.148541e-02 1.578377e-02
     vertex 2.122974e+00 8.159235e-02 1.522129e-02
     vertex 2.097500e+00 8.151843e-02 1.561233e-02
   endloop
 endfacet
 facet normal -1.456712e-05 9.804345e-01 1.968456e-01
   outer loop
     vertex 2.121569e+00 8.138081e-02 1.631453e-02
     vertex 2.098140e+00 8.142275e-02 1.610392e-02
     vertex 2.098799e+00 8.132936e-02 1.656908e-02
   endloop
 endfacet
 facet normal 1.775140e-05 9.811225e-01 1.933875e-01
   outer loop
     vertex 2.121569e+00 8.138081e-02 1.631453e-02
     vertex 2.122283e+00 8.148541e-02 1.578377e-02
     vertex 2.098140e+00 8.142275e-02 1.610392e-02
   endloop
 endfacet
 facet normal -1.376209e-05 9.793267e-01 2.022851e-01
   outer loop
     vertex 2.120832e+00 8.127939e-02 1.681251e-02
     vertex 2.098799e+00 8.132936e-02 1.656908e-02
     vertex 2.099476e+00 8.123891e-02 1.700703e-02
   endloop
 endfacet
 facet normal 1.731704e-05 9.798804e-01 1.995857e-01
   outer loop
     vertex 2.120832e+00 8.127939e-02 1.681251e-02
     vertex 2.121569e+00 8.138081e-02 1.631453e-02
     vertex 2.098799e+00 8.132936e-02 1.656908e-02
   endloop
 endfacet
 facet normal -1.181927e-05 9.782581e-01 2.073909e-01
   outer loop
     vertex 2.120075e+00 8.118198e-02 1.727674e-02
     vertex 2.099476e+00 8.123891e-02 1.700703e-02
     vertex 2.100169e+00 8.115200e-02 1.741704e-02
   endloop
 endfacet
 facet normal 1.566223e-05 9.786820e-01 2.053814e-01
   outer loop
     vertex 2.120075e+00 8.118198e-02 1.727674e-02
     vertex 2.120832e+00 8.127939e-02 1.681251e-02
     vertex 2.099476e+00 8.123891e-02 1.700703e-02
   endloop
 endfacet
 facet normal 1.304022e-05 9.775370e-01 2.107638e-01
   outer loop
     vertex 2.119300e+00 8.108936e-02 1.770637e-02
     vertex 2.120075e+00 8.118198e-02 1.727674e-02
     vertex 2.100169e+00 8.115200e-02 1.741704e-02
   endloop
 endfacet
 facet normal -8.988389e-06 9.772360e-01 2.121552e-01
   outer loop
     vertex 2.119300e+00 8.108936e-02 1.770637e-02
     vertex 2.100169e+00 8.115200e-02 1.741704e-02
     vertex 2.100878e+00 8.106920e-02 1.779847e-02
   endloop
 endfacet
 facet normal 9.705090e-06 9.764545e-01 2.157233e-01
   outer loop
     vertex 2.118507e+00 8.100226e-02 1.810067e-02
     vertex 2.119300e+00 8.108936e-02 1.770637e-02
     vertex 2.100878e+00 8.106920e-02 1.779847e-02
   endloop
 endfacet
 facet normal -5.535080e-06 9.762669e-01 2.165708e-01
   outer loop
     vertex 2.118507e+00 8.100226e-02 1.810067e-02
     vertex 2.100878e+00 8.106920e-02 1.779847e-02
     vertex 2.101601e+00 8.099106e-02 1.815074e-02
   endloop
 endfacet
 facet normal 5.910408e-06 9.754431e-01 2.202515e-01
   outer loop
     vertex 2.117698e+00 8.092136e-02 1.845899e-02
     vertex 2.118507e+00 8.100226e-02 1.810067e-02
     vertex 2.101601e+00 8.099106e-02 1.815074e-02
   endloop
 endfacet
 facet normal -1.732681e-06 9.753573e-01 2.206312e-01
   outer loop
     vertex 2.117698e+00 8.092136e-02 1.845899e-02
     vertex 2.101601e+00 8.099106e-02 1.815074e-02
     vertex 2.102336e+00 8.091808e-02 1.847334e-02
   endloop
 endfacet
 facet normal 1.902286e-06 9.745130e-01 2.243309e-01
   outer loop
     vertex 2.117698e+00 8.092136e-02 1.845899e-02
     vertex 2.102336e+00 8.091808e-02 1.847334e-02
     vertex 2.103083e+00 8.085075e-02 1.876584e-02
   endloop
 endfacet
 facet normal -1.672083e-06 9.737356e-01 2.276819e-01
   outer loop
     vertex 2.116876e+00 8.084728e-02 1.878079e-02
     vertex 2.103083e+00 8.085075e-02 1.876584e-02
     vertex 2.103840e+00 8.078948e-02 1.902788e-02
   endloop
 endfacet
 facet normal 2.141780e-06 9.745105e-01 2.243417e-01
   outer loop
     vertex 2.116876e+00 8.084728e-02 1.878079e-02
     vertex 2.117698e+00 8.092136e-02 1.845899e-02
     vertex 2.103083e+00 8.085075e-02 1.876584e-02
   endloop
 endfacet
 facet normal 4.785935e-06 9.736600e-01 2.280049e-01
   outer loop
     vertex 2.116042e+00 8.078059e-02 1.906560e-02
     vertex 2.116876e+00 8.084728e-02 1.878079e-02
     vertex 2.103840e+00 8.078948e-02 1.902788e-02
   endloop
 endfacet
 facet normal -3.873094e-06 9.730348e-01 2.306585e-01
   outer loop
     vertex 2.116042e+00 8.078059e-02 1.906560e-02
     vertex 2.103840e+00 8.078948e-02 1.902788e-02
     vertex 2.104607e+00 8.073466e-02 1.925916e-02
   endloop
 endfacet
 facet normal 6.146556e-06 9.729018e-01 2.312188e-01
   outer loop
     vertex 2.115197e+00 8.072178e-02 1.931305e-02
     vertex 2.116042e+00 8.078059e-02 1.906560e-02
     vertex 2.104607e+00 8.073466e-02 1.925916e-02
   endloop
 endfacet
 facet normal -4.848439e-06 9.724137e-01 2.332628e-01
   outer loop
     vertex 2.115197e+00 8.072178e-02 1.931305e-02
     vertex 2.104607e+00 8.073466e-02 1.925916e-02
     vertex 2.105382e+00 8.068662e-02 1.945944e-02
   endloop
 endfacet
 facet normal 6.446177e-06 9.722417e-01 2.339788e-01
   outer loop
     vertex 2.114343e+00 8.067130e-02 1.952284e-02
     vertex 2.115197e+00 8.072178e-02 1.931305e-02
     vertex 2.105382e+00 8.068662e-02 1.945944e-02
   endloop
 endfacet
 facet normal -4.865835e-06 9.718769e-01 2.354895e-01
   outer loop
     vertex 2.114343e+00 8.067130e-02 1.952284e-02
     vertex 2.105382e+00 8.068662e-02 1.945944e-02
     vertex 2.106162e+00 8.064569e-02 1.962835e-02
   endloop
 endfacet
 facet normal 5.946498e-06 9.716847e-01 2.362812e-01
   outer loop
     vertex 2.113481e+00 8.062951e-02 1.969471e-02
     vertex 2.114343e+00 8.067130e-02 1.952284e-02
     vertex 2.106162e+00 8.064569e-02 1.962835e-02
   endloop
 endfacet
 facet normal -4.187278e-06 9.714276e-01 2.373361e-01
   outer loop
     vertex 2.113481e+00 8.062951e-02 1.969471e-02
     vertex 2.106162e+00 8.064569e-02 1.962835e-02
     vertex 2.106948e+00 8.061211e-02 1.976581e-02
   endloop
 endfacet
 facet normal 4.884416e-06 9.712351e-01 2.381226e-01
   outer loop
     vertex 2.112614e+00 8.059672e-02 1.982848e-02
     vertex 2.113481e+00 8.062951e-02 1.969471e-02
     vertex 2.106948e+00 8.061211e-02 1.976581e-02
   endloop
 endfacet
 facet normal -3.088334e-06 9.710682e-01 2.388023e-01
   outer loop
     vertex 2.112614e+00 8.059672e-02 1.982848e-02
     vertex 2.106948e+00 8.061211e-02 1.976581e-02
     vertex 2.107738e+00 8.058607e-02 1.987171e-02
   endloop
 endfacet
 facet normal 3.475363e-06 9.708963e-01 2.395002e-01
   outer loop
     vertex 2.111742e+00 8.057316e-02 1.992401e-02
     vertex 2.112614e+00 8.059672e-02 1.982848e-02
     vertex 2.107738e+00 8.058607e-02 1.987171e-02
   endloop
 endfacet
 facet normal -1.875785e-06 9.708010e-01 2.398863e-01
   outer loop
     vertex 2.111742e+00 8.057316e-02 1.992401e-02
     vertex 2.107738e+00 8.058607e-02 1.987171e-02
     vertex 2.108531e+00 8.056772e-02 1.994599e-02
   endloop
 endfacet
 facet normal 1.920152e-06 9.706717e-01 2.404088e-01
   outer loop
     vertex 2.110876e+00 8.055909e-02 1.998080e-02
     vertex 2.111742e+00 8.057316e-02 1.992401e-02
     vertex 2.108531e+00 8.056772e-02 1.994599e-02
   endloop
 endfacet
 facet normal -5.695664e-07 9.706326e-01 2.405668e-01
   outer loop
     vertex 2.110876e+00 8.055909e-02 1.998080e-02
     vertex 2.108531e+00 8.056772e-02 1.994599e-02
     vertex 2.109263e+00 8.055770e-02 1.998643e-02
   endloop
 endfacet
 facet normal 4.802132e-07 9.705623e-01 2.408502e-01
   outer loop
     vertex 2.110876e+00 8.055909e-02 1.998080e-02
     vertex 2.109263e+00 8.055770e-02 1.998643e-02
     vertex 2.110000e+00 8.055433e-02 2.000000e-02
   endloop
 endfacet
endsolid shape
